<svg width="70" height="70" viewBox="0 0 70 70" fill="none" xmlns="http://www.w3.org/2000/svg">
<rect width="70" height="70" rx="10" fill="white"/>
<g clip-path="url(#clip0_3299_3223)">
<path d="M47.7439 41.8848C44.6384 45.0195 42.7343 49.2188 42.3827 53.6134C42.324 54.3749 41.6796 54.9609 40.9178 54.9609H29.0818C28.3201 54.9609 27.6757 54.375 27.617 53.6134C27.2654 49.2188 25.3612 45.0195 22.2557 41.8848C21.7576 41.4161 21.6698 40.625 22.0507 40.0391L33.535 22.8125L34.8241 25.0978L34.9999 24.8633L36.4647 22.8125L47.949 40.0391C48.33 40.625 48.2422 41.4161 47.7439 41.8848Z" fill="#FFDA45"/>
<path d="M47.744 41.8848C44.6386 45.0195 42.7344 49.2188 42.3828 53.6134C42.3241 54.3749 41.6797 54.9609 40.918 54.9609H35V24.8633L36.4648 22.8125L47.9491 40.0391C48.3301 40.625 48.2423 41.4161 47.744 41.8848Z" fill="#FFBC36"/>
<path d="M37.9297 51.2109H32.0703C28.0273 51.2109 24.7461 54.4922 24.7461 58.5352C24.7461 59.3554 25.3905 60 26.2109 60H43.7891C44.6095 60 45.2539 59.3554 45.2539 58.5352C45.2539 54.4922 41.9727 51.2109 37.9297 51.2109Z" fill="#BF6015"/>
<path d="M45.2539 58.5352C45.2539 59.3554 44.6095 60 43.7891 60H35V51.2109H37.9297C41.9727 51.2109 45.2539 54.4922 45.2539 58.5352Z" fill="#994C10"/>
<path d="M54.043 14.3945C54.043 15.2147 53.3985 15.8594 52.5781 15.8594H17.4219C16.6015 15.8594 15.957 15.2147 15.957 14.3945C15.957 13.5741 16.6015 12.9297 17.4219 12.9297H52.5781C53.3985 12.9297 54.043 13.5741 54.043 14.3945Z" fill="#1689FC"/>
<path d="M54.043 14.3945C54.043 15.2147 53.3985 15.8594 52.5781 15.8594H35V12.9297H52.5781C53.3985 12.9297 54.043 13.5741 54.043 14.3945Z" fill="#136EF1"/>
<path d="M17.4219 33.4377C16.6122 33.4377 15.957 32.7826 15.957 31.9729C15.957 22.6288 22.6361 14.7295 31.8386 13.1917C32.6325 13.0501 33.3907 13.598 33.5252 14.3948C33.6582 15.193 33.1203 15.9483 32.3222 16.0814C24.5372 17.3832 18.8867 24.0665 18.8867 31.9729C18.8867 32.7826 18.2315 33.4377 17.4219 33.4377Z" fill="#1689FC"/>
<path d="M52.5785 33.4376C51.7689 33.4376 51.1137 32.7825 51.1137 31.9728C51.1137 24.0663 45.4632 17.383 37.6783 16.0813C36.8801 15.9483 36.3422 15.1929 36.4753 14.3947C36.6083 13.5979 37.3622 13.0486 38.1619 13.1916C47.3643 14.7294 54.0434 22.6286 54.0434 31.9728C54.0434 32.7825 53.3882 33.4376 52.5785 33.4376Z" fill="#136EF1"/>
<path d="M17.4219 39.2969C14.9986 39.2969 13.0273 37.3256 13.0273 34.9023C13.0273 32.4791 14.9986 30.5078 17.4219 30.5078C19.8451 30.5078 21.8164 32.4791 21.8164 34.9023C21.8164 37.3256 19.8451 39.2969 17.4219 39.2969Z" fill="#00C8C8"/>
<path d="M17.4219 36.3672C16.6142 36.3672 15.957 35.7101 15.957 34.9023C15.957 34.0946 16.6142 33.4375 17.4219 33.4375C18.2296 33.4375 18.8867 34.0946 18.8867 34.9023C18.8867 35.7101 18.2296 36.3672 17.4219 36.3672Z" fill="#E1F1FA"/>
<path d="M52.5781 39.2969C50.1549 39.2969 48.1836 37.3256 48.1836 34.9023C48.1836 32.4791 50.1549 30.5078 52.5781 30.5078C55.0014 30.5078 56.9727 32.4791 56.9727 34.9023C56.9727 37.3256 55.0014 39.2969 52.5781 39.2969Z" fill="#00A1B2"/>
<path d="M52.5781 36.3672C51.7704 36.3672 51.1133 35.7101 51.1133 34.9023C51.1133 34.0946 51.7704 33.4375 52.5781 33.4375C53.3858 33.4375 54.043 34.0946 54.043 34.9023C54.043 35.7101 53.3858 36.3672 52.5781 36.3672Z" fill="#BFE1FF"/>
<path d="M35 10C32.5683 10 30.6055 11.9628 30.6055 14.3945C30.6055 16.8261 32.5683 18.7891 35 18.7891C37.4317 18.7891 39.3945 16.8261 39.3945 14.3945C39.3945 11.9628 37.4317 10 35 10Z" fill="#00C8C8"/>
<path d="M17.3242 18.7891H11.4648C10.6552 18.7891 10 18.1339 10 17.3242V11.4648C10 10.6552 10.6552 10 11.4648 10H17.3242C18.1339 10 18.7891 10.6552 18.7891 11.4648V17.3242C18.7891 18.1339 18.1339 18.7891 17.3242 18.7891Z" fill="#00C8C8"/>
<path d="M15.8594 12.9297H12.9297V15.8594H15.8594V12.9297Z" fill="#E1F1FA"/>
<path d="M58.5352 18.7891H52.6758C51.8661 18.7891 51.2109 18.1339 51.2109 17.3242V11.4648C51.2109 10.6552 51.8661 10 52.6758 10H58.5352C59.3448 10 60 10.6552 60 11.4648V17.3242C60 18.1339 59.3448 18.7891 58.5352 18.7891Z" fill="#00A1B2"/>
<path d="M57.0703 12.9297H54.1406V15.8594H57.0703V12.9297Z" fill="#BFE1FF"/>
<path d="M35 36.4648C32.5683 36.4648 30.6055 38.4276 30.6055 40.8594C30.6055 43.2909 32.5683 45.2539 35 45.2539C37.4317 45.2539 39.3945 43.2909 39.3945 40.8594C39.3945 38.4276 37.4317 36.4648 35 36.4648Z" fill="#994C0F"/>
<path d="M36.4648 22.8124V37.9297C36.4648 38.7499 35.8204 39.3945 35 39.3945C34.1796 39.3945 33.5352 38.7499 33.5352 37.9297V22.8124L33.7696 22.4608C34.0625 22.0507 34.5313 21.8457 35 21.8457C35.4687 21.8457 35.9375 22.0506 36.2304 22.4608L36.4648 22.8124Z" fill="#994C0F"/>
<path d="M35 18.7891V10C37.4317 10 39.3945 11.9628 39.3945 14.3945C39.3945 16.8261 37.4317 18.7891 35 18.7891Z" fill="#00A1B2"/>
<path d="M35 15.8594C34.1923 15.8594 33.5352 15.2022 33.5352 14.3945C33.5352 13.5868 34.1923 12.9297 35 12.9297C35.8077 12.9297 36.4648 13.5868 36.4648 14.3945C36.4648 15.2022 35.8077 15.8594 35 15.8594Z" fill="#E1F1FA"/>
<path d="M36.4648 14.3945C36.4648 13.5868 35.8077 12.9297 35 12.9297V15.8594C35.8077 15.8594 36.4648 15.2022 36.4648 14.3945Z" fill="#BFE1FF"/>
<path d="M35 39.3945V21.8457C35.4687 21.8457 35.9375 22.0506 36.2304 22.4608L36.4648 22.8124V37.9297C36.4648 38.7499 35.8204 39.3945 35 39.3945Z" fill="#713708"/>
<path d="M39.3945 40.8594C39.3945 43.2909 37.4317 45.2539 35 45.2539V36.4648C37.4317 36.4648 39.3945 38.4276 39.3945 40.8594Z" fill="#713708"/>
</g>
<defs>
<clipPath id="clip0_3299_3223">
<rect width="50" height="50" fill="white" transform="translate(10 10)"/>
</clipPath>
</defs>
</svg>
