<svg width="175" height="25" viewBox="0 0 175 25" fill="none" xmlns="http://www.w3.org/2000/svg">
<g clip-path="url(#clip0_282_6143)">
<path d="M46.1226 1.80981C50.7755 1.80981 53.0329 4.10553 53.0329 7.79211C53.0329 10.558 51.7819 12.2413 49.2127 12.8696C52.583 13.4267 54.2484 15.268 54.2484 18.5002C54.2484 22.1512 51.7819 24.6563 46.679 24.6563H37.2666V1.80981H46.1226ZM40.3922 4.80096V11.613H45.7042C48.6562 11.613 49.8717 10.2577 49.8717 8.05685C49.8717 5.85597 48.5536 4.78911 45.7042 4.78911L40.3922 4.80096ZM40.3922 14.3987V21.5111H46.7816C49.7691 21.5111 51.1228 20.4324 51.1228 18.1367C51.1228 15.7027 49.8362 14.3829 46.7145 14.3829L40.3922 14.3987Z" fill="#253858"/>
<path d="M59.3553 0.592625C59.6341 0.572653 59.9139 0.612923 60.1758 0.710705C60.4376 0.808488 60.6754 0.961497 60.873 1.15936C61.0707 1.35722 61.2235 1.59532 61.3212 1.8575C61.4188 2.11968 61.459 2.39981 61.4391 2.67892C61.4391 3.23224 61.2196 3.7629 60.8288 4.15416C60.438 4.54541 59.908 4.76522 59.3553 4.76522C58.8027 4.76522 58.2727 4.54541 57.8819 4.15416C57.4911 3.7629 57.2716 3.23224 57.2716 2.67892C57.2516 2.39981 57.2918 2.11968 57.3895 1.8575C57.4872 1.59532 57.64 1.35722 57.8376 1.15936C58.0352 0.961497 58.273 0.808488 58.5349 0.710705C58.7968 0.612923 59.0766 0.572653 59.3553 0.592625ZM57.828 7.27036H60.8155V24.6562H57.828V7.27036Z" fill="#253858"/>
<path d="M72.2212 21.7322C72.8527 21.7133 73.4807 21.6313 74.0958 21.4872V24.3717C73.4414 24.5589 72.7637 24.6521 72.0831 24.6483C68.3655 24.6483 66.558 22.4592 66.558 19.2231V10.0481H63.7441V7.28222H66.558V3.57983H69.4587V7.26641H74.0761V10.0323H69.4587V19.1599C69.4587 20.689 70.3624 21.7322 72.2212 21.7322Z" fill="#253858"/>
<path d="M86.4086 25C83.875 25 81.9293 23.8541 80.8835 21.594V24.6523H77.896V0H80.9032V10.3959C82.0161 8.10021 84.0999 6.91876 86.7717 6.91876C91.3891 6.91876 93.7175 10.8464 93.7175 15.9594C93.7018 20.863 91.2707 25 86.4086 25ZM85.9548 9.70049C83.2711 9.70049 80.9032 11.4035 80.9032 15.2639V16.6548C80.9032 20.5153 83.0896 22.2183 85.639 22.2183C89.0094 22.2183 90.7458 19.9937 90.7458 15.9594C90.7143 11.7868 89.0488 9.70049 85.9548 9.70049Z" fill="#253858"/>
<path d="M96.8276 7.26636H99.8151V17.7808C99.8151 20.9103 101.066 22.3011 103.912 22.3011C106.674 22.3011 108.6 20.4598 108.6 16.9471V7.26636H111.588V24.6522H108.6V21.7993C108.068 22.7863 107.275 23.6074 106.307 24.172C105.339 24.7367 104.234 25.0232 103.114 24.9999C99.1206 24.9999 96.8276 22.234 96.8276 17.4529V7.26636Z" fill="#253858"/>
<path d="M128.36 24.2018C127.318 24.7589 125.72 24.992 124.121 24.992C117.941 24.992 115.044 21.2383 115.044 15.904C115.044 10.6527 117.925 6.89895 124.121 6.89895C125.549 6.85715 126.966 7.14939 128.261 7.75243V10.5184C127.027 9.94195 125.676 9.66188 124.315 9.70043C119.8 9.70043 117.961 12.5493 117.961 15.9238C117.961 19.2982 119.835 22.1471 124.386 22.1471C125.728 22.1828 127.066 21.9712 128.332 21.5228L128.36 24.2018Z" fill="#253858"/>
<path d="M131.766 24.6523V0H134.754V15.4101L142.22 7.27438H146.112L137.946 15.8053L146.455 24.6523H142.39L134.75 16.5165V24.6523H131.766Z" fill="#253858"/>
<path d="M156.353 25.0001C149.857 25.0001 147.011 21.2463 147.011 15.912C147.011 10.6607 149.928 6.90698 155.208 6.90698C160.556 6.90698 162.706 10.6291 162.706 15.912V17.2673H150.03C150.449 20.2229 152.359 22.1354 156.455 22.1354C158.257 22.135 160.044 21.818 161.736 21.1989V23.9648C160.311 24.7235 158.125 25.0001 156.353 25.0001ZM149.999 14.7266H159.687C159.514 11.4945 158.054 9.6492 155.07 9.6492C151.905 9.63339 150.311 11.6841 149.999 14.7069V14.7266Z" fill="#253858"/>
<path d="M173.126 21.7322C173.757 21.7133 174.385 21.6313 175 21.4872V24.3717C174.346 24.5589 173.668 24.6521 172.987 24.6483C169.27 24.6483 167.462 22.4592 167.462 19.2231V10.0481H164.648V7.28222H167.462V3.57983H170.379V7.26641H174.996V10.0323H170.379V19.1599C170.383 20.689 171.279 21.7322 173.126 21.7322Z" fill="#253858"/>
<path d="M0.789227 2.47345C0.674037 2.47197 0.559918 2.49574 0.454883 2.54311C0.349847 2.59048 0.256441 2.6603 0.181223 2.74766C0.106005 2.83502 0.0507973 2.9378 0.0194774 3.0488C-0.0118426 3.15979 -0.0185162 3.27631 -7.46623e-05 3.39016L3.35051 23.7553C3.39226 24.0045 3.52037 24.231 3.71235 24.395C3.90434 24.5591 4.1479 24.6501 4.40028 24.6522H20.4744C20.6636 24.6546 20.8474 24.589 20.9922 24.4671C21.1371 24.3453 21.2335 24.1754 21.2637 23.9884L24.6143 3.39411C24.6327 3.28026 24.6261 3.16375 24.5947 3.05275C24.5634 2.94175 24.5082 2.83897 24.433 2.75161C24.3578 2.66425 24.2644 2.59443 24.1593 2.54706C24.0543 2.49969 23.9402 2.47592 23.825 2.47741L0.789227 2.47345ZM14.898 17.1921H9.76753L8.37836 9.92564H16.1411L14.898 17.1921Z" fill="#2684FF"/>
<path d="M23.5486 9.92578H16.141L14.8978 17.1923H9.76736L3.70947 24.3916C3.90148 24.5578 4.14628 24.6502 4.40011 24.6523H20.4782C20.6674 24.6548 20.8511 24.5891 20.996 24.4673C21.1409 24.3454 21.2372 24.1755 21.2675 23.9885L23.5486 9.92578Z" fill="url(#paint0_linear_282_6143)"/>
</g>
<defs>
<linearGradient id="paint0_linear_282_6143" x1="25.2614" y1="11.9607" x2="13.008" y2="21.5124" gradientUnits="userSpaceOnUse">
<stop offset="0.18" stop-color="#0052CC"/>
<stop offset="1" stop-color="#2684FF"/>
</linearGradient>
<clipPath id="clip0_282_6143">
<rect width="175" height="25" fill="white"/>
</clipPath>
</defs>
</svg>
