<svg width="40" height="40" viewBox="0 0 40 40" fill="none" xmlns="http://www.w3.org/2000/svg">
<circle cx="20" cy="20" r="20" fill="#6C5CE7"/>
<path d="M38 20.348C38 30.0942 29.9385 37.9998 20 37.9998C10.0615 37.9998 2 30.0942 2 20.348C2.03077 10.6019 10.0615 2.69629 20.0308 2.69629C29.9692 2.69629 38 10.6019 38 20.348Z" fill="white"/>
<mask id="mask0_3315_10464" style="mask-type:luminance" maskUnits="userSpaceOnUse" x="2" y="2" width="35" height="34">
<path d="M19.0168 35.3254C28.4009 35.3254 36.0082 27.8652 36.0082 18.6627C36.0082 9.46014 28.4009 2 19.0168 2C9.63271 2 2.02539 9.46014 2.02539 18.6627C2.02539 27.8652 9.63271 35.3254 19.0168 35.3254Z" fill="white"/>
</mask>
<g mask="url(#mask0_3315_10464)">
<path d="M-10.3389 23.9182C-10.3389 23.9182 -4.24656 22.319 -4.15425 22.8018C-2.58502 33.3626 -1.9081 37.1947 -1.66195 37.2852C-0.892716 37.6473 8.73805 28.5348 10.4611 27.9012C11.2919 27.5994 12.215 27.6296 13.0765 27.6296C15.1688 27.6296 15.5996 27.6296 15.5996 27.6296C15.6611 27.6296 15.6611 27.6296 15.6611 27.6296L15.6919 29.5607C13.3842 31.7031 11.1381 73.0715 10.6765 73.0414C10.1534 73.0414 0.584206 72.981 1.04574 72.1965C1.04574 72.1965 3.35344 59.4631 5.16882 51.0747C5.7842 48.2686 7.47651 42.3545 7.47651 42.3545C5.13805 43.5916 -4.00041 48.2987 -5.47733 47.7254C-10.0619 46.0357 -10.3389 23.9182 -10.3389 23.9182Z" fill="#F47458"/>
<path d="M7.7536 49.0827C8.79976 44.0135 11.4767 35.7156 12.2767 33.8147C14.0921 29.4998 15.5998 27.6592 15.5998 27.6592L22.7382 27.8704C22.7382 27.8704 22.8921 27.9006 22.9536 27.9307C23.5382 28.0213 23.569 48.449 23.2305 56.083C22.9228 63.717 21.1998 73.6443 21.1998 73.6443L19.169 73.4632C19.1382 74.4891 19.1074 75.1831 19.1074 75.1831C8.76899 76.9634 2.98438 71.9847 2.98438 71.9847C2.98438 71.9847 6.39976 55.6304 7.7536 49.0827Z" fill="#466EB6"/>
<path d="M22.7373 27.8403C22.7373 27.8403 29.8143 27.3274 31.5989 26.4825C32.7066 25.9695 41.5989 18.5467 41.5989 18.5467L40.9835 -0.704238L47.3835 -1.33789C47.3835 -1.33789 51.2604 19.8442 50.1835 22.1978C49.0758 24.6419 36.0296 34.8708 33.4758 39.2461C31.9989 41.7505 33.4143 75.8772 32.9219 76.2091C29.5373 78.0498 15.2296 79.6791 15.4758 78.6231C21.5989 48.9621 22.7373 27.8403 22.7373 27.8403Z" fill="#F47458"/>
<path d="M22.3683 21.6844L22.7376 27.87C22.7376 27.87 18.3376 35.8058 15.9376 34.7799C13.9376 33.9048 15.5376 27.9304 15.5376 27.9304C15.5376 27.9304 15.8452 26.5726 16.276 24.9733C16.5837 23.8569 16.8299 22.6801 16.7683 21.8051C16.676 19.6929 22.3683 21.6844 22.3683 21.6844Z" fill="#F7A491"/>
<path d="M16.7667 21.8051C16.6744 19.6929 22.3667 21.6844 22.3667 21.6844L22.3975 22.2879C22.2129 22.5594 21.9975 22.831 21.7821 23.012C20.3052 24.2492 18.1206 24.8526 16.3359 24.7018C16.6129 23.6759 16.7975 22.5896 16.7667 21.8051Z" fill="#F47458"/>
<path d="M16.4921 7.71387C16.4921 7.71387 14.2152 11.2442 14.1229 14.2013C14.0306 17.1281 14.7075 19.1196 14.7075 19.1196L22.0306 10.0674L16.4921 7.71387Z" fill="#184655"/>
<path d="M13.322 13.6282C13.2297 14.6542 13.6605 15.5292 14.2759 15.5594C14.8913 15.6197 15.4451 14.805 15.5374 13.7791C15.6297 12.7532 15.199 11.8782 14.5836 11.848C13.9682 11.7876 13.3836 12.5722 13.322 13.6282Z" fill="#F48C7F"/>
<path d="M24.5212 11.4251C24.7058 11.395 24.8904 19.904 22.4289 21.986C19.9674 24.068 15.5674 24.3396 14.2443 22.3481C12.7674 20.1454 13.8751 11.1234 17.5674 9.13193C21.2597 7.11027 24.5212 11.4251 24.5212 11.4251Z" fill="#F7A491"/>
<path d="M25.0135 6.11485C26.9827 7.71407 27.9366 8.89085 29.3212 11.8177C31.0135 15.3782 27.9366 19.2103 25.3212 20.7794C22.7058 22.3484 22.5212 24.1287 22.5212 24.1287L22.3673 23.0123C22.3058 22.62 22.3058 22.2881 22.3673 21.9863C22.4289 21.6544 22.5827 21.3829 22.7366 21.0811C22.9519 20.5983 23.6289 18.9388 23.9058 18.5163C24.6135 17.3697 24.7673 17.1283 24.3673 16.0421C24.0596 15.2274 24.3366 13.3868 23.875 12.0289L20.275 11.3651C20.275 11.3651 18.0289 10.8823 16.8596 9.6452C13.5058 6.0545 19.8135 1.79997 25.0135 6.11485Z" fill="#184655"/>
<path d="M23.5382 17.0082C23.1075 17.9436 23.2306 18.9092 23.8152 19.1506C24.369 19.392 25.169 18.8186 25.5998 17.8531C26.0306 16.9177 25.9075 15.9521 25.3229 15.7107C24.769 15.4995 23.969 16.0728 23.5382 17.0082Z" fill="#F7A491"/>
</g>
</svg>
