<svg width="70" height="70" viewBox="0 0 70 70" fill="none" xmlns="http://www.w3.org/2000/svg">
<rect width="70" height="70" rx="10" fill="white"/>
<g clip-path="url(#clip0_3299_3214)">
<path d="M35 60C48.8071 60 60 48.8071 60 35C60 21.1929 48.8071 10 35 10C21.1929 10 10 21.1929 10 35C10 48.8071 21.1929 60 35 60Z" fill="url(#paint0_linear_3299_3214)"/>
<path d="M45.8896 24.29H24.1104C22.5738 24.29 21.3281 25.5357 21.3281 27.0723V43.0244C21.3281 44.561 22.5738 45.8066 24.1104 45.8066H45.8896C47.4262 45.8066 48.6719 44.561 48.6719 43.0244V27.0723C48.6719 25.5357 47.4262 24.29 45.8896 24.29Z" fill="#FFF5F6"/>
<path d="M48.6719 27.0723V43.0254C48.6719 43.3908 48.5999 43.7525 48.4601 44.0901C48.3203 44.4277 48.1153 44.7344 47.857 44.9927C47.5986 45.2511 47.2919 45.456 46.9544 45.5958C46.6168 45.7357 46.255 45.8076 45.8896 45.8076H35V24.291H45.8896C46.255 24.2909 46.6167 24.3627 46.9543 24.5024C47.2918 24.6422 47.5986 24.847 47.8569 25.1053C48.1153 25.3636 48.3202 25.6702 48.4601 26.0077C48.5999 26.3452 48.6719 26.7069 48.6719 27.0723Z" fill="#EAE6F4"/>
<path d="M31.5309 40.6574C31.3493 40.6576 31.1696 40.6217 31.002 40.552C30.8343 40.4823 30.6822 40.38 30.5543 40.2512L25.8541 35.551C25.7086 35.4046 25.627 35.2066 25.627 35.0002C25.627 34.7938 25.7086 34.5958 25.8541 34.4494L30.5983 29.7053C30.7258 29.571 30.8789 29.4636 31.0485 29.3895C31.2182 29.3153 31.401 29.2759 31.5861 29.2736C31.7712 29.2712 31.955 29.3059 32.1265 29.3757C32.298 29.4455 32.4538 29.5489 32.5846 29.6798C32.7155 29.8108 32.8189 29.9666 32.8886 30.1382C32.9583 30.3097 32.9929 30.4935 32.9904 30.6786C32.988 30.8637 32.9485 31.0465 32.8742 31.2161C32.8 31.3857 32.6926 31.5388 32.5582 31.6662L29.2203 35.0002L32.5114 38.2912C32.7047 38.4849 32.8364 38.7316 32.8898 39C32.9432 39.2685 32.916 39.5467 32.8116 39.7997C32.7072 40.0527 32.5302 40.2692 32.303 40.4218C32.0758 40.5744 31.8085 40.6564 31.5348 40.6574H31.5309Z" fill="#FE6C5F"/>
<path d="M38.4256 40.7013C38.1517 40.7005 37.8842 40.6186 37.6568 40.4659C37.4293 40.3133 37.2522 40.0967 37.1478 39.8434C37.0433 39.5902 37.0162 39.3118 37.0698 39.0432C37.1234 38.7745 37.2554 38.5278 37.449 38.3341L40.7801 35.0001L37.4891 31.7091C37.2294 31.4491 37.0835 31.0966 37.0835 30.7291C37.0835 30.3616 37.2294 30.0092 37.4891 29.7492C37.6177 29.6203 37.7705 29.5181 37.9386 29.4484C38.1068 29.3787 38.287 29.3428 38.4691 29.3428C38.6511 29.3428 38.8314 29.3787 38.9995 29.4484C39.1677 29.5181 39.3204 29.6203 39.449 29.7492L44.1502 34.4494C44.2957 34.5957 44.3774 34.7937 44.3774 35.0001C44.3774 35.2065 44.2957 35.4045 44.1502 35.5509L39.4061 40.2951C39.278 40.4237 39.1259 40.5258 38.9583 40.5955C38.7907 40.6653 38.611 40.7012 38.4295 40.7013H38.4256Z" fill="#FD4760"/>
</g>
<defs>
<linearGradient id="paint0_linear_3299_3214" x1="17.3223" y1="17.3223" x2="52.6777" y2="52.6777" gradientUnits="userSpaceOnUse">
<stop stop-color="#0FC8FF"/>
<stop offset="1" stop-color="#4760FF"/>
</linearGradient>
<clipPath id="clip0_3299_3214">
<rect width="50" height="50" fill="white" transform="translate(10 10)"/>
</clipPath>
</defs>
</svg>
