<svg width="70" height="70" viewBox="0 0 70 70" fill="none" xmlns="http://www.w3.org/2000/svg">
<rect width="70" height="70" rx="10" fill="white"/>
<g clip-path="url(#clip0_3299_3146)">
<path d="M58.8864 30.6646L56.3869 30.0496C55.8595 27.6768 54.9223 25.4212 53.6332 23.3707L54.893 21.2617C55.2442 20.6759 55.1566 19.9435 54.6877 19.4748L52.6373 17.4243L50.5283 15.3153C50.0596 14.8466 49.3273 14.7588 48.7411 15.1102L46.6322 16.3698C44.5818 15.0809 42.3261 14.1435 39.9533 13.6163L39.3382 11.1166C39.1916 10.4721 38.6059 10.0034 37.9323 10.0034H32.0736C31.4 10.0034 30.8142 10.472 30.6676 11.1166L30.0526 13.6163C27.6797 14.1435 25.4241 15.0809 23.3737 16.3698L21.2645 15.1102C20.6787 14.7587 19.9464 14.8465 19.4776 15.3153L15.3178 19.4749C14.849 19.9434 14.7612 20.6758 15.1127 21.2618L16.3723 23.3708C15.0834 25.4213 14.146 27.6769 13.6187 30.0497L11.119 30.6647C10.4745 30.8113 10.0059 31.397 10.0059 32.0709V37.9294C10.0059 38.6031 10.4744 39.189 11.119 39.3354L13.6187 39.9506C14.2924 42.9092 15.6106 45.7213 17.4268 48.1528L21.8501 52.576C24.2815 54.3922 27.0934 55.7104 30.0522 56.3841L30.6672 58.8838C30.8138 59.5281 31.3996 59.997 32.0732 59.997H37.9319C38.6055 59.997 39.1913 59.5282 39.3378 58.8838L39.9529 56.3841C42.3258 55.8568 44.5814 54.9194 46.6318 53.6305L48.7407 54.8901C49.3268 55.2416 50.0591 55.1538 50.528 54.685L54.6874 50.5254C55.1562 50.0569 55.2438 49.3245 54.8927 48.7385L53.6329 46.6293C54.922 44.5788 55.8592 42.3234 56.3866 39.9506L58.8861 39.3354C59.5309 39.1889 59.9993 38.6031 59.9993 37.9294V32.0709C59.9995 31.3969 59.5312 30.8112 58.8864 30.6646ZM35.0027 48.1821C31.5755 48.1821 28.441 46.8932 26.1267 44.6961C25.9802 44.6081 25.8632 44.491 25.7168 44.3446C23.3147 41.9718 21.8207 38.6617 21.8207 35C21.8207 27.706 27.7086 21.8181 35.0026 21.8181C38.6642 21.8181 41.9744 23.3121 44.3469 25.714C44.4935 25.8606 44.6109 25.9778 44.6989 26.1241C46.8958 28.4383 48.1846 31.5726 48.1846 35C48.1846 42.2941 42.2967 48.1821 35.0027 48.1821Z" fill="#B7E0F6"/>
<path d="M60.0005 32.0708V37.9294C60.0005 38.603 59.5322 39.1889 58.8873 39.3353L56.3878 39.9505C55.8604 42.3233 54.9232 44.5788 53.6341 46.6292L54.8939 48.7384C55.2451 49.3243 55.1575 50.0566 54.6886 50.5253L50.5291 54.6849C50.0604 55.1536 49.3281 55.2414 48.7419 54.89L46.633 53.6304C44.5826 54.9193 42.3269 55.8567 39.9541 56.384L39.339 58.8837C39.1924 59.528 38.6067 59.9969 37.9331 59.9969H32.0744C31.4008 59.9969 30.815 59.5281 30.6684 58.8837L30.0534 56.384C27.0946 55.7104 24.2825 54.3921 21.8513 52.5759L19.6543 50.3789L25.718 44.3446C25.8644 44.4911 25.9815 44.6081 26.1279 44.6961C28.4422 46.8931 31.5767 48.1821 35.0039 48.1821C42.2979 48.1821 48.1858 42.2942 48.1858 35.0002C48.1858 31.5727 46.8971 28.4385 44.7001 26.1242C44.6121 25.9777 44.4948 25.8606 44.3481 25.7141L52.6382 17.4243L54.6886 19.4748C55.1574 19.9434 55.245 20.6757 54.8939 21.2617L53.6341 23.3707C54.9232 25.4212 55.8604 27.6768 56.3878 30.0496L58.8873 30.6646C59.5322 30.8112 60.0005 31.3969 60.0005 32.0708Z" fill="#A4D9F5"/>
<path d="M44.9227 32.3567C44.7942 31.845 44.4006 31.4418 43.8919 31.3015C43.3833 31.1611 42.8395 31.3059 42.4665 31.6791L39.1454 35.0002C38.5934 35.5522 37.8581 35.8555 37.0743 35.8555C36.2905 35.8555 35.5553 35.5523 35.0032 35.0002C33.8618 33.8588 33.8618 31.9994 35.0032 30.8579L38.3471 27.5141C38.7151 27.1461 38.857 26.6092 38.7194 26.1075C38.5819 25.6059 38.1857 25.2158 37.6814 25.0877C36.4256 24.7687 34.786 24.6207 33.0981 24.9177C28.9659 25.6758 25.6789 28.9627 24.9194 33.102C24.5918 34.9329 24.7377 36.7565 25.337 38.4357C24.5035 39.2692 11.631 52.1415 11.285 52.4876C9.56716 54.2055 9.56716 57.0003 11.3122 58.7453C13.0409 60.384 15.6884 60.453 17.5155 58.7182L31.5674 44.6663C33.8177 45.4694 36.3274 45.4531 38.7832 44.5865C42.1003 43.4159 44.3957 40.3545 45.0855 36.9053L45.0869 36.8981C45.3831 35.2417 45.2379 33.6129 44.9227 32.3567Z" fill="#17ACE8"/>
<path d="M17.5159 58.7182L31.5678 44.6663C33.8181 45.4694 36.3278 45.4531 38.7837 44.5865C42.1009 43.4159 44.3962 40.3545 45.086 36.9052L45.0874 36.8981C45.3863 35.2265 45.2357 33.5831 44.9144 32.3223C44.7858 31.818 44.3964 31.4214 43.8944 31.2839C43.3925 31.1462 42.8563 31.2896 42.4882 31.6576L39.1458 35.0002C38.5938 35.5522 37.8585 35.8555 37.0748 35.8555C36.3043 35.8555 35.5851 35.5562 35.0362 35.022L11.3125 58.7454C13.0412 60.384 15.6888 60.453 17.5159 58.7182Z" fill="#1689FC"/>
</g>
<defs>
<clipPath id="clip0_3299_3146">
<rect width="50" height="50" fill="white" transform="translate(10 10)"/>
</clipPath>
</defs>
</svg>
