<svg width="30" height="30" viewBox="0 0 30 30" fill="none" xmlns="http://www.w3.org/2000/svg">
<rect width="30" height="30" rx="5" fill="#F7F6FF"/>
<path d="M21 10.9867C18.78 10.7667 16.5467 10.6533 14.32 10.6533C13 10.6533 11.68 10.72 10.36 10.8533L9 10.9867" stroke="#9191B8" stroke-width="1.2" stroke-linecap="round" stroke-linejoin="round"/>
<path d="M12.667 10.3135L12.8137 9.44016C12.9203 8.80683 13.0003 8.3335 14.127 8.3335H15.8737C17.0003 8.3335 17.087 8.8335 17.187 9.44683L17.3337 10.3135" stroke="#9191B8" stroke-width="1.2" stroke-linecap="round" stroke-linejoin="round"/>
<path d="M19.5669 13.0933L19.1336 19.8066C19.0603 20.8533 19.0003 21.6666 17.1403 21.6666H12.8603C11.0003 21.6666 10.9403 20.8533 10.8669 19.8066L10.4336 13.0933" stroke="#9191B8" stroke-width="1.2" stroke-linecap="round" stroke-linejoin="round"/>
<path d="M13.8867 18H16.1067" stroke="#9191B8" stroke-width="1.2" stroke-linecap="round" stroke-linejoin="round"/>
<path d="M13.333 15.3335H16.6663" stroke="#9191B8" stroke-width="1.2" stroke-linecap="round" stroke-linejoin="round"/>
</svg>
