<svg width="70" height="70" viewBox="0 0 70 70" fill="none" xmlns="http://www.w3.org/2000/svg">
<rect width="70" height="70" rx="10" fill="white"/>
<g clip-path="url(#clip0_3299_3252)">
<path d="M60 35C60 48.8073 48.8073 60 35 60C21.1927 60 10 48.8073 10 35C10 21.1927 21.1927 10 35 10C48.8073 10 60 21.1927 60 35Z" fill="#0069A3"/>
<path d="M28.1133 49.6025H41.8882V55.7247H28.1133V49.6025Z" fill="#87A8E6"/>
<path d="M57.4229 18.8805V46.0671C56.483 47.9683 55.3085 49.7322 53.9371 51.3211C53.778 51.3405 53.6166 51.3508 53.4526 51.3508H16.5485C16.384 51.3508 16.2231 51.3405 16.0636 51.3211C14.6911 49.7315 13.5169 47.9683 12.5781 46.0671V18.8805C12.5781 16.6874 14.3554 14.9102 16.5485 14.9102H53.4526C55.6453 14.9102 57.4229 16.6874 57.4229 18.8805Z" fill="#D4E4FF"/>
<path d="M55.3822 18.8805V43.8088C55.3822 44.8731 54.5159 45.7387 53.4528 45.7387H16.5486C15.4843 45.7387 14.6191 44.8731 14.6191 43.8088V18.8805C14.6191 17.8162 15.4843 16.9507 16.5486 16.9507H53.4528C54.5159 16.9507 55.3822 17.8162 55.3822 18.8805Z" fill="#244477"/>
<path d="M46.4239 57.0532C46.4239 57.1184 46.422 57.1825 46.417 57.247C42.9945 59.0071 39.1126 60 34.9996 60C30.8851 60 27.0036 59.0059 23.5811 57.2458C23.5761 57.1817 23.5742 57.1173 23.5742 57.0532C23.5742 56.2399 23.9038 55.5029 24.4375 54.9692C24.9712 54.4355 25.7078 54.106 26.5211 54.106H43.477C45.1048 54.106 46.4239 55.4255 46.4239 57.0532Z" fill="#D4E4FF"/>
<path d="M25.9801 30.8632H18.4274C17.8453 30.8632 17.373 30.3909 17.373 29.8088C17.373 29.2263 17.8453 28.7544 18.4274 28.7544H25.9801C26.5627 28.7544 27.0345 29.2263 27.0345 29.8088C27.0345 30.3909 26.5627 30.8632 25.9801 30.8632Z" fill="white"/>
<path d="M25.9801 34.994H18.4274C17.8453 34.994 17.373 34.5218 17.373 33.9396C17.373 33.3571 17.8453 32.8853 18.4274 32.8853H25.9801C26.5627 32.8853 27.0345 33.3571 27.0345 33.9396C27.0345 34.5218 26.5627 34.994 25.9801 34.994Z" fill="#0069A3"/>
<path d="M25.9801 39.1249H18.4274C17.8453 39.1249 17.373 38.6526 17.373 38.0705C17.373 37.488 17.8453 37.0161 18.4274 37.0161H25.9801C26.5627 37.0161 27.0345 37.488 27.0345 38.0705C27.0345 38.6526 26.5627 39.1249 25.9801 39.1249Z" fill="#FCD971"/>
<path d="M25.9801 43.2557H18.4274C17.8453 43.2557 17.373 42.7835 17.373 42.2014C17.373 41.6189 17.8453 41.147 18.4274 41.147H25.9801C26.5627 41.147 27.0345 41.6189 27.0345 42.2014C27.0345 42.7835 26.5627 43.2557 25.9801 43.2557Z" fill="#0069A3"/>
<path d="M51.5985 30.8632H32.2438C31.6617 30.8632 31.1895 30.3909 31.1895 29.8088C31.1895 29.2263 31.6617 28.7544 32.2438 28.7544H51.5985C52.181 28.7544 52.6528 29.2263 52.6528 29.8088C52.6528 30.3909 52.181 30.8632 51.5985 30.8632Z" fill="#228BD1"/>
<path d="M51.5985 34.994H32.2438C31.6617 34.994 31.1895 34.5218 31.1895 33.9396C31.1895 33.3571 31.6617 32.8853 32.2438 32.8853H51.5985C52.181 32.8853 52.6528 33.3571 52.6528 33.9396C52.6528 34.5218 52.181 34.994 51.5985 34.994Z" fill="#FF4079"/>
<path d="M51.5985 39.1249H32.2438C31.6617 39.1249 31.1895 38.6526 31.1895 38.0705C31.1895 37.488 31.6617 37.0161 32.2438 37.0161H51.5985C52.181 37.0161 52.6528 37.488 52.6528 38.0705C52.6528 38.6526 52.181 39.1249 51.5985 39.1249Z" fill="white"/>
<path d="M51.5985 43.2557H32.2438C31.6617 43.2557 31.1895 42.7835 31.1895 42.2014C31.1895 41.6189 31.6617 41.147 32.2438 41.147H51.5985C52.181 41.147 52.6528 41.6189 52.6528 42.2014C52.6528 42.7835 52.181 43.2557 51.5985 43.2557Z" fill="#FCD971"/>
<path d="M27.7054 23.3325L30.6683 21.408C30.7266 21.3611 30.8083 21.3496 30.8899 21.3496C31.2401 21.3496 31.6833 21.7227 31.6833 22.201C31.6833 22.3994 31.6017 22.5745 31.4732 22.6561L29.4201 23.9859L31.4732 25.3158C31.6017 25.3974 31.6833 25.5725 31.6833 25.7708C31.6833 26.2492 31.2401 26.6227 30.8899 26.6227C30.8083 26.6227 30.7266 26.6108 30.6683 26.5643L27.7054 24.6394C27.4368 24.4643 27.3438 24.1843 27.3438 23.9859C27.3438 23.7876 27.4368 23.5076 27.7054 23.3325Z" fill="white"/>
<path d="M37.6318 18.8298C37.6318 18.9 37.6204 18.9816 37.5853 19.0514L33.4791 27.4624C33.3975 27.6375 33.1759 27.7539 32.9539 27.7539C32.5575 27.7539 32.3008 27.4274 32.3008 27.1359C32.3008 27.0657 32.3241 26.9841 32.3591 26.9143L36.4538 18.5033C36.5473 18.3049 36.7338 18.2114 36.9436 18.2114C37.2702 18.2114 37.6318 18.4567 37.6318 18.8298Z" fill="white"/>
<path d="M42.228 24.6394L39.2647 26.5643C39.2063 26.6112 39.1247 26.6227 39.0431 26.6227C38.6933 26.6227 38.25 26.2496 38.25 25.7712C38.25 25.5729 38.3316 25.3978 38.4598 25.3161L40.5133 23.9863L38.4598 22.6565C38.3316 22.5749 38.25 22.3998 38.25 22.2014C38.25 21.7231 38.6933 21.3496 39.0431 21.3496C39.1247 21.3496 39.2063 21.3614 39.2647 21.408L42.228 23.3329C42.4961 23.508 42.5896 23.788 42.5896 23.9863C42.5896 24.1843 42.4961 24.4647 42.228 24.6394Z" fill="white"/>
</g>
<defs>
<clipPath id="clip0_3299_3252">
<rect width="50" height="50" fill="white" transform="translate(10 10)"/>
</clipPath>
</defs>
</svg>
