<svg width="71" height="25" viewBox="0 0 71 25" fill="none" xmlns="http://www.w3.org/2000/svg">
<path d="M29.7608 18.5397H29.7306C29.7442 18.5397 29.7532 18.5549 29.7668 18.5564H29.7759L29.7608 18.5412V18.5397ZM29.7668 18.5564C29.6263 18.5579 29.2729 18.6323 28.8999 18.6323C27.7219 18.6323 27.3141 18.0854 27.3141 17.3712V12.6139H29.7155C29.8514 12.6139 29.9571 12.4924 29.9571 12.3252V9.74224C29.9571 9.60549 29.8363 9.48394 29.7155 9.48394H27.3141V6.27797C27.3141 6.15641 27.2386 6.08044 27.1026 6.08044H23.8404C23.7045 6.08044 23.6289 6.15641 23.6289 6.27797V9.5751C23.6289 9.5751 21.9827 9.98534 21.877 10.0005C21.7562 10.0309 21.6807 10.1373 21.6807 10.2588V12.3252C21.6807 12.4924 21.8015 12.6139 21.9374 12.6139H23.6138V17.5976C23.6138 21.305 26.1814 21.6849 27.9333 21.6849C28.7338 21.6849 29.7004 21.4266 29.8514 21.3506C29.942 21.3202 29.9873 21.2138 29.9873 21.1075V18.8283C29.9894 18.7637 29.9682 18.7005 29.9277 18.6502C29.8872 18.6 29.8301 18.5661 29.7668 18.5549V18.5564ZM65.5549 15.2121C65.5549 12.462 64.4524 12.0973 63.2894 12.2189C62.3832 12.2797 61.6583 12.7355 61.6583 12.7355V18.0838C61.6583 18.0838 62.3983 18.6004 63.5009 18.6308C65.0565 18.6764 65.5549 18.1142 65.5549 15.2121ZM69.2249 14.969C69.2249 20.1806 67.5485 21.6697 64.6185 21.6697C62.1416 21.6697 60.8125 20.4085 60.8125 20.4085C60.8125 20.4085 60.7521 21.1075 60.6766 21.1986C60.6313 21.2898 60.5558 21.3202 60.4652 21.3202H58.2299C58.0789 21.3202 57.943 21.1986 57.943 21.0619L57.9732 4.18117C57.9732 4.04442 58.094 3.92287 58.2299 3.92287H61.4469C61.5828 3.92287 61.7036 4.04442 61.7036 4.18117V9.90937C61.7036 9.90937 62.9421 9.10408 64.7544 9.10408L64.7393 9.07369C66.5517 9.07369 69.2249 9.75743 69.2249 14.969ZM56.0551 9.48394H52.8835C52.7173 9.48394 52.6267 9.60549 52.6267 9.77263V18.0383C52.6267 18.0383 51.796 18.6308 50.6633 18.6308C49.5306 18.6308 49.1983 18.1142 49.1983 16.9747V9.75743C49.1983 9.62068 49.0775 9.49913 48.9416 9.49913H45.7095C45.5736 9.49913 45.4528 9.62068 45.4528 9.75743V17.5217C45.4528 20.8644 47.3105 21.7 49.8629 21.7C51.9622 21.7 53.6688 20.5301 53.6688 20.5301C53.6688 20.5301 53.7443 21.1227 53.7896 21.2138C53.8198 21.2898 53.9256 21.3506 54.0313 21.3506H56.0551C56.2212 21.3506 56.3118 21.229 56.3118 21.0923L56.342 9.74224C56.342 9.60549 56.2212 9.48394 56.0551 9.48394ZM20.261 9.46874H17.044C16.9081 9.46874 16.7873 9.60549 16.7873 9.77263V20.9251C16.7873 21.229 16.9836 21.3354 17.2404 21.3354H20.1402C20.4422 21.3354 20.5177 21.1986 20.5177 20.9251V9.72704C20.5177 9.5903 20.3969 9.46874 20.261 9.46874ZM18.6752 4.33311C17.5122 4.33311 16.5909 5.25996 16.5909 6.42991C16.5909 7.59986 17.5122 8.5267 18.6752 8.5267C19.8079 8.5267 20.7292 7.59986 20.7292 6.42991C20.7292 5.25996 19.8079 4.33311 18.6752 4.33311ZM43.58 3.95326H40.3933C40.2574 3.95326 40.1365 4.07481 40.1365 4.21156V10.426H35.1374V4.21156C35.1374 4.07481 35.0166 3.95326 34.8807 3.95326H31.6637C31.5278 3.95326 31.407 4.07481 31.407 4.21156V21.0923C31.407 21.229 31.5429 21.3506 31.6637 21.3506H34.8807C35.0166 21.3506 35.1374 21.229 35.1374 21.0923V13.8751H40.1365L40.1063 21.0923C40.1063 21.229 40.2271 21.3506 40.3631 21.3506H43.58C43.7159 21.3506 43.8368 21.229 43.8368 21.0923V4.21156C43.8368 4.07481 43.7159 3.95326 43.58 3.95326ZM15.0806 11.4288V20.1502C15.0806 20.211 15.0655 20.3174 14.99 20.3478C14.99 20.3478 13.1022 21.7 9.99094 21.7C6.23029 21.7 1.7749 20.5149 1.7749 12.7051C1.7749 4.8953 5.67148 3.28472 9.47743 3.29991C12.7699 3.29991 14.099 4.04442 14.3104 4.18117C14.3708 4.25714 14.401 4.31792 14.401 4.39389L13.7667 7.09845C13.7667 7.2352 13.6308 7.40234 13.4646 7.35675C12.9209 7.18962 12.1054 6.85535 10.1873 6.85535C7.96713 6.85535 5.58086 7.4935 5.58086 12.5228C5.58086 17.552 7.84631 18.1446 9.47743 18.1446C10.8669 18.1446 11.3653 17.9775 11.3653 17.9775V14.4828H9.14517C8.97903 14.4828 8.85821 14.3613 8.85821 14.2245V11.4288C8.85821 11.292 8.97903 11.1705 9.14517 11.1705H14.7937C14.9598 11.1705 15.0806 11.292 15.0806 11.4288Z" fill="#24292E"/>
</svg>
