<svg width="184" height="25" viewBox="0 0 184 25" fill="none" xmlns="http://www.w3.org/2000/svg">
<g clip-path="url(#clip0_282_5715)">
<path d="M110.861 2.05111C107.914 2.05111 106.481 3.77703 106.481 6.31929V7.81226H104.251V9.98794H106.49V21.4901H108.802V9.98794H112.352V7.81226H108.802L108.78 6.38775C108.78 5.15697 109.512 4.308 110.97 4.308C111.469 4.30602 111.966 4.35274 112.455 4.44532V2.26887C111.937 2.12183 111.4 2.04814 110.861 2.05111ZM41.7185 2.55857C41.3303 2.57263 40.9594 2.73169 40.6829 3.00763C40.3655 3.32177 40.2022 3.75858 40.2333 4.20241C40.2333 4.78934 40.5476 5.33217 41.0592 5.625C41.5701 5.91908 42.2005 5.91908 42.7114 5.625C43.2223 5.33217 43.5379 4.78934 43.5369 4.20241C43.5688 3.75858 43.4052 3.32177 43.0881 3.00763C42.7718 2.69226 42.3321 2.52974 41.8855 2.56168C41.8295 2.55772 41.774 2.55659 41.7185 2.55857ZM81.1999 3.24551C76.9858 3.24551 74.84 5.31571 74.84 8.11319C74.84 11.0671 76.6638 12.4622 80.7309 13.4477C84.1713 14.2686 85.1627 15.1138 85.1627 16.7025C85.1627 18.2912 84.1332 19.3578 81.4089 19.3578C79.0161 19.3578 76.429 18.7292 74.7497 17.8532V20.3684C76.1538 21.0801 77.7774 21.7636 81.2746 21.7636C85.763 21.7636 87.6344 19.6557 87.6529 16.5381C87.6529 13.2988 85.5044 12.0802 81.6786 11.122C78.488 10.3301 77.3301 9.58977 77.3301 8.11319C77.3301 6.47223 78.7349 5.6513 81.1022 5.6513C83.0678 5.60377 85.011 6.07549 86.7332 7.01935V4.55671C85.4944 3.8673 83.8153 3.24551 81.1999 3.24551ZM34.8943 3.52167L34.9004 16.1831C34.9004 17.977 34.1772 19.2205 32.0854 19.2205C31.2096 19.2272 30.3416 19.0688 29.5264 18.7544V21.1474C30.4826 21.4715 31.4879 21.629 32.4979 21.6147C35.9142 21.6147 37.3719 19.3295 37.3719 16.0187V3.52167H34.8943ZM115.866 4.91139V7.82387H113.635V10.0007H115.875V17.2188C115.875 19.7648 117.308 21.487 120.254 21.487C120.794 21.49 121.331 21.4163 121.85 21.2693V19C121.362 19.1131 120.864 19.178 120.364 19.1926C118.906 19.1926 118.189 18.3724 118.177 17.1686V9.98794H121.837V7.81226H118.177V4.91139H115.866ZM177.345 7.52913C173.16 7.52913 170.849 10.4819 170.849 14.6139C170.849 18.8104 173.104 21.7636 178.253 21.7636C179.657 21.7636 181.394 21.5519 182.522 20.9467V18.7699C181.181 19.258 179.765 19.5088 178.338 19.5098C175.09 19.5098 173.576 18.0051 173.245 15.6795H183.289V14.6139C183.289 10.4569 181.585 7.52913 177.345 7.52913ZM60.5193 7.53884C56.6654 7.53884 54.7389 10.7935 54.7389 14.6507C54.7389 18.6732 56.5845 21.7636 60.2441 21.7636C62.3624 21.7636 64.0137 20.8346 64.8963 19.0283L64.899 21.4902H67.2673V7.8123H64.899V10.2181C64.0701 8.43975 62.5277 7.53884 60.5193 7.53884ZM96.2776 7.53884C92.1482 7.53884 89.7269 10.52 89.7269 14.6228C89.7269 18.7265 92.1763 21.7733 96.2776 21.7733C100.379 21.7733 102.774 18.7265 102.774 14.6228C102.774 10.52 100.406 7.53884 96.2776 7.53884ZM152.405 7.53884C148.551 7.53884 146.625 10.7935 146.625 14.6507C146.625 18.6732 148.47 21.7636 152.13 21.7636C154.248 21.7636 155.899 20.8346 156.782 19.0283L156.784 21.4902H159.153V7.8123H156.784V10.2181C155.955 8.43975 154.413 7.53884 152.405 7.53884ZM53.3156 7.60344C50.9479 7.60027 49.678 8.705 48.9301 10.2181V7.8123H46.6182V21.4994H48.9301V13.4168C48.9301 10.5198 50.7757 9.60599 53.8036 9.91641V7.6189C53.6358 7.6086 53.4734 7.60363 53.3156 7.60344ZM169.425 7.60344C167.057 7.60027 165.788 8.705 165.04 10.2181V7.8123H162.727V21.4994H165.04V13.4168C165.04 10.5198 166.885 9.60599 169.913 9.91641V7.6189C169.746 7.6086 169.583 7.60363 169.425 7.60344ZM122.512 7.8123L127.577 21.4902H130.605L133.004 14.8723L134.256 10.659L135.507 14.8723L137.875 21.4902H140.903L145.968 7.8123H143.352L139.385 19.41L135.366 7.8123H133.107L129.091 19.41L125.128 7.8123H122.512ZM40.6751 7.81547V21.4929H43.0422V7.81547H40.6751ZM177.229 9.68635C179.594 9.68635 180.752 11.1377 180.89 13.6807H173.217V13.6656C173.464 11.2937 174.731 9.67397 177.229 9.68635ZM61.142 9.71459C63.1631 9.71459 64.8963 11.0547 64.8963 14.0918V15.198C64.8963 18.2339 62.9987 19.5743 60.8797 19.5756C58.4267 19.5756 57.107 17.9335 57.0943 14.638C57.0943 11.4645 58.4703 9.71459 61.142 9.71459ZM153.028 9.71459C155.049 9.71459 156.782 11.0547 156.782 14.0918V15.198C156.782 18.2335 154.884 19.574 152.765 19.5756C150.312 19.5756 148.983 17.9336 148.983 14.6507C148.983 11.4772 150.369 9.73958 153.028 9.71459ZM96.2776 9.73934C99.1956 9.73934 100.462 12.0247 100.462 14.6229C100.462 17.2221 99.2208 19.5756 96.2776 19.5756C93.3343 19.5756 92.0388 17.2221 92.0388 14.6229H92.0505C92.0505 12.0247 93.3585 9.73934 96.2776 9.73934Z" fill="#253858"/>
<path d="M23.3576 11.8407L13.1594 1.70588L12.171 0.724365L0.985184 11.8407C0.619522 12.2051 0.619522 12.795 0.985184 13.1586L7.99877 20.1284L12.171 24.2757L23.3576 13.1586C23.7235 12.795 23.7235 12.2051 23.3576 11.8407ZM12.171 15.9811L8.66808 12.5002L12.171 9.01801L15.6747 12.5002L12.171 15.9811Z" fill="#2684FF"/>
<path d="M12.1711 9.01788C9.87775 6.73778 9.86603 3.04495 12.1467 0.751465L4.47949 8.36809L8.65273 12.5154L12.1711 9.01788Z" fill="url(#paint0_linear_282_5715)"/>
<path d="M15.6843 12.4902L12.1709 15.9811C13.2781 17.0804 13.9008 18.5726 13.9008 20.1284C13.9008 21.6842 13.2781 23.1754 12.1709 24.2757L19.8565 16.6376L15.6843 12.4902Z" fill="url(#paint1_linear_282_5715)"/>
</g>
<defs>
<linearGradient id="paint0_linear_282_5715" x1="10.6654" y1="6.37112" x2="6.67844" y2="10.382" gradientUnits="userSpaceOnUse">
<stop stop-color="#0052CC"/>
<stop offset="1" stop-color="#2684FF"/>
</linearGradient>
<linearGradient id="paint1_linear_282_5715" x1="13.72" y1="18.59" x2="17.6989" y2="14.5862" gradientUnits="userSpaceOnUse">
<stop stop-color="#0052CC"/>
<stop offset="1" stop-color="#2684FF"/>
</linearGradient>
<clipPath id="clip0_282_5715">
<rect width="184" height="25" fill="white"/>
</clipPath>
</defs>
</svg>
