<svg width="60" height="60" viewBox="0 0 60 60" fill="none" xmlns="http://www.w3.org/2000/svg">
<rect x="0.5" y="0.5" width="59" height="59" rx="9.5" fill="white" stroke="#DFEDFF"/>
<path d="M30.0002 6C16.747 6 6 17.0169 6 30.6076C6 41.4799 12.8768 50.7039 22.4128 53.9577C23.6123 54.1855 24.0526 53.4239 24.0526 52.7739C24.0526 52.1872 24.0304 50.2487 24.02 48.1925C17.3431 49.6811 15.9342 45.2891 15.9342 45.2891C14.8425 42.4448 13.2695 41.6885 13.2695 41.6885C11.0919 40.1613 13.4336 40.1926 13.4336 40.1926C15.8436 40.3662 17.1126 42.7285 17.1126 42.7285C19.2532 46.4904 22.7272 45.4028 24.0967 44.7741C24.3121 43.1836 24.9341 42.0981 25.6205 41.4836C20.2897 40.8613 14.6859 38.7513 14.6859 29.3224C14.6859 26.6358 15.6234 24.4406 17.1587 22.7174C16.9095 22.0976 16.088 19.5947 17.3912 16.2052C17.3912 16.2052 19.4066 15.5439 23.993 18.7276C25.9074 18.1824 27.9606 17.9089 30.0002 17.8996C32.0398 17.9089 34.0946 18.1824 36.0126 18.7276C40.5934 15.5439 42.606 16.2052 42.606 16.2052C43.9123 19.5947 43.0905 22.0976 42.8413 22.7174C44.3801 24.4406 45.3113 26.6358 45.3113 29.3224C45.3113 38.7738 39.6968 40.8548 34.3525 41.464C35.2133 42.2276 35.9804 43.7252 35.9804 46.021C35.9804 49.3135 35.9526 51.9634 35.9526 52.7739C35.9526 53.4288 36.3846 54.1961 37.6011 53.9544C47.132 50.697 54 41.4762 54 30.6076C54 17.0169 43.2546 6 30.0002 6Z" fill="#161514"/>
<path d="M15.1611 41.1622C15.1083 41.2832 14.9211 41.3195 14.7505 41.2364C14.5768 41.1569 14.4792 40.9919 14.5355 40.8705C14.5871 40.7458 14.7747 40.7111 14.9481 40.7946C15.1222 40.8741 15.2214 41.0407 15.1611 41.1622Z" fill="#161514"/>
<path d="M16.1314 42.2628C16.0172 42.3706 15.7938 42.3205 15.6423 42.1503C15.4856 41.9804 15.4562 41.7533 15.5721 41.6439C15.6899 41.5362 15.9065 41.5866 16.0636 41.7565C16.2203 41.9284 16.2508 42.1539 16.1314 42.2628Z" fill="#161514"/>
<path d="M17.0759 43.6661C16.9292 43.7698 16.6892 43.6726 16.5408 43.4559C16.394 43.2393 16.394 42.9794 16.544 42.8753C16.6927 42.7712 16.9292 42.8648 17.0795 43.0799C17.2259 43.3002 17.2259 43.56 17.0759 43.6661Z" fill="#161514"/>
<path d="M18.37 45.0218C18.2386 45.1691 17.959 45.1295 17.7543 44.9286C17.5448 44.7321 17.4865 44.4533 17.6182 44.306C17.7511 44.1584 18.0324 44.1999 18.2386 44.3992C18.4465 44.5953 18.51 44.8761 18.37 45.0218Z" fill="#161514"/>
<path d="M20.1551 45.809C20.0972 45.9998 19.8278 46.0866 19.5565 46.0055C19.2855 45.9219 19.1082 45.6984 19.1629 45.5056C19.2193 45.3135 19.4898 45.2231 19.7631 45.3099C20.0337 45.393 20.2114 45.6149 20.1551 45.809Z" fill="#161514"/>
<path d="M22.1155 45.955C22.1223 46.156 21.8922 46.3226 21.6074 46.3262C21.321 46.3327 21.0893 46.1701 21.0861 45.9724C21.0861 45.7694 21.311 45.6044 21.5975 45.5996C21.8823 45.5939 22.1155 45.7553 22.1155 45.955Z" fill="#161514"/>
<path d="M23.9399 45.6391C23.9741 45.8352 23.7761 46.0365 23.4933 46.0902C23.2152 46.1418 22.9577 46.0208 22.9224 45.8263C22.8879 45.6254 23.0894 45.4241 23.3671 45.372C23.6503 45.322 23.9038 45.4398 23.9399 45.6391Z" fill="#161514"/>
</svg>
