<svg width="70" height="70" viewBox="0 0 70 70" fill="none" xmlns="http://www.w3.org/2000/svg">
<rect width="70" height="70" rx="10" fill="white"/>
<g clip-path="url(#clip0_3299_3289)">
<path d="M53.9157 25.2935H16.0827C14.6283 25.2935 13.4492 26.4725 13.4492 27.927V45.1499H56.5492V27.927C56.5492 26.4726 55.3701 25.2935 53.9157 25.2935Z" fill="#FF9A00"/>
<path d="M20.11 10C18.2543 10 16.75 11.5043 16.75 13.36V56.64C16.75 58.4957 18.2543 60 20.11 60H49.8889C51.7445 60 53.2488 58.4957 53.2488 56.64V20.3607C53.2488 19.6856 52.9807 19.0383 52.5033 18.5608L44.6879 10.7454C44.2105 10.2682 43.5631 10 42.888 10H20.11Z" fill="#F5F5F5"/>
<path d="M52.5024 18.5608L47.322 13.3804L47.3035 22.0703C47.3023 22.6158 47.7442 23.0587 48.2897 23.0587C48.8345 23.0587 49.276 23.5003 49.276 24.0449V56.64C49.276 58.4957 47.7717 60 45.916 60H49.8879C51.7436 60 53.2479 58.4957 53.2479 56.64V23.7676V20.3606C53.248 19.6855 52.9799 19.0382 52.5024 18.5608Z" fill="#EAEAEA"/>
<path d="M52.5023 18.5611L44.6869 10.7457C44.4693 10.5281 44.2161 10.3546 43.9414 10.2295V15.9467C43.9414 17.8023 45.4457 19.3066 47.3014 19.3066H53.0186C52.8936 19.0318 52.72 18.7787 52.5023 18.5611Z" fill="#A8D0D5"/>
<path d="M28.5494 34.9516L27.8549 33.3797C27.4334 32.4259 26.4889 31.8105 25.4461 31.8105H16.0827C14.6283 31.8105 13.4492 32.9896 13.4492 34.444V57.3663C13.4492 58.8207 14.6282 59.9998 16.0827 59.9998H53.9157C55.3701 59.9998 56.5492 58.8208 56.5492 57.3663V39.1543C56.5492 37.6999 55.3702 36.5208 53.9157 36.5208H30.9583C29.9154 36.5208 28.9709 35.9055 28.5494 34.9516Z" fill="#FFB541"/>
<path d="M23.8481 33.3797L24.5427 34.9516C24.9642 35.9054 25.9087 36.5207 26.9515 36.5207H30.9583C29.9155 36.5206 28.9711 35.9054 28.5496 34.9516L27.8551 33.3797C27.4336 32.4259 26.4891 31.8105 25.4463 31.8105H21.4395C22.4822 31.8106 23.4267 32.4259 23.8481 33.3797Z" fill="#FFA812"/>
<path d="M53.9152 36.521H49.9085C51.3628 36.5211 52.5417 37.7001 52.5417 39.1545V57.3666C52.5417 58.821 51.3627 60.0001 49.9082 60.0001H53.9151C55.3695 60.0001 56.5486 58.8211 56.5486 57.3666V39.1544C56.5487 37.7 55.3697 36.521 53.9152 36.521Z" fill="#FFA812"/>
<path d="M28.8821 15.5309H21.4188C21.002 15.5309 20.6641 15.193 20.6641 14.7762C20.6641 14.3594 21.002 14.0215 21.4188 14.0215H28.8821C29.2989 14.0215 29.6368 14.3594 29.6368 14.7762C29.6368 15.193 29.299 15.5309 28.8821 15.5309Z" fill="#3693BD"/>
<path d="M28.8821 20.0694H21.4188C21.002 20.0694 20.6641 19.7315 20.6641 19.3147C20.6641 18.8979 21.002 18.5601 21.4188 18.5601H28.8821C29.2989 18.5601 29.6368 18.8979 29.6368 19.3147C29.6368 19.7315 29.299 20.0694 28.8821 20.0694Z" fill="#3693BD"/>
</g>
<defs>
<clipPath id="clip0_3299_3289">
<rect width="50" height="50" fill="white" transform="translate(10 10)"/>
</clipPath>
</defs>
</svg>
