<svg width="37" height="40" viewBox="0 0 37 40" fill="none" xmlns="http://www.w3.org/2000/svg">
<path d="M34.7971 28.7612C34.1522 27.7859 33.7251 26.6831 33.5449 25.5278C33.2253 23.3745 32.1374 21.4095 30.482 19.9958C32.1351 18.5839 33.2228 16.6225 33.5449 14.4726C33.7261 13.3176 34.1531 12.2149 34.7971 11.2392C34.9151 11.0572 34.9804 10.8462 34.9859 10.6294C34.9914 10.4126 34.9368 10.1985 34.8282 10.0108C34.7196 9.8231 34.5612 9.66909 34.3705 9.5658C34.1798 9.46251 33.9643 9.41397 33.7477 9.42555C32.5756 9.49336 31.4026 9.30789 30.3086 8.88175C28.2822 8.08879 26.0383 8.05019 23.9859 8.77299C23.5915 6.6317 22.4357 4.7054 20.7319 3.34973C19.8163 2.61591 19.0694 1.69359 18.542 0.645445C18.4439 0.451327 18.2939 0.288226 18.1086 0.174277C17.9234 0.0603287 17.7102 0 17.4927 0C17.2752 0 17.0619 0.0603287 16.8767 0.174277C16.6914 0.288226 16.5414 0.451327 16.4433 0.645445C15.9168 1.6942 15.1698 2.6167 14.2534 3.34973C12.5526 4.70301 11.3972 6.62449 10.9994 8.76123C8.94797 8.03838 6.70502 8.07698 4.67965 8.86999C3.58557 9.29595 2.41262 9.48142 1.2405 9.41379C1.02396 9.40221 0.808425 9.45076 0.617745 9.55404C0.427065 9.65733 0.268665 9.81134 0.16006 9.99904C0.0514544 10.1867 -0.00312468 10.4008 0.00235768 10.6176C0.00784004 10.8344 0.0731702 11.0454 0.191124 11.2274C0.833165 12.2039 1.2591 13.3063 1.44039 14.4608C1.7598 16.6157 2.84891 18.5819 4.50622 19.9958C2.85137 21.4054 1.7624 23.3662 1.44039 25.516C1.25998 26.6708 0.833978 27.7734 0.191124 28.7494C0.0723474 28.9314 0.00634087 29.1428 0.000434397 29.36C-0.00547207 29.5773 0.0489527 29.7919 0.157665 29.9801C0.266377 30.1683 0.425123 30.3227 0.616273 30.4261C0.807424 30.5295 1.0235 30.5779 1.2405 30.566C2.41719 30.4994 3.59437 30.6879 4.6914 31.1186C6.71626 31.9142 8.96016 31.9528 11.0112 31.2274C11.4081 33.3653 12.5636 35.288 14.2652 36.6418C15.1822 37.3742 15.9293 38.2968 16.455 39.3461C16.5531 39.5402 16.7032 39.7033 16.8884 39.8172C17.0737 39.9312 17.2869 39.9915 17.5044 39.9915C17.7219 39.9915 17.9351 39.9312 18.1204 39.8172C18.3057 39.7033 18.4557 39.5402 18.5538 39.3461C19.0812 38.2971 19.828 37.3738 20.7437 36.6389C22.4456 35.2866 23.6013 33.3647 23.9976 31.2274C26.0497 31.9528 28.2945 31.9142 30.3204 31.1186C31.4146 30.6934 32.5876 30.5089 33.7595 30.5777C33.9765 30.5897 34.1926 30.5413 34.3837 30.4379C34.5749 30.3344 34.7336 30.1801 34.8423 29.9919C34.951 29.8037 35.0055 29.589 34.9996 29.3718C34.9937 29.1545 34.9277 28.9432 34.8089 28.7612H34.7971ZM26.7078 19.9958C26.7101 21.8188 26.1716 23.6017 25.1605 25.1186C24.1493 26.6356 22.7109 27.8185 21.0273 28.5178C19.3436 29.2171 17.4904 29.4013 15.7021 29.047C13.9138 28.6928 12.2707 27.8161 10.9807 26.5278C9.6908 25.2395 8.81197 23.5975 8.45545 21.8096C8.09893 20.0218 8.28073 18.1683 8.97786 16.4838C9.67498 14.7992 10.8561 13.3593 12.3718 12.3462C13.8875 11.3331 15.6696 10.7924 17.4927 10.7924C19.9344 10.7932 22.2761 11.7627 24.0037 13.4881C25.7314 15.2136 26.7039 17.554 26.7078 19.9958Z" fill="url(#paint0_linear_3404_3454)" fill-opacity="0.96"/>
<g filter="url(#filter0_d_3404_3454)">
<path d="M17.4923 30.6193C23.3674 30.6193 28.1301 25.8632 28.1301 19.9962C28.1301 14.1292 23.3674 9.37305 17.4923 9.37305C11.6172 9.37305 6.85449 14.1292 6.85449 19.9962C6.85449 25.8632 11.6172 30.6193 17.4923 30.6193Z" fill="#F4DFD7"/>
</g>
<path d="M17.4918 28.7023C22.3052 28.7023 26.2072 24.8042 26.2072 19.9957C26.2072 15.1871 22.3052 11.2891 17.4918 11.2891C12.6784 11.2891 8.77637 15.1871 8.77637 19.9957C8.77637 24.8042 12.6784 28.7023 17.4918 28.7023Z" fill="white"/>
<g style="mix-blend-mode:multiply" opacity="0.3">
<path d="M13.248 20.3286C13.182 20.1127 13.0484 19.9236 12.8669 19.7892C12.6854 19.6548 12.4656 19.5822 12.2398 19.582H12.1957C12.0858 19.582 11.9804 19.6257 11.9026 19.7034C11.8249 19.7812 11.7812 19.8866 11.7812 19.9965C11.782 20.1059 11.826 20.2106 11.9037 20.2877C11.9813 20.3648 12.0863 20.408 12.1957 20.408H12.2398C12.2698 20.408 12.2994 20.414 12.3271 20.4255C12.3548 20.4371 12.3798 20.454 12.4009 20.4753C12.422 20.4967 12.4386 20.522 12.4498 20.5498C12.461 20.5776 12.4665 20.6073 12.4661 20.6373V20.7372C12.7639 20.6885 13.038 20.5453 13.248 20.3286Z" fill="#FC7200"/>
</g>
<g style="mix-blend-mode:multiply" opacity="0.3">
<path d="M22.7896 20.408C22.8443 20.4088 22.8986 20.3988 22.9493 20.3785C23.0001 20.3582 23.0464 20.328 23.0854 20.2898C23.1245 20.2515 23.1556 20.2059 23.177 20.1556C23.1984 20.1053 23.2096 20.0512 23.21 19.9965C23.21 19.8866 23.1663 19.7812 23.0886 19.7034C23.0108 19.6257 22.9054 19.5821 22.7955 19.5821H22.7543C22.5274 19.5805 22.306 19.6524 22.1233 19.7869C21.9405 19.9215 21.8062 20.1115 21.7402 20.3287C21.9491 20.5452 22.2223 20.6885 22.5192 20.7373V20.6373C22.5192 20.6072 22.5251 20.5774 22.5366 20.5496C22.5482 20.5218 22.565 20.4965 22.5863 20.4752C22.6076 20.4539 22.6329 20.437 22.6607 20.4255C22.6885 20.414 22.7184 20.408 22.7485 20.408H22.7896Z" fill="#FC7200"/>
</g>
<path d="M14.4795 23.1733C14.4791 23.1191 14.4895 23.0654 14.51 23.0153C14.5306 22.9652 14.5609 22.9197 14.5992 22.8814C14.6375 22.8431 14.683 22.8128 14.7331 22.7923C14.7832 22.7717 14.8369 22.7613 14.891 22.7617H15.6641C15.7284 22.7617 15.7918 22.7766 15.8495 22.8051C15.9071 22.8337 15.9573 22.8752 15.9963 22.9263L17.1926 24.3343C17.2312 24.3801 17.2794 24.4169 17.3337 24.4422C17.388 24.4674 17.4472 24.4805 17.5071 24.4805C17.567 24.4805 17.6262 24.4674 17.6805 24.4422C17.7349 24.4169 17.783 24.3801 17.8216 24.3343L19.0386 22.9058C19.077 22.8597 19.1251 22.8226 19.1794 22.7972C19.2338 22.7718 19.2931 22.7587 19.3531 22.7588H20.0938C20.1481 22.7584 20.2019 22.7688 20.2522 22.7893C20.3025 22.8098 20.3482 22.84 20.3867 22.8783C20.4252 22.9165 20.4558 22.962 20.4767 23.0122C20.4975 23.0623 20.5083 23.116 20.5083 23.1703C20.5075 23.2797 20.4635 23.3844 20.3859 23.4615C20.3082 23.5386 20.2032 23.5818 20.0938 23.5818H19.7323C19.6723 23.5819 19.6131 23.5952 19.5588 23.6205C19.5044 23.6459 19.4563 23.6829 19.4178 23.7288L17.8275 25.4396C17.8122 25.4594 17.7944 25.4772 17.7746 25.4925C17.7331 25.5283 17.6848 25.5555 17.6327 25.5726C17.5805 25.5896 17.5255 25.5962 17.4708 25.5918C17.4162 25.5874 17.3629 25.5722 17.3141 25.5471C17.2653 25.522 17.222 25.4874 17.1867 25.4454L15.5935 23.7288C15.555 23.6829 15.5069 23.6459 15.4525 23.6205C15.3982 23.5952 15.339 23.5819 15.279 23.5818H14.891C14.7819 23.5818 14.6772 23.5385 14.6 23.4613C14.5229 23.3841 14.4795 23.2795 14.4795 23.1703V23.1733Z" fill="url(#paint1_linear_3404_3454)"/>
<path d="M19.9911 19.4434C20.1004 19.4434 20.2072 19.4758 20.2981 19.5365C20.389 19.5972 20.4598 19.6835 20.5016 19.7845C20.5434 19.8855 20.5544 19.9966 20.5331 20.1038C20.5117 20.211 20.4591 20.3094 20.3818 20.3867C20.3045 20.464 20.2061 20.5166 20.0989 20.538C19.9917 20.5593 19.8806 20.5483 19.7796 20.5065C19.6786 20.4647 19.5923 20.3939 19.5316 20.303C19.4709 20.2121 19.4384 20.1053 19.4384 19.996C19.4384 19.8494 19.4967 19.7089 19.6003 19.6052C19.7039 19.5016 19.8445 19.4434 19.9911 19.4434ZM17.4925 19.4434C17.6018 19.4434 17.7087 19.4758 17.7996 19.5365C17.8904 19.5972 17.9613 19.6835 18.0031 19.7845C18.0449 19.8855 18.0559 19.9966 18.0345 20.1038C18.0132 20.211 17.9606 20.3094 17.8833 20.3867C17.806 20.464 17.7075 20.5166 17.6004 20.538C17.4932 20.5593 17.382 20.5483 17.2811 20.5065C17.1801 20.4647 17.0938 20.3939 17.0331 20.303C16.9723 20.2121 16.9399 20.1053 16.9399 19.996C16.9399 19.8494 16.9981 19.7089 17.1018 19.6052C17.2054 19.5016 17.346 19.4434 17.4925 19.4434ZM14.994 19.4434C15.1033 19.4434 15.2102 19.4758 15.301 19.5365C15.3919 19.5972 15.4627 19.6835 15.5046 19.7845C15.5464 19.8855 15.5573 19.9966 15.536 20.1038C15.5147 20.211 15.4621 20.3094 15.3848 20.3867C15.3075 20.464 15.209 20.5166 15.1018 20.538C14.9946 20.5593 14.8835 20.5483 14.7825 20.5065C14.6816 20.4647 14.5953 20.3939 14.5345 20.303C14.4738 20.2121 14.4414 20.1053 14.4414 19.996C14.4414 19.8494 14.4996 19.7089 14.6033 19.6052C14.7069 19.5016 14.8475 19.4434 14.994 19.4434Z" fill="url(#paint2_linear_3404_3454)"/>
<path d="M13.9241 16.4033H13.5097C13.2298 16.4033 12.9614 16.5145 12.7635 16.7124C12.5656 16.9103 12.4544 17.1787 12.4544 17.4586V19.378C12.4549 19.4075 12.4493 19.4367 12.4379 19.4639C12.4266 19.491 12.4098 19.5156 12.3886 19.536C12.3673 19.5564 12.3421 19.5722 12.3145 19.5825C12.2869 19.5927 12.2575 19.5972 12.2281 19.5955H12.184C12.0741 19.5955 11.9687 19.6392 11.8909 19.7169C11.8132 19.7947 11.7695 19.9001 11.7695 20.01C11.7703 20.1194 11.8143 20.2241 11.892 20.3012C11.9696 20.3783 12.0746 20.4215 12.184 20.4215H12.2281C12.2571 20.4195 12.2862 20.4235 12.3136 20.4332C12.341 20.4429 12.3661 20.4582 12.3873 20.4781C12.4086 20.4979 12.4255 20.5219 12.437 20.5486C12.4486 20.5753 12.4545 20.6041 12.4544 20.6332V22.3968C12.4544 23.1346 12.9277 23.6049 13.5097 23.6049H13.8771C13.9739 23.6068 14.0685 23.5755 14.145 23.5161C14.2215 23.4567 14.2753 23.3729 14.2974 23.2787C14.3096 23.2184 14.3082 23.1562 14.2935 23.0964C14.2788 23.0367 14.2511 22.981 14.2123 22.9333C14.1736 22.8855 14.1247 22.8469 14.0693 22.8203C14.0139 22.7936 13.9533 22.7795 13.8918 22.779H13.5097C13.4798 22.7794 13.4502 22.7738 13.4226 22.7625C13.395 22.7513 13.3698 22.7346 13.3488 22.7135C13.3277 22.6925 13.311 22.6673 13.2998 22.6397C13.2885 22.6121 13.2829 22.5825 13.2833 22.5526V20.6361C13.2836 20.4039 13.206 20.1782 13.0629 19.9953C13.2056 19.8122 13.2832 19.5867 13.2833 19.3545V17.4586C13.283 17.4286 13.2885 17.3989 13.2997 17.3711C13.3109 17.3433 13.3275 17.318 13.3486 17.2966C13.3696 17.2753 13.3947 17.2584 13.4224 17.2468C13.45 17.2352 13.4797 17.2293 13.5097 17.2293H13.9124C14.0304 17.2293 14.1436 17.1826 14.2273 17.0995C14.311 17.0163 14.3584 16.9034 14.3592 16.7854C14.3592 16.6841 14.3189 16.5869 14.2473 16.5152C14.1756 16.4436 14.0784 16.4033 13.977 16.4033H13.9241Z" fill="url(#paint3_linear_3404_3454)" fill-opacity="0.96"/>
<path d="M20.0058 16.4039L21.0552 15.3575C21.0908 15.322 21.119 15.2798 21.1382 15.2334C21.1574 15.187 21.1673 15.1373 21.1673 15.0871C21.1673 15.0368 21.1574 14.9871 21.1382 14.9407C21.119 14.8943 21.0908 14.8521 21.0552 14.8166L21.017 14.7814C20.9437 14.7081 20.8443 14.667 20.7407 14.667C20.6371 14.667 20.5377 14.7081 20.4644 14.7814L18.8359 16.4039H16.1552L14.5385 14.7902C14.4624 14.7143 14.3593 14.6716 14.2519 14.6716C14.1444 14.6716 14.0413 14.7143 13.9653 14.7902L13.9447 14.8108C13.8713 14.8846 13.8301 14.9844 13.8301 15.0885C13.8301 15.1926 13.8713 15.2925 13.9447 15.3663L14.9794 16.4039L15.7613 17.2299H19.2239L20.0058 16.4039Z" fill="url(#paint4_linear_3404_3454)" fill-opacity="0.96"/>
<path d="M23.2099 19.9963C23.2312 19.9495 23.2399 19.8979 23.235 19.8467C23.2301 19.7955 23.2119 19.7465 23.1821 19.7045C23.1524 19.6626 23.1122 19.6292 23.0655 19.6076C23.0188 19.5861 22.9672 19.5772 22.916 19.5818H22.7573C22.7278 19.5843 22.6981 19.5805 22.6702 19.5708C22.6422 19.5611 22.6166 19.5457 22.595 19.5254C22.5734 19.5052 22.5563 19.4807 22.5447 19.4534C22.5332 19.4262 22.5275 19.3968 22.528 19.3672V17.6153C22.528 16.8805 22.0577 16.4072 21.4727 16.4072H20.9672C20.8603 16.4102 20.7587 16.4544 20.6837 16.5306C20.6086 16.6067 20.5659 16.7089 20.5645 16.8158V16.8334C20.5652 16.939 20.6077 17.0399 20.6826 17.1142C20.7575 17.1886 20.8587 17.2303 20.9642 17.2303H21.4757C21.5365 17.2303 21.5948 17.2544 21.6378 17.2974C21.6808 17.3404 21.705 17.3987 21.705 17.4595V19.3555C21.7056 19.5871 21.782 19.8121 21.9225 19.9963C21.7814 20.1801 21.7049 20.4054 21.705 20.6371V22.533C21.705 22.563 21.699 22.5927 21.6874 22.6203C21.6759 22.648 21.659 22.6731 21.6376 22.6941C21.6163 22.7152 21.591 22.7318 21.5632 22.743C21.5354 22.7542 21.5056 22.7597 21.4757 22.7594H21.0994C21.0021 22.757 20.9069 22.7886 20.8303 22.8487C20.7536 22.9087 20.7002 22.9935 20.6791 23.0886C20.6664 23.1485 20.6673 23.2106 20.6816 23.2701C20.6959 23.3297 20.7234 23.3854 20.762 23.433C20.8006 23.4806 20.8493 23.519 20.9047 23.5453C20.96 23.5717 21.0205 23.5853 21.0818 23.5853H21.4639C21.6024 23.5857 21.7395 23.5588 21.8675 23.5061C21.9955 23.4534 22.1119 23.3759 22.2099 23.2782C22.308 23.1804 22.3857 23.0643 22.4388 22.9364C22.4919 22.8085 22.5192 22.6715 22.5192 22.533V20.6253C22.5191 20.5957 22.5251 20.5665 22.5368 20.5393C22.5484 20.5121 22.5655 20.4876 22.587 20.4672C22.6084 20.4468 22.6338 20.4311 22.6616 20.4209C22.6894 20.4106 22.7189 20.4062 22.7485 20.4078H22.8543C22.9067 20.4106 22.9591 20.4014 23.0074 20.3809C23.0557 20.3603 23.0987 20.329 23.133 20.2893C23.1674 20.2495 23.1922 20.2025 23.2055 20.1517C23.2188 20.1009 23.2203 20.0477 23.2099 19.9963Z" fill="url(#paint5_linear_3404_3454)" fill-opacity="0.96"/>
<defs>
<filter id="filter0_d_3404_3454" x="6.85449" y="9.37305" width="29.2754" height="29.2461" filterUnits="userSpaceOnUse" color-interpolation-filters="sRGB">
<feFlood flood-opacity="0" result="BackgroundImageFix"/>
<feColorMatrix in="SourceAlpha" type="matrix" values="0 0 0 0 0 0 0 0 0 0 0 0 0 0 0 0 0 0 127 0" result="hardAlpha"/>
<feOffset dx="4" dy="4"/>
<feGaussianBlur stdDeviation="2"/>
<feComposite in2="hardAlpha" operator="out"/>
<feColorMatrix type="matrix" values="0 0 0 0 0 0 0 0 0 0 0 0 0 0 0 0 0 0 0.1 0"/>
<feBlend mode="normal" in2="BackgroundImageFix" result="effect1_dropShadow_3404_3454"/>
<feBlend mode="normal" in="SourceGraphic" in2="effect1_dropShadow_3404_3454" result="shape"/>
</filter>
<linearGradient id="paint0_linear_3404_3454" x1="0.934802" y1="3.28506" x2="29.9706" y2="32.5883" gradientUnits="userSpaceOnUse">
<stop stop-color="#A73AD4"/>
<stop offset="1" stop-color="#6A32C4"/>
</linearGradient>
<linearGradient id="paint1_linear_3404_3454" x1="14.4795" y1="24.1785" x2="20.5083" y2="24.1785" gradientUnits="userSpaceOnUse">
<stop stop-color="#FC7200"/>
<stop offset="1" stop-color="#FFCD0D"/>
</linearGradient>
<linearGradient id="paint2_linear_3404_3454" x1="14.4414" y1="19.996" x2="20.5437" y2="19.996" gradientUnits="userSpaceOnUse">
<stop stop-color="#FC7200"/>
<stop offset="1" stop-color="#FFCD0D"/>
</linearGradient>
<linearGradient id="paint3_linear_3404_3454" x1="11.7813" y1="19.9953" x2="14.3709" y2="19.9953" gradientUnits="userSpaceOnUse">
<stop stop-color="#A73AD4"/>
<stop offset="1" stop-color="#6A32C4"/>
</linearGradient>
<linearGradient id="paint4_linear_3404_3454" x1="13.8242" y1="15.9483" x2="21.1669" y2="15.9483" gradientUnits="userSpaceOnUse">
<stop stop-color="#A73AD4"/>
<stop offset="1" stop-color="#6A32C4"/>
</linearGradient>
<linearGradient id="paint5_linear_3404_3454" x1="20.5527" y1="19.9963" x2="23.2246" y2="19.9963" gradientUnits="userSpaceOnUse">
<stop stop-color="#A73AD4"/>
<stop offset="1" stop-color="#6A32C4"/>
</linearGradient>
</defs>
</svg>
