<svg width="96" height="25" viewBox="0 0 96 25" fill="none" xmlns="http://www.w3.org/2000/svg">
<path d="M35.2454 18.7642C33.6521 18.7642 32.3761 18.2391 31.4174 17.1891C30.4588 16.139 29.9795 14.7729 29.9795 13.0907C29.9795 11.2832 30.4679 9.84132 31.4449 8.76514C32.4218 7.68898 33.7513 7.15089 35.4335 7.15088C36.9851 7.15089 38.2349 7.6733 39.1831 8.71812C40.1313 9.76296 40.6054 11.1291 40.6054 12.8165C40.6054 14.6501 40.1196 16.0998 39.1479 17.1656C38.1762 18.2313 36.8754 18.7642 35.2454 18.7642ZM35.3395 8.34198C34.1588 8.34199 33.2002 8.76776 32.4636 9.61929C31.727 10.4708 31.3587 11.5888 31.3587 12.9732C31.3587 14.3576 31.7178 15.4716 32.4361 16.3153C33.1545 17.159 34.0909 17.5809 35.2454 17.5809C36.4783 17.5809 37.45 17.1786 38.1605 16.3741C38.871 15.5696 39.2262 14.4438 39.2262 12.9967C39.2262 11.5131 38.8814 10.3664 38.1919 9.5566C37.5023 8.74687 36.5515 8.34199 35.3395 8.34198Z" fill="#094AB2"/>
<path d="M49.3039 18.5761H48.0187V13.9998C48.0187 12.2967 47.397 11.4452 46.1537 11.4452C45.5111 11.4452 44.9796 11.6868 44.559 12.17C44.1385 12.6533 43.9282 13.2632 43.9282 13.9998V18.5761H42.6431V10.5518H43.9282V11.884H43.9595C44.5655 10.8705 45.4432 10.3638 46.5925 10.3638C47.4702 10.3638 48.1415 10.6472 48.6064 11.214C49.0714 11.7808 49.3038 12.5997 49.3039 13.6707V18.5761Z" fill="#094AB2"/>
<path d="M58.1818 14.8853H52.5162C52.5371 15.7786 52.7774 16.4682 53.2372 16.954C53.6969 17.4399 54.329 17.6828 55.1335 17.6828C56.0373 17.6828 56.868 17.385 57.6255 16.7895V17.9963C56.9202 18.5082 55.9877 18.7642 54.8279 18.7642C53.6943 18.7642 52.8036 18.3998 52.1558 17.671C51.508 16.9423 51.1841 15.917 51.1841 14.5953C51.1841 13.3468 51.538 12.3294 52.2459 11.5431C52.9538 10.7569 53.8327 10.3638 54.8828 10.3638C55.9328 10.3638 56.7452 10.7033 57.3198 11.3825C57.8945 12.0616 58.1818 13.0046 58.1818 14.2114V14.8853ZM56.8653 13.796C56.8601 13.0542 56.6812 12.4769 56.3286 12.0642C55.9759 11.6515 55.4862 11.4452 54.8593 11.4452C54.2533 11.4452 53.7387 11.662 53.3155 12.0956C52.8924 12.5292 52.6312 13.096 52.5319 13.796H56.8653Z" fill="#094AB2"/>
<path d="M60.3057 18.576V7.33887H63.4088C67.3687 7.33888 69.3487 9.16472 69.3487 12.8164C69.3487 14.5508 68.7988 15.9443 67.6991 16.997C66.5994 18.0497 65.1275 18.576 63.2834 18.576H60.3057ZM61.6222 8.52997V17.3849H63.2991C64.7723 17.3849 65.919 16.9905 66.7392 16.2016C67.5594 15.4128 67.9695 14.2948 67.9695 12.8477C67.9695 9.96923 66.4388 8.52998 63.3775 8.52997H61.6222Z" fill="#094AB2"/>
<path d="M75.5708 11.8525C75.3461 11.6801 75.0222 11.5939 74.5991 11.5939C74.0505 11.5939 73.5921 11.8525 73.2238 12.3697C72.8555 12.8869 72.6714 13.5922 72.6714 14.4855V18.576H71.3862V10.5517H72.6714V12.2051H72.7027C72.8856 11.6409 73.1651 11.2008 73.5412 10.8847C73.9173 10.5687 74.3379 10.4107 74.8028 10.4106C75.1372 10.4107 75.3932 10.4472 75.5708 10.5204L75.5708 11.8525Z" fill="#094AB2"/>
<path d="M77.6236 8.51433C77.3937 8.51434 77.1978 8.43598 77.0359 8.27924C76.8739 8.12253 76.793 7.92401 76.793 7.68369C76.793 7.44339 76.8739 7.24357 77.0359 7.08422C77.1978 6.92489 77.3937 6.84523 77.6236 6.84521C77.8587 6.84523 78.0585 6.92489 78.2231 7.08422C78.3876 7.24357 78.4699 7.44339 78.4699 7.68369C78.4699 7.91356 78.3876 8.10947 78.2231 8.27141C78.0585 8.43337 77.8587 8.51434 77.6236 8.51433ZM78.2505 18.576H76.9654V10.5517H78.2505V18.576Z" fill="#094AB2"/>
<path d="M87.1604 10.5518L83.9632 18.576H82.7016L79.6611 10.5518H81.0716L83.1091 16.3819C83.2606 16.8103 83.3546 17.1838 83.3912 17.5025H83.4225C83.4748 17.1002 83.5583 16.7372 83.6733 16.4133L85.8047 10.5518H87.1604Z" fill="#094AB2"/>
<path d="M94.9811 14.8853H89.3156C89.3365 15.7786 89.5768 16.4682 90.0365 16.954C90.4962 17.4399 91.1283 17.6828 91.9329 17.6828C92.8366 17.6828 93.6673 17.385 94.4248 16.7895V17.9963C93.7195 18.5082 92.787 18.7642 91.6272 18.7642C90.4936 18.7642 89.6029 18.3998 88.9551 17.671C88.3073 16.9423 87.9834 15.917 87.9834 14.5953C87.9834 13.3468 88.3373 12.3294 89.0452 11.5431C89.7531 10.7569 90.632 10.3638 91.6821 10.3638C92.7321 10.3638 93.5445 10.7033 94.1192 11.3825C94.6938 12.0616 94.9811 13.0046 94.9811 14.2114V14.8853ZM93.6647 13.796C93.6594 13.0542 93.4805 12.4769 93.1279 12.0642C92.7752 11.6515 92.2855 11.4452 91.6586 11.4452C91.0526 11.4452 90.538 11.662 90.1148 12.0956C89.6917 12.5292 89.4305 13.096 89.3312 13.796H93.6647Z" fill="#094AB2"/>
<path d="M9.15182 8.94325L9.15206 8.94239L14.1903 12.0829L17.1925 10.7682C17.8025 10.4937 18.4603 10.353 19.1249 10.3537C19.2357 10.3537 19.3451 10.3589 19.454 10.3664C19.0931 8.90179 18.3311 7.57777 17.2607 6.55528C16.1903 5.53278 14.8576 4.85583 13.4245 4.60669C11.9914 4.35755 10.5196 4.54695 9.18792 5.15186C7.85629 5.75678 6.72215 6.75117 5.92334 8.0142C5.949 8.01387 5.97428 8.01219 6 8.01219C7.11348 8.01062 8.2052 8.33312 9.15182 8.94325Z" fill="#0364B8"/>
<path d="M9.15202 8.94241L9.15179 8.94327C8.20516 8.33314 7.11345 8.01064 5.99997 8.01221C5.97424 8.01221 5.94893 8.01389 5.92329 8.01423C4.83348 8.02827 3.76794 8.35109 2.84118 8.948C1.91442 9.5449 1.16148 10.3933 0.663275 11.4021C0.165068 12.4109 -0.0595724 13.5419 0.0134948 14.6735C0.0865619 15.8052 0.454574 16.8947 1.07798 17.8251L5.52096 15.8794L7.49601 15.0145L11.8936 13.0887L14.1902 12.0829L9.15202 8.94241Z" fill="#0078D4"/>
<path d="M19.4547 10.3663C19.3458 10.3587 19.2363 10.3535 19.1256 10.3535C18.461 10.3528 17.8033 10.4941 17.1932 10.7686L14.1909 12.0828L15.0615 12.6254L17.9152 14.4042L19.1602 15.1803L23.4175 17.8341C23.8043 17.0867 24.0048 16.2504 24.0005 15.4016C23.9962 14.5527 23.7874 13.7186 23.3931 12.9755C22.9988 12.2325 22.4316 11.6042 21.7435 11.1484C21.0555 10.6925 20.2685 10.4236 19.4547 10.3663Z" fill="#1490DF"/>
<path d="M19.1597 15.1806L17.9146 14.4045L15.0609 12.6257L14.1904 12.083L11.8938 13.0887L7.49616 15.0145L5.5211 15.8795L1.07812 17.8252C1.63024 18.6512 2.36628 19.326 3.22338 19.7918C4.08047 20.2576 5.03317 20.5006 6.0001 20.5001H19.125C20.005 20.5003 20.8687 20.2527 21.6243 19.7833C22.38 19.314 22.9994 18.6405 23.4169 17.8343L19.1597 15.1806Z" fill="#28A8EA"/>
</svg>
