<svg width="70" height="70" viewBox="0 0 70 70" fill="none" xmlns="http://www.w3.org/2000/svg">
<rect width="70" height="70" rx="10" fill="#EBF9FD"/>
<g clip-path="url(#clip0_3289_2877)">
<path d="M31.0376 10.4742L28.209 17.5451H41.7908L38.9622 10.4742C38.8478 10.1877 38.5701 10 38.2619 10H31.738C31.4297 10 31.152 10.1877 31.0376 10.4742Z" fill="#809399"/>
<path d="M14.8561 20.4595L17.8559 27.4594L27.4594 17.8559L20.4595 14.8561C20.176 14.7344 19.8468 14.7977 19.6286 15.0159L15.0159 19.6286C14.7977 19.8468 14.7344 20.176 14.8561 20.4595Z" fill="#809399"/>
<path d="M10.4742 38.9622L17.5451 41.7908V28.209L10.4742 31.0376C10.1877 31.152 10 31.4297 10 31.738V38.2619C10 38.5701 10.1877 38.8478 10.4742 38.9622Z" fill="#809399"/>
<path d="M20.4595 55.1439L27.4594 52.144L17.8559 42.5405L14.8561 49.5405C14.7344 49.8239 14.7977 50.1531 15.0159 50.3713L19.6286 54.9841C19.8468 55.2023 20.176 55.2656 20.4595 55.1439Z" fill="#809399"/>
<path d="M38.9622 59.526L41.7908 52.4551H28.209L31.0376 59.526C31.152 59.8121 31.4297 60.0002 31.738 60.0002H38.2619C38.5701 60.0002 38.8478 59.8125 38.9622 59.526Z" fill="#809399"/>
<path d="M55.1444 49.5405L52.1445 42.5405L42.541 52.144L49.541 55.1439C49.8244 55.2656 50.1536 55.2023 50.3718 54.9841L54.9846 50.3713C55.2028 50.1531 55.2661 49.8239 55.1444 49.5405Z" fill="#809399"/>
<path d="M59.526 31.0376L52.4551 28.209V41.7908L59.526 38.9622C59.8121 38.8478 60.0002 38.5701 60.0002 38.2619V31.738C60.0002 31.4297 59.8125 31.152 59.526 31.0376Z" fill="#809399"/>
<path d="M49.541 14.8561L42.541 17.8559L52.1445 27.4594L55.1444 20.4595C55.2661 20.176 55.2028 19.8468 54.9846 19.6286L50.3718 15.0159C50.1536 14.7977 49.8244 14.7344 49.541 14.8561Z" fill="#809399"/>
<path d="M35 13.873C23.3503 13.873 13.873 23.3514 13.873 35C13.873 46.6497 23.3503 56.1269 35 56.1269C46.6497 56.1269 56.1269 46.6497 56.1269 35C56.1269 23.3514 46.6497 13.873 35 13.873Z" fill="#9CB5BB"/>
<path d="M34.9994 19.1548C26.2485 19.1548 19.1543 26.249 19.1543 34.9999C19.1543 43.7508 26.2485 50.845 34.9994 50.845C43.7503 50.845 50.8445 43.7508 50.8445 34.9999C50.8445 26.249 43.7503 19.1548 34.9994 19.1548Z" fill="#809399"/>
<path d="M47.8277 34.9998C47.8277 42.084 42.085 47.8267 35.0007 47.8267C27.9165 47.8267 22.1738 42.084 22.1738 34.9998C22.1738 27.9155 27.9165 22.1729 35.0007 22.1729C42.085 22.1729 47.8277 27.9155 47.8277 34.9998Z" fill="white"/>
<path d="M26.6081 30.1548C26.5429 30.2677 26.507 30.397 26.507 30.5321L26.5059 39.4691C26.5059 39.7388 26.6497 39.9883 26.8831 40.123L34.6235 44.5911C34.7403 44.6586 34.8703 44.6922 35.0004 44.6922L38.0186 30.1548H26.6081Z" fill="#FFC43B"/>
<path d="M43.3936 30.1538H35.9492L40.4765 41.6471L43.1174 40.1224C43.3509 39.9873 43.4947 39.7386 43.4947 39.4689V30.5311C43.4947 30.3964 43.4588 30.2667 43.3936 30.1538Z" fill="#FF852B"/>
<path d="M35 31.8379V44.6919C35.1305 44.6919 35.2609 44.6583 35.3777 44.5908L40.4768 41.647V31.8379H35Z" fill="#FFA433"/>
<path d="M34.9998 34.8832C35.1302 34.8832 35.2607 34.8496 35.3774 34.7821L43.3936 30.1537C43.3284 30.0408 43.2342 29.945 43.1174 29.8775L35.3778 25.4086C35.1443 25.274 34.8567 25.274 34.6232 25.4086L26.8836 29.8783C26.7669 29.9454 26.6727 30.0416 26.6074 30.1545L34.6232 34.7821C34.7396 34.8492 34.8697 34.8832 34.9998 34.8832Z" fill="#FFD87C"/>
</g>
<defs>
<clipPath id="clip0_3289_2877">
<rect width="50" height="50" fill="white" transform="translate(10 10)"/>
</clipPath>
</defs>
</svg>
