<svg width="70" height="70" viewBox="0 0 70 70" fill="none" xmlns="http://www.w3.org/2000/svg">
<rect width="70" height="70" rx="10" fill="#EFE5EF"/>
<g clip-path="url(#clip0_1040_6491)">
<path d="M51.9863 11.8943V52.7565C51.9863 52.7565 16.4612 59.9467 14.4903 59.999C14.4581 60 14.426 60 14.3937 60H14.3917C13.3917 59.999 12.4862 59.5945 11.8313 58.9396C11.1754 58.2837 10.77 57.3783 10.77 56.3783V11.8943C10.77 10.848 11.6181 10 12.6644 10H50.0919C51.1383 10 51.9863 10.848 51.9863 11.8943Z" fill="white"/>
<path d="M51.9863 51.7107V52.7565C51.9863 52.7565 16.4612 59.9466 14.4903 59.999C14.4581 59.9999 14.426 60 14.3937 60H14.3917C13.3917 59.999 12.4862 59.5945 11.8313 58.9396C11.1754 58.2836 10.77 57.3783 10.77 56.3783V51.7108L51.9863 51.7107Z" fill="#DEDBEE"/>
<path d="M55.0455 46.0416L53.7588 45.2981C53.8704 44.784 53.9308 44.2508 53.9308 43.7036C53.9308 43.1563 53.8705 42.6231 53.7588 42.109L55.0455 41.3656C55.6964 40.9893 55.9197 40.1574 55.5434 39.5054L54.6309 37.924C54.2547 37.272 53.4217 37.0498 52.7708 37.425L51.4831 38.1684C50.6974 37.4521 49.7577 36.9028 48.7205 36.5718V35.087C48.7205 34.3355 48.1108 33.7258 47.3594 33.7258H45.5324C44.7809 33.7258 44.1713 34.3355 44.1713 35.087V36.5718C43.1341 36.9028 42.1944 37.4521 41.4087 38.1684L40.122 37.425C39.47 37.0497 38.6381 37.272 38.2618 37.924L37.3483 39.5054C36.9721 40.1574 37.1954 40.9893 37.8463 41.3656L39.134 42.109C39.0223 42.6231 38.9619 43.1563 38.9619 43.7036C38.9619 44.2508 39.0223 44.784 39.134 45.2981L37.8463 46.0416C37.1954 46.4178 36.9721 47.2508 37.3483 47.9017L38.2618 49.4832C38.6381 50.1351 39.47 50.3574 40.122 49.9822L41.4087 49.2387C42.1944 49.955 43.1341 50.5043 44.1713 50.8353V52.3202C44.1713 53.0716 44.7809 53.6813 45.5324 53.6813H47.3594C48.1108 53.6813 48.7205 53.0716 48.7205 52.3202V50.8353C49.7577 50.5043 50.6974 49.955 51.4831 49.2387L52.7708 49.9822C53.4217 50.3575 54.2547 50.1351 54.6309 49.4832L55.5434 47.9017C55.9197 47.2507 55.6964 46.4177 55.0455 46.0416ZM46.4459 46.8655C44.7004 46.8655 43.2849 45.45 43.2849 43.7035C43.2849 41.957 44.7005 40.5425 46.4459 40.5425C48.1924 40.5425 49.6079 41.957 49.6079 43.7035C49.6078 45.45 48.1924 46.8655 46.4459 46.8655Z" fill="#7A6D79"/>
<path d="M57.335 52.7566C58.3814 52.7566 59.2296 53.6048 59.2296 54.6512V56.3783C59.2296 57.3783 58.8241 58.2837 58.1692 58.9396C57.5133 59.5946 56.6078 60 55.6078 60H14.3916C16.3916 60 18.0123 58.3783 18.0123 56.3783V54.6512C18.0123 53.6048 18.8605 52.7566 19.9069 52.7566H57.335Z" fill="white"/>
<path d="M33.3663 13.7988C32.9495 13.7988 32.6118 14.1366 32.6118 14.5533V18.9568C32.6118 19.0927 32.5435 19.2149 32.4334 19.2761C32.2387 19.3839 31.9842 19.1604 31.9558 19.1346C31.6475 18.8544 31.1703 18.8771 30.8899 19.1854C30.6098 19.4938 30.6325 19.9711 30.9409 20.2513C31.2863 20.5652 31.7795 20.82 32.3187 20.82C32.5937 20.82 32.8807 20.7538 33.1659 20.5954C33.755 20.2683 34.121 19.6404 34.121 18.9568V14.5534C34.1208 14.1366 33.783 13.7988 33.3663 13.7988Z" fill="#685E68"/>
<path d="M38.3048 15.3581C38.7216 15.3581 39.0593 15.0203 39.0593 14.6036C39.0593 14.1869 38.7215 13.8491 38.3048 13.8491H36.0045C35.5877 13.8491 35.25 14.1869 35.25 14.6036V20.0629C35.25 20.4796 35.5878 20.8174 36.0045 20.8174H38.3048C38.7216 20.8174 39.0593 20.4796 39.0593 20.0629C39.0593 19.6462 38.7215 19.3084 38.3048 19.3084H36.759V18.0878H38.1352C38.552 18.0878 38.8896 17.75 38.8896 17.3333C38.8896 16.9166 38.5519 16.5788 38.1352 16.5788H36.759V15.3581H38.3048Z" fill="#685E68"/>
<path d="M45.1317 18.707C44.8124 18.4395 44.3364 18.4812 44.0688 18.8007C44.023 18.8554 43.9735 18.9065 43.9219 18.9525C43.6566 19.1888 43.3167 19.3085 42.9117 19.3085C41.8087 19.3085 40.9114 18.4112 40.9114 17.3082C40.9114 16.2052 41.8087 15.3079 42.9117 15.3079C43.3127 15.3079 43.6991 15.4259 44.0296 15.649C44.3748 15.8823 44.8438 15.7914 45.0771 15.4462C45.3104 15.1009 45.2196 14.6318 44.8743 14.3986C44.2936 14.0063 43.6149 13.7988 42.9117 13.7988C40.9767 13.7988 39.4023 15.3731 39.4023 17.3082C39.4023 19.2433 40.9767 20.8175 42.9117 20.8175C43.6869 20.8175 44.3831 20.5623 44.9256 20.0793C45.0319 19.9846 45.1328 19.8805 45.2254 19.7699C45.4931 19.4506 45.4511 18.9747 45.1317 18.707Z" fill="#685E68"/>
<path d="M49.6312 13.7988H46.5885C46.1717 13.7988 45.834 14.1366 45.834 14.5533C45.834 14.97 46.1718 15.3078 46.5885 15.3078H47.3492V20.0629C47.3492 20.4796 47.687 20.8174 48.1037 20.8174C48.5204 20.8174 48.8582 20.4796 48.8582 20.0629V15.3079H49.6311C50.0479 15.3079 50.3855 14.9701 50.3855 14.5534C50.3855 14.1367 50.0479 13.7988 49.6312 13.7988Z" fill="#685E68"/>
<path d="M23.0631 15.9853C23.0631 14.7797 22.046 13.7988 20.7957 13.7988H19.3315C19.1311 13.7988 18.9387 13.8786 18.7971 14.0207C18.6555 14.1627 18.5763 14.3553 18.577 14.5559C18.577 14.556 18.5752 20.063 18.5752 20.063C18.5752 20.4797 18.913 20.8175 19.3297 20.8175C19.7465 20.8175 20.0842 20.4797 20.0842 20.063V18.6778L21.742 20.5614C21.8911 20.7309 22.0994 20.8175 22.3087 20.8175C22.4857 20.8175 22.6636 20.7555 22.8069 20.6293C23.1197 20.354 23.1501 19.8772 22.8748 19.5645L21.5415 18.0495C22.4264 17.7514 23.0631 16.9389 23.0631 15.9853ZM20.7956 16.6626C20.6296 16.6626 20.3569 16.6637 20.0921 16.6649C20.0908 16.4077 20.0892 15.5779 20.0884 15.3079H20.7956C21.2066 15.3079 21.554 15.6181 21.554 15.9853C21.554 16.3524 21.2067 16.6626 20.7956 16.6626Z" fill="#685E68"/>
<path d="M15.4645 13.7988H13.9304C13.7299 13.7988 13.5376 13.8786 13.396 14.0207C13.2544 14.1627 13.1752 14.3553 13.1758 14.5558V20.063C13.1758 20.4797 13.5136 20.8175 13.9303 20.8175C14.347 20.8175 14.6848 20.4797 14.6848 20.063V18.4202C14.9749 18.4188 15.2816 18.4175 15.4644 18.4175C16.7545 18.4175 17.8041 17.3815 17.8041 16.1081C17.8041 14.8347 16.7546 13.7988 15.4645 13.7988ZM15.4645 16.9085C15.283 16.9085 14.9799 16.9098 14.6914 16.9111C14.6899 16.6118 14.6879 15.6217 14.6871 15.3079H15.4646C15.9148 15.3079 16.2952 15.6744 16.2952 16.1082C16.2951 16.542 15.9147 16.9085 15.4645 16.9085Z" fill="#685E68"/>
<path d="M27.0348 13.7988C25.0997 13.7988 23.5254 15.3731 23.5254 17.3082C23.5254 19.2433 25.0997 20.8175 27.0348 20.8175C28.9698 20.8175 30.5441 19.2433 30.5441 17.3082C30.5441 15.3731 28.9698 13.7988 27.0348 13.7988ZM27.0348 19.3084C25.9317 19.3084 25.0345 18.4111 25.0345 17.3081C25.0345 16.2051 25.9317 15.3078 27.0348 15.3078C28.1378 15.3078 29.0351 16.2052 29.0351 17.3081C29.0351 18.411 28.1377 19.3084 27.0348 19.3084Z" fill="#685E68"/>
<path d="M47.1353 23.8371H15.6207C15.2039 23.8371 14.8662 23.4993 14.8662 23.0826C14.8662 22.6659 15.204 22.3281 15.6207 22.3281H47.1352C47.552 22.3281 47.8896 22.6659 47.8896 23.0826C47.8897 23.4992 47.552 23.8371 47.1353 23.8371Z" fill="#DEDBEE"/>
<path d="M28.9525 37.5352H16.3354C15.1634 37.5352 14.2134 36.5852 14.2134 35.4132V28.6171C14.2134 27.4451 15.1634 26.4951 16.3354 26.4951H28.9526C30.1246 26.4951 31.0746 27.4451 31.0746 28.6171V35.4132C31.0746 36.5851 30.1245 37.5352 28.9525 37.5352Z" fill="#FFD15B"/>
<path d="M48.5379 30.1601H34.4869C34.0701 30.1601 33.7324 29.8223 33.7324 29.4056C33.7324 28.9889 34.0702 28.6511 34.4869 28.6511H48.5379C48.9547 28.6511 49.2924 28.9889 49.2924 29.4056C49.2924 29.8223 48.9546 30.1601 48.5379 30.1601Z" fill="#685E68"/>
<path d="M43.1183 33.0705H34.4869C34.0701 33.0705 33.7324 32.7327 33.7324 32.316C33.7324 31.8993 34.0702 31.5615 34.4869 31.5615H43.1183C43.5351 31.5615 43.8728 31.8993 43.8728 32.316C43.8728 32.7327 43.535 33.0705 43.1183 33.0705Z" fill="#685E68"/>
<path d="M34.4871 41.7019H14.2135C13.7967 41.7019 13.459 41.3641 13.459 40.9474C13.459 40.5307 13.7968 40.1929 14.2135 40.1929H34.4871C34.9039 40.1929 35.2416 40.5307 35.2416 40.9474C35.2416 41.3641 34.9038 41.7019 34.4871 41.7019Z" fill="#7A6D79"/>
<path d="M34.4871 47.5231H14.2135C13.7967 47.5231 13.459 47.1853 13.459 46.7687C13.459 46.352 13.7968 46.0142 14.2135 46.0142H34.4871C34.9039 46.0142 35.2416 46.352 35.2416 46.7687C35.2416 47.1853 34.9038 47.5231 34.4871 47.5231Z" fill="#7A6D79"/>
<path d="M23.9488 50.517H14.2135C13.7967 50.517 13.459 50.1792 13.459 49.7626C13.459 49.3459 13.7968 49.0081 14.2135 49.0081H23.9488C24.3656 49.0081 24.7033 49.3459 24.7033 49.7626C24.7033 50.1792 24.3656 50.517 23.9488 50.517Z" fill="#7A6D79"/>
<path d="M16.7969 32.1155H21.503V35.1264H16.7969V32.1155Z" fill="#FE646F"/>
<path d="M23.7852 29.3386H28.4913V35.1263H23.7852V29.3386Z" fill="#BBEC6C"/>
<path d="M35.7918 44.6125H14.2135C13.7967 44.6125 13.459 44.2747 13.459 43.858C13.459 43.4413 13.7968 43.1035 14.2135 43.1035H35.7918C36.2086 43.1035 36.5463 43.4413 36.5463 43.858C36.5463 44.2747 36.2085 44.6125 35.7918 44.6125Z" fill="#7A6D79"/>
</g>
<defs>
<clipPath id="clip0_1040_6491">
<rect width="50" height="50" fill="white" transform="translate(10 10)"/>
</clipPath>
</defs>
</svg>
