<svg width="50" height="50" viewBox="0 0 50 50" fill="none" xmlns="http://www.w3.org/2000/svg">
<g clip-path="url(#clip0_1040_6633)">
<path d="M41.9863 1.89434V42.7565C41.9863 42.7565 6.46123 49.9467 4.49033 49.999C4.45811 50 4.42598 50 4.39375 50H4.3917C3.3917 49.999 2.48623 49.5945 1.83135 48.9396C1.17539 48.2837 0.77002 47.3783 0.77002 46.3783V1.89434C0.77002 0.848047 1.61807 0 2.66436 0H40.0919C41.1383 0 41.9863 0.848047 41.9863 1.89434Z" fill="white"/>
<path d="M41.9863 41.7107V42.7565C41.9863 42.7565 6.46123 49.9466 4.49033 49.999C4.45811 49.9999 4.42598 50 4.39375 50H4.3917C3.3917 49.999 2.48623 49.5945 1.83135 48.9396C1.17539 48.2836 0.77002 47.3783 0.77002 46.3783V41.7108L41.9863 41.7107Z" fill="#DEDBEE"/>
<path d="M45.0455 36.0416L43.7588 35.2981C43.8704 34.784 43.9308 34.2508 43.9308 33.7036C43.9308 33.1563 43.8705 32.6231 43.7588 32.109L45.0455 31.3656C45.6964 30.9893 45.9197 30.1574 45.5434 29.5054L44.6309 27.924C44.2547 27.272 43.4217 27.0498 42.7708 27.425L41.4831 28.1684C40.6974 27.4521 39.7577 26.9028 38.7205 26.5718V25.087C38.7205 24.3355 38.1108 23.7258 37.3594 23.7258H35.5324C34.7809 23.7258 34.1713 24.3355 34.1713 25.087V26.5718C33.1341 26.9028 32.1944 27.4521 31.4087 28.1684L30.122 27.425C29.47 27.0497 28.6381 27.272 28.2618 27.924L27.3483 29.5054C26.9721 30.1574 27.1954 30.9893 27.8463 31.3656L29.134 32.109C29.0223 32.6231 28.9619 33.1563 28.9619 33.7036C28.9619 34.2508 29.0223 34.784 29.134 35.2981L27.8463 36.0416C27.1954 36.4178 26.9721 37.2508 27.3483 37.9017L28.2618 39.4832C28.6381 40.1351 29.47 40.3574 30.122 39.9822L31.4087 39.2387C32.1944 39.955 33.1341 40.5043 34.1713 40.8353V42.3202C34.1713 43.0716 34.7809 43.6813 35.5324 43.6813H37.3594C38.1108 43.6813 38.7205 43.0716 38.7205 42.3202V40.8353C39.7577 40.5043 40.6974 39.955 41.4831 39.2387L42.7708 39.9822C43.4217 40.3575 44.2547 40.1351 44.6309 39.4832L45.5434 37.9017C45.9197 37.2507 45.6964 36.4177 45.0455 36.0416ZM36.4459 36.8655C34.7004 36.8655 33.2849 35.45 33.2849 33.7035C33.2849 31.957 34.7005 30.5425 36.4459 30.5425C38.1924 30.5425 39.6079 31.957 39.6079 33.7035C39.6078 35.45 38.1924 36.8655 36.4459 36.8655Z" fill="#7A6D79"/>
<path d="M47.335 42.7566C48.3813 42.7566 49.2296 43.6048 49.2296 44.6512V46.3783C49.2296 47.3783 48.8241 48.2837 48.1692 48.9396C47.5133 49.5946 46.6078 50 45.6078 50H4.3916C6.3916 50 8.01231 48.3783 8.01231 46.3783V44.6512C8.01231 43.6048 8.86055 42.7566 9.90693 42.7566H47.335Z" fill="white"/>
<path d="M23.3663 3.79883C22.9495 3.79883 22.6118 4.13662 22.6118 4.55332V8.95684C22.6118 9.09268 22.5435 9.21494 22.4334 9.27607C22.2387 9.38389 21.9842 9.16045 21.9558 9.13457C21.6475 8.85439 21.1703 8.87705 20.8899 9.18545C20.6098 9.49385 20.6325 9.97109 20.9409 10.2513C21.2863 10.5652 21.7795 10.82 22.3187 10.82C22.5937 10.82 22.8807 10.7538 23.1659 10.5954C23.755 10.2683 24.121 9.64043 24.121 8.95684V4.55342C24.1208 4.13662 23.783 3.79883 23.3663 3.79883Z" fill="#685E68"/>
<path d="M28.3048 5.35811C28.7216 5.35811 29.0593 5.02031 29.0593 4.60361C29.0593 4.18691 28.7215 3.84912 28.3048 3.84912H26.0045C25.5877 3.84912 25.25 4.18691 25.25 4.60361V10.0629C25.25 10.4796 25.5878 10.8174 26.0045 10.8174H28.3048C28.7216 10.8174 29.0593 10.4796 29.0593 10.0629C29.0593 9.64619 28.7215 9.3084 28.3048 9.3084H26.759V8.08779H28.1352C28.552 8.08779 28.8896 7.75 28.8896 7.3333C28.8896 6.9166 28.5519 6.57881 28.1352 6.57881H26.759V5.35811H28.3048Z" fill="#685E68"/>
<path d="M35.1317 8.70703C34.8124 8.43945 34.3364 8.48125 34.0688 8.80068C34.023 8.85537 33.9735 8.90654 33.9219 8.95254C33.6566 9.18877 33.3167 9.3085 32.9117 9.3085C31.8087 9.3085 30.9114 8.41123 30.9114 7.3082C30.9114 6.20518 31.8087 5.30791 32.9117 5.30791C33.3127 5.30791 33.6991 5.42588 34.0296 5.64902C34.3748 5.88232 34.8438 5.79141 35.0771 5.44619C35.3104 5.10088 35.2196 4.63184 34.8743 4.39863C34.2936 4.00625 33.6149 3.79883 32.9117 3.79883C30.9767 3.79883 29.4023 5.37314 29.4023 7.3082C29.4023 9.24326 30.9767 10.8175 32.9117 10.8175C33.6869 10.8175 34.3831 10.5623 34.9256 10.0793C35.0319 9.98457 35.1328 9.88047 35.2254 9.76992C35.4931 9.45059 35.4511 8.97471 35.1317 8.70703Z" fill="#685E68"/>
<path d="M39.6312 3.79883H36.5885C36.1717 3.79883 35.834 4.13662 35.834 4.55332C35.834 4.97002 36.1718 5.30781 36.5885 5.30781H37.3492V10.0629C37.3492 10.4796 37.687 10.8174 38.1037 10.8174C38.5204 10.8174 38.8582 10.4796 38.8582 10.0629V5.30791H39.6311C40.0479 5.30791 40.3855 4.97012 40.3855 4.55342C40.3855 4.13672 40.0479 3.79883 39.6312 3.79883Z" fill="#685E68"/>
<path d="M13.0631 5.98525C13.0631 4.77969 12.046 3.79883 10.7957 3.79883H9.33154C9.13106 3.79883 8.93867 3.87861 8.79707 4.0207C8.65547 4.1627 8.57627 4.35527 8.57695 4.55586C8.57695 4.55596 8.5752 10.063 8.5752 10.063C8.5752 10.4797 8.91299 10.8175 9.32969 10.8175C9.74648 10.8175 10.0842 10.4797 10.0842 10.063V8.67783L11.742 10.5614C11.8911 10.7309 12.0994 10.8175 12.3087 10.8175C12.4857 10.8175 12.6636 10.7555 12.8069 10.6293C13.1197 10.354 13.1501 9.87725 12.8748 9.56445L11.5415 8.04951C12.4264 7.75137 13.0631 6.93887 13.0631 5.98525ZM10.7956 6.6626C10.6296 6.6626 10.3569 6.66367 10.0921 6.66494C10.0908 6.40772 10.0892 5.57793 10.0884 5.30791H10.7956C11.2066 5.30791 11.554 5.61807 11.554 5.98525C11.554 6.35244 11.2067 6.6626 10.7956 6.6626Z" fill="#685E68"/>
<path d="M5.46446 3.79883H3.93037C3.72989 3.79883 3.5376 3.87861 3.396 4.0207C3.2544 4.1627 3.1752 4.35527 3.17578 4.55576V10.063C3.17578 10.4797 3.51358 10.8175 3.93028 10.8175C4.34698 10.8175 4.68477 10.4797 4.68477 10.063V8.42022C4.97491 8.41875 5.28164 8.41748 5.46436 8.41748C6.75449 8.41748 7.8041 7.38154 7.8041 6.10811C7.8041 4.83467 6.75459 3.79883 5.46446 3.79883ZM5.46446 6.9085C5.28301 6.9085 4.97989 6.90977 4.69141 6.91113C4.68994 6.61182 4.68789 5.62168 4.68711 5.30791H5.46455C5.91485 5.30791 6.29522 5.67441 6.29522 6.1082C6.29512 6.54199 5.91465 6.9085 5.46446 6.9085Z" fill="#685E68"/>
<path d="M17.0348 3.79883C15.0997 3.79883 13.5254 5.37314 13.5254 7.3082C13.5254 9.24326 15.0997 10.8175 17.0348 10.8175C18.9698 10.8175 20.5441 9.24326 20.5441 7.3082C20.5441 5.37314 18.9698 3.79883 17.0348 3.79883ZM17.0348 9.3084C15.9317 9.3084 15.0345 8.41113 15.0345 7.30811C15.0345 6.20508 15.9317 5.30781 17.0348 5.30781C18.1378 5.30781 19.0351 6.20518 19.0351 7.30811C19.0351 8.41104 18.1377 9.3084 17.0348 9.3084Z" fill="#685E68"/>
<path d="M37.1353 13.8371H5.6207C5.20391 13.8371 4.86621 13.4993 4.86621 13.0826C4.86621 12.6659 5.204 12.3281 5.6207 12.3281H37.1352C37.552 12.3281 37.8896 12.6659 37.8896 13.0826C37.8897 13.4992 37.552 13.8371 37.1353 13.8371Z" fill="#DEDBEE"/>
<path d="M18.9525 27.5352H6.33535C5.16338 27.5352 4.21338 26.5852 4.21338 25.4132V18.6171C4.21338 17.4451 5.16338 16.4951 6.33535 16.4951H18.9526C20.1246 16.4951 21.0746 17.4451 21.0746 18.6171V25.4132C21.0746 26.5851 20.1245 27.5352 18.9525 27.5352Z" fill="#FFD15B"/>
<path d="M38.5379 20.1601H24.4869C24.0701 20.1601 23.7324 19.8223 23.7324 19.4056C23.7324 18.9889 24.0702 18.6511 24.4869 18.6511H38.5379C38.9547 18.6511 39.2924 18.9889 39.2924 19.4056C39.2924 19.8223 38.9546 20.1601 38.5379 20.1601Z" fill="#685E68"/>
<path d="M33.1183 23.0705H24.4869C24.0701 23.0705 23.7324 22.7327 23.7324 22.316C23.7324 21.8993 24.0702 21.5615 24.4869 21.5615H33.1183C33.5351 21.5615 33.8728 21.8993 33.8728 22.316C33.8728 22.7327 33.535 23.0705 33.1183 23.0705Z" fill="#685E68"/>
<path d="M24.4871 31.7019H4.21348C3.79668 31.7019 3.45898 31.3641 3.45898 30.9474C3.45898 30.5307 3.79678 30.1929 4.21348 30.1929H24.4871C24.9039 30.1929 25.2416 30.5307 25.2416 30.9474C25.2416 31.3641 24.9038 31.7019 24.4871 31.7019Z" fill="#7A6D79"/>
<path d="M24.4871 37.5231H4.21348C3.79668 37.5231 3.45898 37.1853 3.45898 36.7687C3.45898 36.352 3.79678 36.0142 4.21348 36.0142H24.4871C24.9039 36.0142 25.2416 36.352 25.2416 36.7687C25.2416 37.1853 24.9038 37.5231 24.4871 37.5231Z" fill="#7A6D79"/>
<path d="M13.9488 40.517H4.21348C3.79668 40.517 3.45898 40.1792 3.45898 39.7626C3.45898 39.3459 3.79678 39.0081 4.21348 39.0081H13.9488C14.3656 39.0081 14.7033 39.3459 14.7033 39.7626C14.7033 40.1792 14.3656 40.517 13.9488 40.517Z" fill="#7A6D79"/>
<path d="M6.79688 22.1155H11.503V25.1264H6.79688V22.1155Z" fill="#FE646F"/>
<path d="M13.7852 19.3386H18.4913V25.1263H13.7852V19.3386Z" fill="#BBEC6C"/>
<path d="M25.7918 34.6125H4.21348C3.79668 34.6125 3.45898 34.2747 3.45898 33.858C3.45898 33.4413 3.79678 33.1035 4.21348 33.1035H25.7918C26.2086 33.1035 26.5463 33.4413 26.5463 33.858C26.5463 34.2747 26.2085 34.6125 25.7918 34.6125Z" fill="#7A6D79"/>
</g>
<defs>
<clipPath id="clip0_1040_6633">
<rect width="50" height="50" fill="white"/>
</clipPath>
</defs>
</svg>
