<svg width="144" height="180" viewBox="0 0 144 180" fill="none" xmlns="http://www.w3.org/2000/svg">
<g clip-path="url(#clip0_21_1604)">
<path d="M26.4762 93.3704C24.9795 97.4054 20.1901 96.0972 14.0216 92.2576C6.65584 87.6704 -2.82457 73.7453 0.7974 64.0889C1.13185 63.1971 1.57718 62.3502 2.12303 61.5681C8.81747 52.0115 26.4462 83.3381 26.8781 88.1567C27.0834 90.4354 26.9401 92.1493 26.4762 93.3704Z" fill="#5FBBE8"/>
<path d="M26.4762 93.3703C24.9795 97.4054 20.1901 96.0972 14.0216 92.2575C6.65584 87.6704 -2.82457 73.7453 0.7974 64.0889C3.12153 73.1061 9.46532 87.921 26.4762 93.3703Z" fill="#5FAEDE"/>
<path d="M11.9991 66.9663C13.5898 69.2111 15.8648 73.1696 15.1272 73.7621C14.3895 74.3547 10.4575 71.5004 8.03288 67.7224C6.38012 65.1442 5.11649 61.6698 5.8349 61.2005C6.64739 60.676 9.92512 64.0378 11.9991 66.9663Z" fill="#B1ECED"/>
<path d="M96.818 115.699C96.818 133.183 84.4682 153.713 64.8467 153.713C52.6873 153.713 42.6809 146.318 36.8374 136.435C33.2368 130.374 31.2163 123.365 31.2163 116.553C31.2163 98.6392 50.8998 99.4929 63.3736 99.4929C77.0575 99.4929 93.2944 98.4523 96.322 111.107C96.6692 112.613 96.8357 114.154 96.818 115.699Z" fill="#5FBBE8"/>
<path d="M96.818 115.699C96.818 133.183 84.4682 153.713 64.8467 153.713C52.6873 153.713 42.6809 146.318 36.8374 136.435C49.0247 142.13 83.7349 153.932 96.3177 111.099C96.667 112.607 96.835 114.151 96.818 115.699Z" fill="#5FAEDE"/>
<path d="M38.0027 109.608C35.4519 113.734 37.2565 119.609 41.6375 121.925C46.2622 124.363 52.5568 122.178 54.2759 117.334C55.9094 112.73 52.7621 107.565 48.2507 106.125C44.6287 104.953 40.1215 106.185 38.0027 109.608Z" fill="#B1ECED"/>
<path d="M119.093 102.802C112.191 107 107.021 108.09 106.264 102.224C106.133 101.008 106.138 99.7818 106.279 98.5671C106.762 93.7505 124.718 62.6002 131.314 72.2333C133.025 74.7222 133.563 77.6381 133.298 80.6792C132.526 89.4076 125.079 99.1553 119.093 102.802Z" fill="#5FBBE8"/>
<path d="M119.093 102.802C112.191 107 107.021 108.09 106.264 102.224C110.801 101.374 119.927 97.3395 133.299 80.6833C132.527 89.4075 125.08 99.1552 119.093 102.802Z" fill="#5FAEDE"/>
<path d="M120.254 83.3572C117.209 87.8764 111.609 95.2881 110.754 94.7465C109.974 94.256 112.935 87.2287 117.81 81.3418C120.525 78.0628 124.119 74.7966 124.673 75.2383C125.355 75.7862 121.203 81.9513 120.254 83.3572Z" fill="#B1ECED"/>
<path d="M38.7401 54.0989C37.9068 52.7415 37.3395 51.2399 37.0681 49.6731C36.7389 47.9066 36.8091 46.0896 37.2738 44.3534C37.7384 42.6172 38.5858 41.0053 39.7547 39.6343C40.9235 38.2634 42.3846 37.1677 44.0322 36.4265C45.6798 35.6853 47.4727 35.3172 49.2811 35.3488C50.3373 35.3533 51.3889 35.4888 52.4113 35.7523C51.4748 49.7963 38.7401 54.0989 38.7401 54.0989Z" fill="#5FBBE8"/>
<path d="M38.7404 54.099C37.9071 52.7416 37.3397 51.24 37.0684 49.6732C39.0418 47.609 41.0602 45.3918 43.0957 43.0154C45.3407 40.3969 47.3997 37.8315 49.2813 35.3489C50.3375 35.3533 51.3891 35.4889 52.4115 35.7524L38.7404 54.099Z" fill="#5FAEDE"/>
<path d="M102.394 83.9177C97.0362 100.451 56.8225 96.5919 41.1501 82.0064C36.7969 77.9565 34.338 73.0763 35.0458 67.578C38.3 42.2933 60.2392 23.7408 79.091 28.3088C85.9222 29.9653 93.3052 34.5079 98.535 41.8707C105.232 51.3084 108.402 65.3673 102.394 83.9177Z" fill="#5FBBE8"/>
<path d="M96.3198 65.1718C95.58 68.1811 91.3914 69.1304 86.3113 69.0667C80.966 68.9987 74.6136 67.8073 70.2626 66.7115C64.0342 65.1464 52.2297 61.2664 48.7488 56.7132C47.9321 55.6513 47.575 54.5385 47.8508 53.4193C48.6526 50.1594 50.9105 47.577 53.9188 46.0395C56.9271 44.5019 60.6774 44.0156 64.464 44.933L85.5095 50.0299C89.9118 51.0917 93.3906 53.8334 95.2165 57.2186C96.5686 59.6407 96.962 62.4768 96.3198 65.1718Z" fill="#294F81"/>
<path d="M96.32 65.1718C95.5802 68.1811 91.3916 69.1304 86.3114 69.0667C80.9662 68.9987 74.6138 67.8073 70.2627 66.7115C64.0344 65.1463 52.2299 61.2663 48.749 56.7131C61.195 59.3805 82.6531 62.6807 95.2167 57.2249C96.5672 59.6453 96.9605 62.4788 96.32 65.1718Z" fill="#33487A"/>
<path d="M102.394 83.9178C97.036 100.451 56.8223 96.592 41.1499 82.0065C51.802 86.5279 83.8652 98.5607 93.6984 84.1854C102.157 71.8234 100.292 52.1432 98.5284 41.8708C105.231 51.3085 108.402 65.3674 102.394 83.9178Z" fill="#5FAEDE"/>
<path d="M53.3011 39.6131C53.981 41.1719 60.8316 39.9147 65.7214 37.8908C70.4082 35.9498 75.5889 32.3522 75.0137 30.8402C74.5006 29.4959 69.5401 30.031 66.3009 30.8402C59.0527 32.6793 52.5592 37.9142 53.3011 39.6131Z" fill="#B1ECED"/>
<path d="M37.8703 63.6216C36.9124 68.1536 38.6293 73.0912 39.8181 73.072C41.0689 73.0508 41.9092 67.5653 42.0931 64.4817C42.1465 63.5961 42.4694 58.1828 41.2378 57.911C40.2799 57.6944 38.4861 60.6867 37.8703 63.6216Z" fill="#B1ECED"/>
<path d="M76.4717 49.3121C76.4311 49.7369 73.4441 50.0151 70.5299 49.5861C65.8003 48.8874 61.9175 46.4006 62.1057 45.91C62.1912 45.6828 65.1247 46.3645 70.9831 47.7364C75.6891 48.8449 76.4931 49.0913 76.4717 49.3121Z" fill="#296ABD"/>
<path d="M39.2578 41.943C39.1573 41.8177 36.8225 38.783 36.1533 33.8029C35.5418 29.2455 36.2752 22.1226 43.2347 14.0759L44.6651 15.2907C39.4716 21.2965 37.233 27.4064 38.0113 33.4525C38.5907 37.9632 40.7267 40.7644 40.7481 40.792L39.2578 41.943Z" fill="#5FBBE8"/>
<path d="M48.38 16.2927C50.2004 14.7025 50.3783 11.9476 48.7774 10.1394C47.1764 8.33126 44.4028 8.15456 42.5823 9.74474C40.7619 11.3349 40.584 14.0898 42.185 15.898C43.786 17.7061 46.5596 17.8828 48.38 16.2927Z" fill="#294F81"/>
<path d="M47.6943 12.2105C47.9775 10.949 47.1774 9.69826 45.9073 9.41697C44.6372 9.13568 43.378 9.93032 43.0948 11.1919C42.8116 12.4534 43.6117 13.7041 44.8818 13.9854C46.1519 14.2667 47.4111 13.472 47.6943 12.2105Z" fill="#296ABD"/>
<path d="M67.2158 81.2524C64.2567 80.6153 62.2575 78.7039 60.9832 76.5335C58.6933 72.6238 58.7339 67.8264 59.7153 67.9241C61.2441 68.0897 64.2887 71.2519 68.3127 72.1078C72.9374 73.0931 76.4268 72.1948 78.8322 72.5686C78.9391 72.5827 79.0439 72.6019 79.1465 72.6259C81.5604 73.1399 76.3007 83.1849 67.2158 81.2524Z" fill="#294F81"/>
<path d="M67.216 81.2524C64.2569 80.6153 62.2577 78.704 60.9834 76.5335C65.1591 76.6758 73.4807 76.4082 78.8324 72.5686C78.9393 72.5828 79.0441 72.6019 79.1467 72.6259C81.5606 73.1399 76.3009 83.1849 67.216 81.2524Z" fill="#33487A"/>
<path d="M50.5493 53.7996C51.079 53.2559 51.7034 52.812 52.3924 52.4893C53.0818 52.1566 53.81 51.9098 54.5604 51.7545C56.0892 51.4477 57.668 51.4883 59.1788 51.8734C60.6765 52.255 62.0766 52.9453 63.2882 53.8994C64.484 54.8192 65.4553 55.9952 66.1298 57.3398C64.7592 56.7027 63.532 56.0656 62.2812 55.524C61.0879 54.9831 59.8514 54.542 58.5844 54.2052C57.3242 53.8864 56.0347 53.695 54.7357 53.634C53.3381 53.5708 51.9375 53.6262 50.5493 53.7996Z" fill="#46AED2"/>
<path d="M78.8086 59.9178C79.3186 59.3559 79.9262 58.8897 80.6025 58.5417C81.2785 58.1836 81.9967 57.9104 82.7406 57.7283C84.2566 57.366 85.8355 57.3493 87.3589 57.6794C88.8689 58.0067 90.2924 58.6464 91.5368 59.5568C92.7641 60.4299 93.7784 61.5657 94.5045 62.8804C93.1126 62.3006 91.8597 61.6975 90.6003 61.2069C89.3834 60.7115 88.1268 60.3187 86.8436 60.0325C85.5722 59.7608 84.2762 59.6184 82.9758 59.6077C81.5804 59.5942 80.1864 59.6979 78.8086 59.9178Z" fill="#46AED2"/>
<path d="M18.2532 42.9198C18.0381 42.9194 17.828 42.8553 17.6498 42.7358C17.4716 42.6163 17.3333 42.4467 17.2525 42.2487C17.1969 42.1128 11.6079 28.5445 1.88801 18.9539C1.78763 18.8549 1.70787 18.7373 1.65328 18.6076C1.59868 18.478 1.57033 18.339 1.56983 18.1985C1.56933 18.058 1.59671 17.9187 1.65038 17.7887C1.70406 17.6587 1.78299 17.5405 1.88267 17.4408C2.08397 17.2394 2.35757 17.1258 2.64326 17.1248C2.78472 17.1243 2.9249 17.1515 3.05578 17.2048C3.18667 17.2581 3.3057 17.3365 3.40607 17.4355C13.4488 27.3425 19.0293 40.8768 19.2431 41.4481C19.2972 41.5783 19.3247 41.718 19.324 41.8589C19.3232 41.9998 19.2942 42.1391 19.2387 42.2688C19.1832 42.3985 19.1022 42.5158 19.0006 42.6141C18.8989 42.7124 18.7786 42.7896 18.6466 42.8412C18.5216 42.8918 18.3881 42.9185 18.2532 42.9198Z" fill="#CAEFF9"/>
<path d="M29.2106 29.3707C28.9395 29.3713 28.6784 29.2697 28.4799 29.0864C28.2814 28.903 28.1605 28.6517 28.1415 28.3831C28.1287 28.2366 26.9228 13.6235 20.5704 1.56726C20.4377 1.31577 20.4111 1.02223 20.4963 0.751208C20.5815 0.480185 20.7716 0.253883 21.0248 0.122085C21.278 -0.00971272 21.5735 -0.03621 21.8464 0.0484223C22.1192 0.133055 22.3471 0.321884 22.4798 0.57337C29.0438 13.031 30.2411 27.6037 30.2903 28.2175C30.3023 28.3579 30.286 28.4992 30.2424 28.6332C30.1989 28.7673 30.1289 28.8914 30.0365 28.9983C29.9442 29.1053 29.8314 29.1929 29.7046 29.2561C29.5779 29.3193 29.4397 29.3568 29.2982 29.3664L29.2106 29.3707Z" fill="#CAEFF9"/>
<path d="M117.476 54.6893C117.25 54.6939 117.028 54.627 116.843 54.4984C116.657 54.3698 116.518 54.186 116.444 53.9735C116.37 53.761 116.366 53.5308 116.433 53.316C116.499 53.1011 116.633 52.9128 116.814 52.778C117.301 52.4 128.956 43.4677 142.649 39.902C142.925 39.8299 143.219 39.8699 143.466 40.0131C143.713 40.1562 143.892 40.3909 143.965 40.6655C144.037 40.9401 143.997 41.2321 143.853 41.4772C143.709 41.7223 143.472 41.9005 143.196 41.9726C129.94 45.4258 118.253 54.3771 118.137 54.4685C117.948 54.6126 117.715 54.6903 117.476 54.6893Z" fill="#CAEFF9"/>
<path d="M114.836 37.5064C114.639 37.5088 114.445 37.4569 114.275 37.3566C114.106 37.2563 113.968 37.1114 113.876 36.938C113.785 36.7646 113.743 36.5694 113.756 36.374C113.769 36.1786 113.837 35.9906 113.951 35.8308C114.301 35.3233 122.698 23.3138 134.669 15.8108C134.789 15.7358 134.923 15.685 135.063 15.6613C135.202 15.6376 135.345 15.6415 135.484 15.6727C135.622 15.704 135.753 15.762 135.868 15.8434C135.984 15.9249 136.083 16.0282 136.158 16.1474C136.234 16.2666 136.285 16.3994 136.309 16.5383C136.333 16.6772 136.329 16.8193 136.297 16.9567C136.266 17.094 136.207 17.2239 136.125 17.3388C136.043 17.4537 135.939 17.5515 135.819 17.6265C124.233 24.8917 115.809 36.9288 115.721 37.0498C115.622 37.1917 115.49 37.3074 115.335 37.3869C115.181 37.4665 115.01 37.5075 114.836 37.5064Z" fill="#CAEFF9"/>
<path d="M58.5685 15.1761L56.4995 15.7327L58.8888 24.4952L60.9578 23.9386L58.5685 15.1761Z" fill="#F6B35B"/>
<path d="M117.076 91.1939L116.16 100.276L118.305 100.489L119.221 91.4073L117.076 91.1939Z" fill="#F6B35B"/>
<path d="M88.4902 45.9512L83.0874 53.3347L84.8308 54.5933L90.2336 47.2098L88.4902 45.9512Z" fill="#F6B35B"/>
<path d="M24.4932 75.6451L19.0903 83.0286L20.8337 84.2871L26.2365 76.9037L24.4932 75.6451Z" fill="#F6B35B"/>
<path d="M118.385 8.87964L115.031 16.2883L116.996 17.1662L120.35 9.7575L118.385 8.87964Z" fill="#EA4754"/>
<path d="M129.223 66.8706L125.87 74.2793L127.835 75.1572L131.189 67.7485L129.223 66.8706Z" fill="#EA4754"/>
<path d="M28.9126 35.0992L27.1392 36.3157L31.7867 42.9997L33.5601 41.7832L28.9126 35.0992Z" fill="#EA4754"/>
<path d="M38.4396 87.7433L36.666 88.9595L41.3124 95.6443L43.086 94.4281L38.4396 87.7433Z" fill="#EA4754"/>
<path d="M100.775 19.3584L98.6948 19.9182L101.529 30.3065L103.609 29.7467L100.775 19.3584Z" fill="#92EF9A"/>
<path d="M102.187 78.5398L100.107 79.0996L102.941 89.4879L105.021 88.9281L102.187 78.5398Z" fill="#92EF9A"/>
<path d="M73.1426 11.3167L69.2275 21.3525L71.2372 22.126L75.1522 12.0901L73.1426 11.3167Z" fill="#92EF9A"/>
<path d="M20.9165 64.9925L17.0015 75.0283L19.0111 75.8017L22.9261 65.7659L20.9165 64.9925Z" fill="#92EF9A"/>
<path d="M64.1498 180C82.9749 180 98.2357 176.07 98.2357 171.223C98.2357 166.375 82.9749 162.446 64.1498 162.446C45.3247 162.446 30.064 166.375 30.064 171.223C30.064 176.07 45.3247 180 64.1498 180Z" fill="#C9EAFF"/>
</g>
<defs>
<clipPath id="clip0_21_1604">
<rect width="144" height="180" fill="white"/>
</clipPath>
</defs>
</svg>
