<svg width="70" height="70" viewBox="0 0 70 70" fill="none" xmlns="http://www.w3.org/2000/svg">
<rect width="70" height="70" rx="10" fill="#FFF8E3"/>
<path d="M17.3721 43.189C15.1325 43.9206 13.3667 45.1348 12.3866 47.0954C11.1421 49.5851 11.7754 51.8946 12.6751 53.4946C13.5749 55.0946 14.7755 56.0912 14.7755 56.0912C15.5795 56.7605 16.5835 55.5546 15.7795 54.8852C15.7795 54.8852 14.7878 54.0522 14.0427 52.7272C13.2975 51.4021 12.8404 49.6793 13.783 47.7936C14.539 46.2812 15.9399 45.2982 17.8569 44.672C19.7998 44.0372 22.2751 43.783 25.0005 43.7487C26.1308 43.8307 26.1113 42.0837 24.9832 42.1908C22.1755 42.226 19.5663 42.4722 17.3721 43.189Z" fill="#356287"/>
<path d="M47.5111 33.8758C46.6325 33.9407 46.5157 35.1833 47.3668 35.4107C49.2429 35.9773 50.7366 36.6653 51.4926 37.3841C51.8706 37.7435 52.0641 38.076 52.13 38.4339C52.1959 38.7919 52.1442 39.2194 51.8619 39.7845C51.1542 41.2002 49.5901 42.044 47.2572 42.4907C44.9242 42.9374 41.9149 42.9469 38.6594 42.8023C37.6166 42.7558 37.5473 44.3196 38.5901 44.3661C41.8895 44.5126 44.9838 44.5173 47.5514 44.0256C50.1191 43.534 52.2544 42.5025 53.2641 40.4827C53.6589 39.6928 53.8043 38.8975 53.668 38.1573C53.5317 37.4171 53.123 36.7716 52.5716 36.2474C51.4689 35.1989 49.7999 34.5076 47.8227 33.9104C47.7222 33.878 47.6162 33.8662 47.5111 33.8758Z" fill="#356287"/>
<path d="M12.3522 13.1262C12.3522 13.1262 21.1717 13.1412 27.9436 14.4014C31.8479 15.128 34.1781 16.1038 34.9891 17.1481C35.3947 17.6702 35.4017 18.1831 35.0468 18.8387C34.6258 19.6168 33.6399 20.636 31.6654 21.9258C29.3515 23.4374 27.9102 24.7068 27.1415 25.9361C26.7482 26.565 26.5376 27.1792 26.5414 27.7999C26.5452 28.4206 26.7747 28.9892 27.1466 29.461C27.8904 30.4046 29.1113 31.021 30.5922 31.5505C32.0731 32.08 33.8443 32.5078 35.7451 32.9065C36.7874 33.1577 37.1231 31.5694 36.0682 31.3774C34.1977 30.9851 32.4756 30.5648 31.1173 30.0791C29.7589 29.5934 28.7827 29.012 28.3821 28.5039C28.1981 28.2704 28.1067 28.0425 28.1052 27.7883C28.1036 27.5342 28.1905 27.2027 28.4629 26.767C29.0078 25.8956 30.2989 24.6862 32.5194 23.2356C34.5311 21.9215 35.7767 20.753 36.4202 19.5773C37.1315 18.2777 36.9358 17.1068 36.224 16.1902C34.8004 14.3571 31.2311 13.4189 28.2321 12.8608C21.2243 11.5566 12.3522 11.5625 12.3522 11.5625C11.2946 11.5688 11.304 13.1262 12.3522 13.1262Z" fill="#356287"/>
<path d="M21.109 45.9702L19.0365 48.0428C18.9393 48.1398 18.8715 48.2621 18.8406 48.3959L16.7302 57.5405C16.6087 58.0676 17.081 58.5399 17.6081 58.4184L26.7516 56.3081C26.8853 56.2772 27.0077 56.2093 27.1047 56.1122L28.9957 54.2213L21.109 45.9702Z" fill="#FFCCAA"/>
<path d="M26.7513 56.3079C26.885 56.277 27.0074 56.2091 27.1044 56.112L28.996 54.2205L25.0527 50.0942L16.9258 58.2216C17.0946 58.3911 17.3442 58.479 17.6078 58.4182L26.7513 56.3079Z" fill="#FFB380"/>
<path d="M43.7883 23.2907L19.7408 47.3389C19.7355 47.3439 19.7302 47.3492 19.7251 47.3546C19.3313 47.7729 19.5507 48.461 20.114 48.5741L23.0422 49.1603V51.3735C23.0422 51.7778 23.3699 52.1055 23.7742 52.1056H25.9889L26.5737 55.0337C26.6882 55.607 27.3954 55.8214 27.8091 55.4083L51.858 31.3601C52.1438 31.0742 52.1438 30.6108 51.858 30.325L44.8235 23.2907C44.6838 23.1509 44.4935 23.0736 44.2959 23.0762C44.1052 23.0789 43.9231 23.1559 43.7883 23.2907Z" fill="#5299D3"/>
<path d="M17.8395 52.7334L16.7302 57.5402C16.6087 58.0673 17.081 58.5396 17.6081 58.4181C19.1972 58.0512 20.7863 57.6847 22.3754 57.3178L17.8395 52.7334Z" fill="#356287"/>
<path d="M48.34 26.8081L23.2559 51.8914C23.3931 52.0287 23.5793 52.1058 23.7734 52.1059H25.9882L26.573 55.034C26.5989 55.1639 26.6596 55.2843 26.7487 55.3825C26.8377 55.4806 26.9517 55.5527 27.0784 55.5912C27.2052 55.6296 27.3401 55.6329 27.4686 55.6008C27.5972 55.5686 27.7146 55.5022 27.8083 55.4086L51.8573 31.3604C51.9945 31.2231 52.0716 31.0369 52.0716 30.8428C52.0716 30.6487 51.9945 30.4625 51.8573 30.3253L48.34 26.8081Z" fill="#3587CB"/>
<path d="M51.9097 16.7114C50.9575 16.7114 50.0052 17.0732 49.2818 17.7966L43.7871 23.2911L51.8568 31.3605L57.3515 25.866C58.7984 24.4192 58.7984 22.0572 57.3515 20.6103L54.5377 17.7966C53.8142 17.0732 52.8619 16.7114 51.9097 16.7114Z" fill="#EEEEEE"/>
<path d="M55.9449 19.2031L47.8223 27.3255L51.8571 31.3602L57.3518 25.8657C58.7987 24.4188 58.7987 22.0569 57.3518 20.61L55.9449 19.2031Z" fill="#D0D0D0"/>
<path d="M20.1136 55.0332L16.9258 58.221C17.0946 58.3897 17.3447 58.4787 17.6082 58.4179C19.197 58.0508 20.7858 57.6839 22.3747 57.3172L20.1136 55.0332Z" fill="#2C5170"/>
<path d="M45.9704 21.1069C44.5149 22.5618 43.0602 24.0176 41.6055 25.4733L49.6742 33.5435C51.1297 32.088 52.5852 30.6325 54.0407 29.1771L45.9704 21.1069Z" fill="#FFCA28"/>
<path d="M50.0051 25.1421L45.6387 29.5085L49.6738 33.5435C51.1293 32.0881 52.5848 30.6326 54.0403 29.1772L50.0051 25.1421Z" fill="#ECB200"/>
</svg>
