<svg width="350" height="230" viewBox="0 0 350 230" fill="none" xmlns="http://www.w3.org/2000/svg">
<path d="M0 10C0 4.47715 4.47715 0 10 0H340C345.523 0 350 4.47715 350 10V230H0V10Z" fill="url(#paint0_linear_161_2)"/>
<g opacity="0.7">
<path d="M84.2016 105.581C81.0562 105.581 78.4973 108.14 78.4973 111.285C78.4973 114.43 81.0562 116.989 84.2016 116.989C87.347 116.989 89.9059 114.43 89.9059 111.285C89.9059 108.14 87.347 105.581 84.2016 105.581ZM84.2018 113.274C83.1049 113.274 82.2126 112.382 82.2126 111.285C82.2126 110.188 83.1049 109.296 84.2018 109.296C85.2988 109.296 86.1911 110.188 86.1911 111.285C86.1911 112.382 85.2985 113.274 84.2018 113.274Z" fill="#B5F0E5"/>
<path d="M55.3237 89.8855V85.9919H51.6087V89.8855H47.7151V93.6005H51.6087V97.4941H55.3237V93.6005H59.2172V89.8855H55.3237Z" fill="#B5F0E5"/>
<path d="M97.2994 142.122V138.229H93.5844V142.122H89.6909V145.837H93.5844V149.731H97.2994V145.837H101.193V142.122H97.2994Z" fill="#B5F0E5"/>
<path d="M42.2645 150.517V146.624H38.5495V150.517H34.6559V154.232H38.5495V158.126H42.2645V154.232H46.1581V150.517H42.2645Z" fill="#B5F0E5"/>
<path d="M19.715 72H16V76.0452H19.715V72Z" fill="#B5F0E5"/>
<path d="M111.129 73.8656H107.414V77.9107H111.129V73.8656Z" fill="#B5F0E5"/>
<path d="M36.5053 114.909H32.7903V118.954H36.5053V114.909Z" fill="#B5F0E5"/>
<path d="M308.073 105.581C304.927 105.581 302.368 108.14 302.368 111.285C302.368 114.43 304.927 116.989 308.073 116.989C311.218 116.989 313.777 114.43 313.777 111.285C313.777 108.14 311.218 105.581 308.073 105.581ZM308.073 113.274C306.976 113.274 306.084 112.382 306.084 111.285C306.084 110.188 306.976 109.296 308.073 109.296C309.17 109.296 310.062 110.188 310.062 111.285C310.062 112.382 309.169 113.274 308.073 113.274Z" fill="#B5F0E5"/>
<path d="M279.195 89.8855V85.9919H275.48V89.8855H271.586V93.6005H275.48V97.4941H279.195V93.6005H283.088V89.8855H279.195Z" fill="#B5F0E5"/>
<path d="M321.17 142.122V138.229H317.455V142.122H313.562V145.837H317.455V149.731H321.17V145.837H325.064V142.122H321.17Z" fill="#B5F0E5"/>
<path d="M266.136 150.517V146.624H262.42V150.517H258.527V154.232H262.42V158.126H266.136V154.232H270.029V150.517H266.136Z" fill="#B5F0E5"/>
<path d="M243.586 72H239.871V76.0452H243.586V72Z" fill="#B5F0E5"/>
<path d="M335 73.8656H331.285V77.9107H335V73.8656Z" fill="#B5F0E5"/>
<path d="M260.376 114.909H256.661V118.954H260.376V114.909Z" fill="#B5F0E5"/>
</g>
<defs>
<linearGradient id="paint0_linear_161_2" x1="175" y1="1.84835e-06" x2="161.128" y2="247.303" gradientUnits="userSpaceOnUse">
<stop stop-color="#DEFFF9"/>
<stop offset="1" stop-color="#FCFFFD"/>
</linearGradient>
</defs>
</svg>
