<svg width="30" height="30" viewBox="0 0 30 30" fill="none" xmlns="http://www.w3.org/2000/svg">
<rect width="30" height="30" rx="5" fill="#E7F5FF"/>
<path d="M14.9997 11C12.4439 11 10.4699 12.4211 8.81276 14.4008C8.52218 14.748 8.52218 15.252 8.81276 15.5992C10.4699 17.5789 12.4439 19 14.9997 19C17.5555 19 19.5295 17.5789 21.1866 15.5992C21.4772 15.252 21.4772 14.748 21.1866 14.4008C19.5295 12.4211 17.5555 11 14.9997 11Z" stroke="#3498DB" stroke-width="1.2" stroke-linecap="round" stroke-linejoin="round"/>
<path d="M16.6663 15.0002C16.6663 15.9206 15.9201 16.6668 14.9997 16.6668C14.0792 16.6668 13.333 15.9206 13.333 15.0002C13.333 14.0797 14.0792 13.3335 14.9997 13.3335C15.9201 13.3335 16.6663 14.0797 16.6663 15.0002Z" stroke="#3498DB" stroke-width="1.2" stroke-linecap="round" stroke-linejoin="round"/>
</svg>
