<svg width="70" height="70" viewBox="0 0 70 70" fill="none" xmlns="http://www.w3.org/2000/svg">
<rect width="70" height="70" rx="10" fill="white"/>
<g clip-path="url(#clip0_3299_3152)">
<path d="M18.4473 13.4912H51.5527V16.4209H18.4473V13.4912Z" fill="#8FFAFF"/>
<path d="M18.4473 53.5791H51.5527V56.5088H18.4473V53.5791Z" fill="#8FFAFF"/>
<path d="M35 13.4912H51.5527V16.4209H35V13.4912Z" fill="#3BE2E2"/>
<path d="M35 53.5791H51.5527V56.5088H35V53.5791Z" fill="#3BE2E2"/>
<path d="M46.8105 23.8672V29.251H43.8809V26.7969H36.4639V43.4814H39.0029V46.4111H30.9951V43.4814H33.5342V26.7969H26.1172V29.251H23.1875V23.8672H46.8105Z" fill="#455DA0"/>
<path d="M13.4922 18.4473H16.4219V51.1133H13.4922V18.4473Z" fill="#8FFAFF"/>
<path d="M53.5781 18.4473H56.5078V51.1133H53.5781V18.4473Z" fill="#3BE2E2"/>
<path d="M15.6315 21.263C18.7367 21.263 21.263 18.7367 21.263 15.6314C21.263 12.5263 18.7367 10 15.6315 10C12.5263 10 10 12.5263 10 15.6315C10 18.7367 12.5263 21.263 15.6315 21.263Z" fill="#50C5FF"/>
<path d="M15.6315 48.7368C12.5263 48.7368 10 51.2631 10 54.3683C10 57.4735 12.5263 59.9998 15.6315 59.9998C18.7367 59.9998 21.263 57.4735 21.263 54.3683C21.263 51.2631 18.7367 48.7368 15.6315 48.7368Z" fill="#50C5FF"/>
<path d="M54.3678 21.263C57.473 21.263 59.9993 18.7367 59.9993 15.6314C59.9993 12.5263 57.473 10 54.3678 10C51.2626 10 48.7363 12.5263 48.7363 15.6315C48.7363 18.7367 51.2626 21.263 54.3678 21.263Z" fill="#488AFF"/>
<path d="M54.3678 48.7368C51.2626 48.7368 48.7363 51.2631 48.7363 54.3684C48.7363 57.4735 51.2626 59.9999 54.3678 59.9999C57.473 59.9998 59.9993 57.4735 59.9993 54.3683C59.9993 51.2631 57.473 48.7368 54.3678 48.7368Z" fill="#488AFF"/>
<path d="M39.0039 46.4111H35V23.8672H46.8115V29.251H43.8818V26.7969H36.4648V43.4814H39.0039V46.4111Z" fill="#1F4271"/>
</g>
<defs>
<clipPath id="clip0_3299_3152">
<rect width="50" height="50" fill="white" transform="translate(10 10)"/>
</clipPath>
</defs>
</svg>
