<svg width="70" height="70" viewBox="0 0 70 70" fill="none" xmlns="http://www.w3.org/2000/svg">
<rect width="70" height="70" rx="10" fill="#EBEBF7"/>
<g clip-path="url(#clip0_3289_2796)">
<path d="M48.1836 10H26.2109C23.7839 10 21.8164 11.9675 21.8164 14.3945V55.6055C21.8164 58.0325 23.7839 60 26.2109 60H55.5078C57.9349 60 59.9023 58.0325 59.9023 55.6055V21.7188L48.1836 10Z" fill="#E4F2F9"/>
<path d="M48.1836 10H40.8594V60H55.5078C57.9349 60 59.9023 58.0325 59.9023 55.6055V21.7188L48.1836 10Z" fill="#BDE0F1"/>
<path d="M48.1836 10V20.2539C48.1836 21.0629 48.8395 21.7188 49.6484 21.7188H59.9023L48.1836 10Z" fill="#77BEE2"/>
<path d="M51.6016 39.4922H30.1172C29.3082 39.4922 28.6523 38.8363 28.6523 38.0273C28.6523 37.2184 29.3082 36.5625 30.1172 36.5625H51.6016C52.4105 36.5625 53.0664 37.2184 53.0664 38.0273C53.0664 38.8363 52.4105 39.4922 51.6016 39.4922Z" fill="#5F5F82"/>
<path d="M51.6016 30.7031H30.1172C29.3082 30.7031 28.6523 30.0473 28.6523 29.2383C28.6523 28.4293 29.3082 27.7734 30.1172 27.7734H51.6016C52.4105 27.7734 53.0664 28.4293 53.0664 29.2383C53.0664 30.0473 52.4105 30.7031 51.6016 30.7031Z" fill="#5F5F82"/>
<path d="M51.6016 48.2812H30.1172C29.3082 48.2812 28.6523 47.6254 28.6523 46.8164C28.6523 46.0074 29.3082 45.3516 30.1172 45.3516H51.6016C52.4105 45.3516 53.0664 46.0074 53.0664 46.8164C53.0664 47.6254 52.4105 48.2812 51.6016 48.2812Z" fill="#5F5F82"/>
<path d="M53.0664 38.0273C53.0664 37.2184 52.4105 36.5625 51.6016 36.5625H40.8594V39.4922H51.6016C52.4105 39.4922 53.0664 38.8363 53.0664 38.0273Z" fill="#3C3C55"/>
<path d="M53.0664 29.2383C53.0664 28.4293 52.4105 27.7734 51.6016 27.7734H40.8594V30.7031H51.6016C52.4105 30.7031 53.0664 30.0473 53.0664 29.2383Z" fill="#3C3C55"/>
<path d="M51.6016 48.2812C52.4105 48.2812 53.0664 47.6254 53.0664 46.8164C53.0664 46.0074 52.4105 45.3516 51.6016 45.3516H40.8594V48.2812H51.6016Z" fill="#3C3C55"/>
<path d="M23.2812 60C16.0118 60 10.0977 54.0858 10.0977 46.8164C10.0977 39.547 16.0118 33.6328 23.2812 33.6328C30.5507 33.6328 36.4648 39.547 36.4648 46.8164C36.4648 54.0858 30.5507 60 23.2812 60Z" fill="#49BBFF"/>
<path d="M23.2812 33.6328V60C30.5507 60 36.4648 54.0858 36.4648 46.8164C36.4648 39.547 30.5507 33.6328 23.2812 33.6328Z" fill="#0097FF"/>
<path d="M29.1022 43.1438C28.5302 42.5719 27.6027 42.5719 27.0306 43.1438L21.2305 48.9439L19.3366 47.05C18.7646 46.478 17.8371 46.478 17.265 47.05C16.6929 47.6219 16.6929 48.5495 17.265 49.1216L20.1947 52.0512C20.4807 52.3373 20.8556 52.4803 21.2305 52.4803C21.6054 52.4803 21.9803 52.3373 22.2663 52.0512L29.1022 45.2153C29.6743 44.6433 29.6743 43.7158 29.1022 43.1438Z" fill="#5F5F82"/>
<path d="M29.1021 43.1438C28.5302 42.5719 27.6026 42.5719 27.0306 43.1438L23.2812 46.8931V51.0363L29.1021 45.2154C29.6742 44.6433 29.6742 43.7158 29.1021 43.1438Z" fill="#3C3C55"/>
</g>
<defs>
<clipPath id="clip0_3289_2796">
<rect width="50" height="50" fill="white" transform="translate(10 10)"/>
</clipPath>
</defs>
</svg>
