<svg width="160" height="52" viewBox="0 0 160 52" fill="none" xmlns="http://www.w3.org/2000/svg">
<path d="M45.0154 37.2232C44.1814 35.962 43.629 34.5357 43.3961 33.0417C42.9828 30.2569 41.5758 27.7158 39.435 25.8875C41.5729 24.0616 42.9795 21.5251 43.3961 18.7447C43.6304 17.2511 44.1826 15.8251 45.0154 14.5632C45.168 14.3279 45.2525 14.0549 45.2596 13.7746C45.2666 13.4942 45.1961 13.2174 45.0556 12.9746C44.9152 12.7319 44.7103 12.5327 44.4637 12.3991C44.2171 12.2656 43.9384 12.2028 43.6583 12.2177C42.1425 12.3054 40.6256 12.0656 39.2107 11.5145C36.5901 10.489 33.6883 10.4391 31.034 11.3738C30.5239 8.60465 29.0292 6.1135 26.8258 4.3603C25.6418 3.41131 24.6759 2.21853 23.9938 0.863031C23.867 0.611992 23.6729 0.401063 23.4334 0.253701C23.1938 0.106339 22.918 0.0283203 22.6367 0.0283203C22.3555 0.0283203 22.0797 0.106339 21.8401 0.253701C21.6005 0.401063 21.4065 0.611992 21.2796 0.863031C20.5988 2.21931 19.6327 3.41233 18.4476 4.3603C16.2481 6.11041 14.7539 8.59532 14.2395 11.3586C11.5865 10.4238 8.68581 10.4737 6.06652 11.4993C4.65163 12.0502 3.13473 12.29 1.61891 12.2025C1.33886 12.1876 1.06013 12.2504 0.813537 12.3839C0.566944 12.5175 0.362095 12.7167 0.221643 12.9594C0.081191 13.2022 0.0106075 13.479 0.0176975 13.7594C0.0247874 14.0397 0.109275 14.3127 0.261817 14.548C1.09213 15.8108 1.64296 17.2365 1.8774 18.7295C2.29048 21.5163 3.69896 24.0591 5.84224 25.8875C3.70213 27.7105 2.29384 30.2462 1.8774 33.0265C1.6441 34.5198 1.09318 35.9457 0.261817 37.208C0.108211 37.4434 0.0228487 37.7167 0.0152102 37.9977C0.00757177 38.2787 0.0779557 38.5562 0.218546 38.7996C0.359137 39.043 0.564431 39.2426 0.811633 39.3764C1.05884 39.5101 1.33827 39.5727 1.61891 39.5573C3.14063 39.4711 4.663 39.7149 6.08173 40.2719C8.70034 41.3009 11.6022 41.3508 14.2547 40.4126C14.768 43.1774 16.2623 45.6639 18.4628 47.4147C19.6487 48.3618 20.615 49.555 21.2948 50.912C21.4217 51.163 21.6157 51.3739 21.8553 51.5213C22.0949 51.6687 22.3707 51.7467 22.6519 51.7467C22.9332 51.7467 23.209 51.6687 23.4486 51.5213C23.6881 51.3739 23.8822 51.163 24.009 50.912C24.691 49.5554 25.6569 48.3613 26.8411 47.4109C29.0421 45.6622 30.5367 43.1766 31.0492 40.4126C33.703 41.3507 36.606 41.3008 39.2259 40.2719C40.641 39.722 42.158 39.4834 43.6736 39.5725C43.9542 39.5879 44.2336 39.5253 44.4808 39.3916C44.728 39.2578 44.9333 39.0582 45.0739 38.8148C45.2145 38.5714 45.2849 38.2939 45.2773 38.0129C45.2696 37.7319 45.1843 37.4586 45.0306 37.2232H45.0154ZM34.554 25.8875C34.5571 28.2452 33.8607 30.5508 32.553 32.5126C31.2454 34.4743 29.3852 36.0042 27.2078 36.9085C25.0305 37.8128 22.6338 38.051 20.3211 37.5929C18.0084 37.1348 15.8835 36.001 14.2153 34.3349C12.5471 32.6688 11.4106 30.5454 10.9495 28.2333C10.4885 25.9211 10.7236 23.5242 11.6251 21.3457C12.5267 19.1672 14.0541 17.305 16.0142 15.9949C17.9744 14.6847 20.2791 13.9854 22.6367 13.9854C25.7945 13.9864 28.8228 15.2402 31.0571 17.4716C33.2913 19.7031 34.549 22.7298 34.554 25.8875Z" fill="url(#paint0_linear_3393_3578)" fill-opacity="0.96"/>
<g filter="url(#filter0_d_3393_3578)">
<path d="M22.6371 39.6258C30.235 39.6258 36.3943 33.475 36.3943 25.8876C36.3943 18.3002 30.235 12.1494 22.6371 12.1494C15.0392 12.1494 8.87988 18.3002 8.87988 25.8876C8.87988 33.475 15.0392 39.6258 22.6371 39.6258Z" fill="#F4DFD7"/>
</g>
<path d="M22.6363 37.1473C28.8612 37.1473 33.9074 32.1062 33.9074 25.8876C33.9074 19.6691 28.8612 14.6279 22.6363 14.6279C16.4115 14.6279 11.3652 19.6691 11.3652 25.8876C11.3652 32.1062 16.4115 37.1473 22.6363 37.1473Z" fill="white"/>
<g style="mix-blend-mode:multiply" opacity="0.3">
<path d="M17.1479 26.3171C17.0624 26.0378 16.8897 25.7933 16.655 25.6195C16.4203 25.4457 16.136 25.3518 15.844 25.3516H15.787C15.6448 25.3516 15.5085 25.408 15.408 25.5086C15.3074 25.6091 15.251 25.7454 15.251 25.8876C15.252 26.0291 15.3089 26.1644 15.4093 26.2641C15.5097 26.3638 15.6455 26.4198 15.787 26.4197H15.844C15.8828 26.4197 15.9211 26.4274 15.9569 26.4424C15.9927 26.4573 16.0251 26.4792 16.0523 26.5068C16.0796 26.5344 16.101 26.5671 16.1155 26.6031C16.13 26.639 16.1372 26.6775 16.1367 26.7163V26.8455C16.5217 26.7825 16.8763 26.5972 17.1479 26.3171Z" fill="#FC7200"/>
</g>
<g style="mix-blend-mode:multiply" opacity="0.3">
<path d="M29.487 26.4198C29.5577 26.4208 29.6279 26.4078 29.6935 26.3815C29.7592 26.3553 29.819 26.3163 29.8696 26.2668C29.9201 26.2174 29.9603 26.1584 29.988 26.0933C30.0156 26.0282 30.0301 25.9583 30.0306 25.8876C30.0306 25.7454 29.9741 25.6091 29.8736 25.5086C29.7731 25.4081 29.6367 25.3516 29.4946 25.3516H29.4414C29.1479 25.3496 28.8616 25.4425 28.6252 25.6165C28.3889 25.7905 28.2151 26.0363 28.1299 26.3171C28.4 26.5972 28.7533 26.7825 29.1372 26.8455V26.7163C29.1372 26.6773 29.1449 26.6388 29.1598 26.6028C29.1747 26.5668 29.1966 26.5342 29.2241 26.5066C29.2516 26.4791 29.2843 26.4573 29.3203 26.4423C29.3563 26.4274 29.3948 26.4198 29.4338 26.4198H29.487Z" fill="#FC7200"/>
</g>
<path d="M18.7402 29.9969C18.7397 29.9269 18.7532 29.8575 18.7797 29.7927C18.8063 29.7279 18.8455 29.669 18.895 29.6195C18.9445 29.57 19.0034 29.5308 19.0682 29.5042C19.133 29.4777 19.2024 29.4642 19.2724 29.4648H20.2722C20.3554 29.4648 20.4374 29.484 20.5119 29.5209C20.5864 29.5578 20.6514 29.6115 20.7018 29.6776L22.2489 31.4985C22.2989 31.5577 22.3612 31.6053 22.4314 31.6379C22.5017 31.6706 22.5782 31.6875 22.6557 31.6875C22.7331 31.6875 22.8097 31.6706 22.8799 31.6379C22.9502 31.6053 23.0125 31.5577 23.0624 31.4985L24.6362 29.651C24.6859 29.5914 24.7481 29.5435 24.8184 29.5106C24.8887 29.4778 24.9653 29.4608 25.0429 29.461H26.0009C26.0711 29.4604 26.1407 29.4738 26.2057 29.5004C26.2707 29.5269 26.3298 29.566 26.3797 29.6155C26.4295 29.6649 26.469 29.7238 26.496 29.7886C26.523 29.8534 26.5369 29.9229 26.5369 29.9931C26.5359 30.1346 26.479 30.27 26.3785 30.3697C26.2781 30.4694 26.1424 30.5253 26.0009 30.5253H25.5333C25.4558 30.5255 25.3792 30.5425 25.3089 30.5754C25.2387 30.6082 25.1764 30.656 25.1266 30.7154L23.07 32.9278C23.0502 32.9534 23.0272 32.9764 23.0016 32.9962C22.9479 33.0426 22.8855 33.0778 22.818 33.0998C22.7506 33.1219 22.6795 33.1303 22.6087 33.1247C22.538 33.119 22.4691 33.0994 22.4061 33.0669C22.343 33.0344 22.287 32.9897 22.2413 32.9354L20.181 30.7154C20.1311 30.656 20.0689 30.6082 19.9986 30.5754C19.9284 30.5425 19.8518 30.5255 19.7742 30.5253H19.2724C19.1313 30.5253 18.9959 30.4693 18.8961 30.3695C18.7963 30.2697 18.7402 30.1343 18.7402 29.9931V29.9969Z" fill="url(#paint1_linear_3393_3578)"/>
<path d="M25.8674 25.1729C26.0088 25.1729 26.147 25.2148 26.2645 25.2933C26.382 25.3718 26.4736 25.4834 26.5277 25.614C26.5818 25.7446 26.5959 25.8883 26.5684 26.0269C26.5408 26.1656 26.4727 26.2929 26.3728 26.3929C26.2728 26.4928 26.1455 26.5609 26.0069 26.5884C25.8682 26.616 25.7245 26.6019 25.5939 26.5478C25.4634 26.4937 25.3517 26.4021 25.2732 26.2846C25.1947 26.167 25.1528 26.0289 25.1528 25.8875C25.1528 25.698 25.2281 25.5162 25.3621 25.3822C25.4961 25.2481 25.6779 25.1729 25.8674 25.1729ZM22.6363 25.1729C22.7776 25.1729 22.9158 25.2148 23.0333 25.2933C23.1508 25.3718 23.2424 25.4834 23.2965 25.614C23.3506 25.7446 23.3648 25.8883 23.3372 26.0269C23.3096 26.1656 23.2415 26.2929 23.1416 26.3929C23.0417 26.4928 22.9143 26.5609 22.7757 26.5884C22.6371 26.616 22.4934 26.6019 22.3628 26.5478C22.2322 26.4937 22.1206 26.4021 22.042 26.2846C21.9635 26.167 21.9216 26.0289 21.9216 25.8875C21.9216 25.698 21.9969 25.5162 22.1309 25.3822C22.2649 25.2481 22.4467 25.1729 22.6363 25.1729ZM19.4051 25.1729C19.5464 25.1729 19.6846 25.2148 19.8021 25.2933C19.9197 25.3718 20.0113 25.4834 20.0653 25.614C20.1194 25.7446 20.1336 25.8883 20.106 26.0269C20.0784 26.1656 20.0104 26.2929 19.9104 26.3929C19.8105 26.4928 19.6831 26.5609 19.5445 26.5884C19.4059 26.616 19.2622 26.6019 19.1316 26.5478C19.001 26.4937 18.8894 26.4021 18.8109 26.2846C18.7323 26.167 18.6904 26.0289 18.6904 25.8875C18.6904 25.698 18.7657 25.5162 18.8997 25.3822C19.0338 25.2481 19.2155 25.1729 19.4051 25.1729Z" fill="url(#paint2_linear_3393_3578)"/>
<path d="M18.0218 21.2422H17.4858C17.1238 21.2422 16.7767 21.386 16.5208 21.6419C16.2649 21.8978 16.1211 22.2449 16.1211 22.6069V25.0892C16.1217 25.1273 16.1144 25.165 16.0997 25.2002C16.0851 25.2353 16.0633 25.2671 16.0359 25.2935C16.0084 25.3199 15.9758 25.3403 15.9401 25.3536C15.9044 25.3668 15.8664 25.3726 15.8284 25.3705H15.7713C15.6292 25.3705 15.4929 25.427 15.3923 25.5275C15.2918 25.628 15.2354 25.7643 15.2354 25.9065C15.2364 26.048 15.2933 26.1833 15.3937 26.283C15.4941 26.3827 15.6298 26.4387 15.7713 26.4387H15.8284C15.8659 26.4361 15.9035 26.4412 15.939 26.4538C15.9744 26.4664 16.0068 26.4861 16.0343 26.5118C16.0618 26.5375 16.0837 26.5685 16.0986 26.603C16.1135 26.6376 16.1212 26.6748 16.1211 26.7124V28.9932C16.1211 29.9473 16.7331 30.5556 17.4858 30.5556H17.9609C18.0861 30.558 18.2084 30.5175 18.3073 30.4407C18.4063 30.3639 18.4759 30.2555 18.5045 30.1336C18.5202 30.0556 18.5185 29.9752 18.4995 29.898C18.4804 29.8207 18.4446 29.7487 18.3944 29.6869C18.3443 29.6252 18.2812 29.5753 18.2095 29.5408C18.1379 29.5063 18.0595 29.4881 17.9799 29.4874H17.4858C17.4472 29.4879 17.4089 29.4807 17.3732 29.4661C17.3374 29.4516 17.3049 29.4301 17.2777 29.4028C17.2504 29.3755 17.2288 29.343 17.2143 29.3073C17.1998 29.2715 17.1925 29.2333 17.1931 29.1947V26.7162C17.1934 26.4158 17.0931 26.124 16.908 25.8875C17.0925 25.6506 17.1929 25.359 17.1931 25.0588V22.6069C17.1926 22.5681 17.1998 22.5297 17.2142 22.4937C17.2287 22.4577 17.2502 22.425 17.2774 22.3974C17.3047 22.3699 17.3371 22.348 17.3729 22.333C17.4086 22.3181 17.447 22.3104 17.4858 22.3104H18.0066C18.1591 22.3104 18.3055 22.25 18.4138 22.1425C18.522 22.0349 18.5834 21.889 18.5844 21.7364C18.5844 21.6053 18.5323 21.4796 18.4396 21.3869C18.3469 21.2943 18.2213 21.2422 18.0902 21.2422H18.0218Z" fill="url(#paint3_linear_3393_3578)" fill-opacity="0.96"/>
<path d="M25.8871 21.2424L27.2442 19.8891C27.2901 19.8432 27.3266 19.7887 27.3515 19.7287C27.3764 19.6686 27.3892 19.6043 27.3892 19.5393C27.3892 19.4744 27.3764 19.4101 27.3515 19.35C27.3266 19.29 27.2901 19.2355 27.2442 19.1896L27.1947 19.144C27.0999 19.0493 26.9714 18.9961 26.8374 18.9961C26.7034 18.9961 26.5749 19.0493 26.4801 19.144L24.3741 21.2424H20.9073L18.8165 19.1554C18.7182 19.0572 18.5849 19.0021 18.4459 19.0021C18.3069 19.0021 18.1736 19.0572 18.0752 19.1554L18.0486 19.182C17.9537 19.2775 17.9004 19.4066 17.9004 19.5412C17.9004 19.6759 17.9537 19.805 18.0486 19.9005L19.3867 21.2424L20.3979 22.3106H24.8759L25.8871 21.2424Z" fill="url(#paint4_linear_3393_3578)" fill-opacity="0.96"/>
<path d="M30.0306 25.8876C30.0582 25.827 30.0693 25.7603 30.063 25.6941C30.0567 25.6279 30.0331 25.5645 29.9947 25.5103C29.9562 25.456 29.9042 25.4128 29.8438 25.385C29.7834 25.3571 29.7167 25.3456 29.6505 25.3516H29.4452C29.4071 25.3548 29.3687 25.3499 29.3325 25.3374C29.2964 25.3248 29.2633 25.3048 29.2353 25.2787C29.2074 25.2525 29.1852 25.2208 29.1703 25.1856C29.1554 25.1503 29.148 25.1123 29.1487 25.0741V22.8085C29.1487 21.8581 28.5405 21.2461 27.784 21.2461H27.1302C26.992 21.25 26.8606 21.3072 26.7636 21.4056C26.6665 21.5041 26.6113 21.6362 26.6094 21.7745V21.7973C26.6104 21.9337 26.6653 22.0643 26.7621 22.1604C26.859 22.2565 26.9899 22.3105 27.1264 22.3105H27.7878C27.8664 22.3105 27.9419 22.3417 27.9975 22.3973C28.0531 22.4529 28.0843 22.5283 28.0843 22.607V25.0589C28.0851 25.3584 28.1839 25.6494 28.3656 25.8876C28.1832 26.1253 28.0843 26.4166 28.0843 26.7163V29.1682C28.0843 29.2069 28.0766 29.2453 28.0617 29.2811C28.0467 29.3168 28.0248 29.3493 27.9972 29.3765C27.9697 29.4037 27.9369 29.4252 27.901 29.4397C27.865 29.4542 27.8266 29.4614 27.7878 29.4609H27.3012C27.1753 29.4579 27.0523 29.4987 26.9531 29.5764C26.854 29.654 26.7849 29.7637 26.7576 29.8866C26.7412 29.9642 26.7423 30.0444 26.7609 30.1214C26.7794 30.1985 26.815 30.2704 26.8649 30.332C26.9148 30.3936 26.9778 30.4432 27.0494 30.4773C27.1209 30.5114 27.1992 30.5291 27.2784 30.5291H27.7726C27.9516 30.5296 28.129 30.4947 28.2946 30.4266C28.4601 30.3584 28.6106 30.2582 28.7374 30.1318C28.8641 30.0054 28.9647 29.8552 29.0333 29.6898C29.102 29.5245 29.1373 29.3472 29.1373 29.1682V26.7011C29.1372 26.6628 29.145 26.6249 29.1601 26.5898C29.1751 26.5546 29.1972 26.5229 29.225 26.4966C29.2527 26.4703 29.2856 26.4499 29.3215 26.4367C29.3574 26.4234 29.3956 26.4177 29.4338 26.4198H29.5706C29.6385 26.4234 29.7062 26.4115 29.7687 26.385C29.8312 26.3584 29.8868 26.3179 29.9312 26.2665C29.9756 26.2151 30.0076 26.1543 30.0249 26.0886C30.0421 26.0229 30.0441 25.9541 30.0306 25.8876Z" fill="url(#paint5_linear_3393_3578)" fill-opacity="0.96"/>
<path d="M60.7794 35.254C59.7318 35.2663 58.6881 35.1254 57.6812 34.8358C56.8277 34.5875 56.01 34.2298 55.2484 33.7715C54.6144 33.3908 54.0219 32.9449 53.4807 32.441C53.0716 32.0721 52.7137 31.6502 52.4163 31.1865C52.1326 30.8212 51.914 30.4097 51.7701 29.9701C51.6661 29.6224 51.7001 29.2479 51.8651 28.9247C52.0964 28.5024 52.4137 28.1334 52.7965 27.8413C53.1344 27.4896 53.5851 27.2676 54.0699 27.2141C54.4818 27.2104 54.8831 27.3442 55.2103 27.5942C55.622 27.8937 55.9871 28.2523 56.2937 28.6586C56.8197 29.4004 57.5262 29.9957 58.3465 30.3882C59.0614 30.7202 59.8391 30.8952 60.6273 30.9014C61.5044 30.9248 62.379 30.7962 63.2122 30.5213C63.8972 30.2797 64.4978 29.8454 64.9419 29.2706C65.3793 28.6781 65.6007 27.9537 65.5691 27.2179C65.5918 26.5933 65.3663 25.9851 64.9419 25.5263C64.4691 25.0434 63.9076 24.6562 63.2883 24.3859C62.5417 24.0443 61.7734 23.7522 60.9884 23.5115C60.1369 23.2454 59.2816 22.9477 58.4225 22.6182C57.8002 22.4072 57.191 22.1597 56.5978 21.8769C56.0041 21.5941 55.4378 21.2569 54.9062 20.8696C54.3864 20.4892 53.9254 20.0345 53.5377 19.5201C53.13 18.9736 52.8153 18.3635 52.6064 17.7144C52.3649 16.9396 52.2494 16.131 52.2643 15.3196C52.2371 13.9693 52.6072 12.6408 53.3287 11.4992C54.0621 10.3732 55.0867 9.46686 56.2937 8.87623C57.6401 8.21154 59.1261 7.87914 60.6273 7.90688C61.5664 7.89654 62.5037 7.99218 63.4213 8.19198C64.1559 8.35153 64.8701 8.59383 65.5501 8.91424C66.0697 9.16024 66.5659 9.45288 67.0326 9.78856C67.3424 10.0056 67.6291 10.254 67.8879 10.5298C68.4683 11.1127 68.7914 11.6005 68.8573 11.9934C68.9181 12.3735 68.6862 12.9095 68.154 13.5709C67.6218 14.2324 67.1087 14.6277 66.6335 14.6923C66.0267 14.7178 65.4338 14.5065 64.9799 14.1031C64.6164 13.7086 64.2082 13.3577 63.7634 13.0577C63.3495 12.7876 62.8934 12.5885 62.414 12.4685C61.8224 12.3299 61.2158 12.2661 60.6083 12.2785C60.1128 12.2759 59.6197 12.3463 59.1448 12.4875C58.7087 12.6075 58.3014 12.8144 57.9473 13.0958C57.627 13.3603 57.3676 13.691 57.1871 14.0651C56.9918 14.4676 56.8941 14.9103 56.902 15.3576C56.8582 15.9443 57.0359 16.5261 57.3999 16.9884C57.8207 17.4434 58.3411 17.7947 58.9205 18.0147C59.6147 18.3093 60.3255 18.5632 61.0493 18.775C61.8323 19.0031 62.6306 19.2439 63.4441 19.4973C64.2863 19.7783 65.1114 20.1083 65.915 20.4856C66.7034 20.8517 67.4335 21.3321 68.0818 21.9112C68.7327 22.5059 69.2509 23.2313 69.6024 24.0399C70.0081 25.0211 70.2024 26.0767 70.1726 27.1381C70.2022 28.4008 69.9285 29.6523 69.3743 30.7874C68.8665 31.7977 68.1234 32.6712 67.2075 33.3343C66.2874 33.9966 65.258 34.492 64.1664 34.7978C63.0639 35.1057 61.924 35.2592 60.7794 35.254Z" fill="#080828"/>
<path d="M88.9516 34.8364C88.3756 34.8803 87.8012 34.7333 87.317 34.4182C87.1437 34.2844 87.005 34.111 86.9124 33.9126C86.8199 33.7143 86.7761 33.4966 86.7848 33.2778L87.0509 32.0234C86.7584 32.4511 86.4136 32.8406 86.0245 33.1828C85.4602 33.6777 84.818 34.0759 84.1238 34.3612C83.2186 34.7255 82.2482 34.9002 81.2728 34.8744C80.1101 34.8813 78.9607 34.628 77.9086 34.1331C76.8568 33.6394 75.9135 32.9416 75.1336 32.0804C74.3293 31.1982 73.6859 30.1818 73.2329 29.0773C72.7584 27.9263 72.5192 26.6919 72.5296 25.447C72.5214 24.2392 72.7607 23.0425 73.2329 21.9307C73.6905 20.8413 74.3408 19.8433 75.1526 18.9847C75.9402 18.1369 76.882 17.4467 77.9276 16.9509C78.9657 16.4525 80.1022 16.1927 81.2538 16.1906C82.159 16.164 83.0613 16.3058 83.9147 16.6088C84.5815 16.8559 85.204 17.2089 85.7584 17.6542C86.23 18.0368 86.6515 18.4775 87.0129 18.9656L86.7848 17.8632C86.7683 17.6242 86.8078 17.3846 86.9002 17.1635C86.9926 16.9425 87.1353 16.746 87.317 16.5898C87.8086 16.2581 88.3986 16.1039 88.9896 16.1526C89.5171 16.1093 90.0458 16.2217 90.5101 16.4757C90.8083 16.6804 91.0133 16.9947 91.0803 17.3501C91.1601 17.757 91.1983 18.1709 91.1944 18.5855V32.4985C91.1979 32.8943 91.1596 33.2893 91.0803 33.677C91.0442 33.8491 90.9733 34.0121 90.872 34.1559C90.7707 34.2997 90.6411 34.4213 90.4911 34.5133C90.0161 34.7567 89.4844 34.8683 88.9516 34.8364ZM81.9532 30.4116C82.7721 30.4227 83.577 30.1984 84.2721 29.7654C84.9574 29.3289 85.521 28.726 85.9105 28.0129C86.3284 27.2325 86.5471 26.3608 86.5471 25.4755C86.5471 24.5902 86.3284 23.7186 85.9105 22.9381C85.5016 22.228 84.9197 21.633 84.2189 21.2085C83.5121 20.7884 82.7031 20.5713 81.881 20.5812C81.0183 20.5659 80.1678 20.786 79.421 21.2181C78.6741 21.6501 78.0592 22.2776 77.6425 23.0331C77.2172 23.8069 77.001 24.6782 77.0152 25.561C77.0021 26.4162 77.2192 27.2592 77.6439 28.0016C78.0686 28.744 78.6852 29.3585 79.4291 29.7806C80.1996 30.2112 81.0708 30.429 81.9532 30.4116Z" fill="#080828"/>
<path d="M104.036 34.973C102.824 34.9735 101.621 34.7612 100.482 34.3458C99.3375 33.9316 98.2815 33.3062 97.3683 32.5021C96.4294 31.6748 95.6766 30.6577 95.1597 29.518C94.5983 28.2567 94.3193 26.888 94.3424 25.5076C94.3173 24.1331 94.5964 22.7701 95.1597 21.5161C95.6769 20.3882 96.421 19.3788 97.3455 18.551C98.2474 17.7445 99.2915 17.1128 100.425 16.6884C101.554 16.2587 102.752 16.0397 103.96 16.0421C104.818 16.0371 105.672 16.1654 106.492 16.4223C107.216 16.6436 107.911 16.9498 108.563 17.3346C109.048 17.6028 109.474 17.9646 109.818 18.399C110.115 18.6718 110.395 18.9638 110.654 19.2733C110.767 19.4159 110.846 19.5826 110.885 19.7605C110.924 19.9384 110.922 20.1228 110.878 20.2997C110.803 20.5508 110.687 20.7882 110.536 21.0029C110.367 21.2417 110.176 21.4644 109.966 21.6682C109.358 22.3524 108.765 22.6033 108.183 22.4284C107.854 22.2511 107.523 22.061 107.191 21.8582C106.864 21.653 106.526 21.4781 106.187 21.269C105.852 21.0827 105.503 20.9238 105.142 20.7939C104.762 20.6638 104.362 20.5995 103.96 20.6038C103.065 20.5873 102.181 20.8034 101.394 21.231C100.662 21.633 100.057 22.2322 99.6491 22.9606C99.2164 23.7386 98.9986 24.6176 99.0181 25.5076C99.001 26.4033 99.2186 27.2879 99.6491 28.0735C100.051 28.8055 100.648 29.4111 101.375 29.8221C102.142 30.2478 103.007 30.4642 103.884 30.4494C104.327 30.4514 104.768 30.3938 105.195 30.2783C105.588 30.1762 105.965 30.0228 106.317 29.8221C106.607 29.6614 106.876 29.4634 107.115 29.2329C107.396 29.0543 107.647 28.8908 107.875 28.7387C108.088 28.5925 108.339 28.5131 108.598 28.5107C108.923 28.5169 109.237 28.6305 109.491 28.8338C109.858 29.1259 110.185 29.4645 110.464 29.8411C110.754 30.1448 110.945 30.5292 111.011 30.9435C111.051 31.3014 110.97 31.6622 110.783 31.9699C110.55 32.3436 110.23 32.6563 109.852 32.8822C109.451 33.2631 108.996 33.5833 108.503 33.8326C107.848 34.1736 107.16 34.4474 106.45 34.6499C105.665 34.8735 104.852 34.9823 104.036 34.973Z" fill="#080828"/>
<path d="M116.504 34.9115C115.977 34.9522 115.449 34.84 114.984 34.5884C114.692 34.3874 114.49 34.0806 114.421 33.7331C114.342 33.3453 114.304 32.9504 114.307 32.5547V18.4516C114.302 18.0495 114.34 17.648 114.421 17.2541C114.458 17.087 114.529 16.9295 114.63 16.792C114.732 16.6544 114.861 16.5398 115.01 16.4558C115.491 16.2322 116.021 16.1341 116.55 16.1707C117.065 16.1367 117.58 16.228 118.051 16.4368C118.333 16.5712 118.551 16.8098 118.66 17.1021C118.745 17.3466 118.79 17.6034 118.793 17.8623L118.489 18.5466C118.618 18.3413 118.793 18.098 119.021 17.7863C119.617 17.0514 120.407 16.4983 121.302 16.1897C121.914 15.9872 122.557 15.8908 123.202 15.9046C123.528 15.906 123.852 15.9379 124.172 15.9997C124.52 16.0633 124.863 16.1522 125.198 16.2658C125.524 16.3797 125.834 16.5343 126.122 16.7257C126.383 16.882 126.604 17.0967 126.768 17.353C126.921 17.5976 127.001 17.8815 126.996 18.1702C127.02 18.9022 126.807 19.6223 126.388 20.223C126.235 20.4711 126.023 20.6773 125.771 20.8233C125.519 20.9692 125.235 21.0503 124.943 21.0593C124.66 21.0736 124.376 21.035 124.107 20.9453C123.949 20.879 123.801 20.7893 123.67 20.6792C123.524 20.5592 123.356 20.4689 123.176 20.4131C122.848 20.3226 122.508 20.2841 122.168 20.299C121.774 20.3002 121.383 20.3644 121.009 20.4891C120.617 20.6146 120.251 20.8075 119.926 21.0593C119.591 21.3193 119.318 21.6504 119.127 22.0286C118.919 22.4474 118.814 22.9104 118.823 23.3781V32.6155C118.826 32.9986 118.788 33.3809 118.709 33.7559C118.671 33.9271 118.596 34.0883 118.492 34.2291C118.387 34.3699 118.254 34.4871 118.101 34.5732C117.607 34.8235 117.057 34.9402 116.504 34.9115Z" fill="#080828"/>
<path d="M145.623 34.8357C145.047 34.8773 144.474 34.7305 143.988 34.4175C143.816 34.283 143.678 34.1096 143.585 33.9113C143.493 33.7131 143.448 33.4957 143.456 33.2771L143.722 32.0226C143.432 32.4522 143.087 32.842 142.696 33.1821C142.133 33.6786 141.49 34.077 140.795 34.3605C139.89 34.7255 138.92 34.9002 137.944 34.8737C136.778 34.8815 135.624 34.6282 134.569 34.1324C133.517 33.6377 132.574 32.9401 131.794 32.0797C130.991 31.1965 130.347 30.1803 129.893 29.0766C129.42 27.9251 129.181 26.691 129.19 25.4463C129.183 24.2386 129.423 23.0423 129.893 21.93C130.348 20.8435 130.991 19.8461 131.794 18.9839C132.588 18.1355 133.536 17.4454 134.588 16.9502C135.626 16.4525 136.762 16.1927 137.914 16.1899C138.813 16.1653 139.708 16.307 140.556 16.6081C141.223 16.8544 141.846 17.2074 142.399 17.6534C142.873 18.034 143.295 18.4749 143.654 18.9649L143.426 17.8625C143.41 17.6236 143.45 17.3843 143.542 17.1633C143.635 16.9424 143.777 16.7458 143.958 16.5891C144.45 16.2577 145.04 16.1035 145.631 16.1519C146.158 16.1079 146.687 16.2203 147.151 16.475C147.449 16.6797 147.654 16.994 147.721 17.3493C147.801 17.7562 147.839 18.1702 147.835 18.5848V32.4978C147.839 32.8935 147.801 33.2885 147.721 33.6762C147.686 33.8486 147.615 34.0119 147.514 34.1558C147.413 34.2997 147.283 34.4211 147.132 34.5126C146.666 34.7516 146.146 34.8631 145.623 34.8357ZM138.628 30.4109C139.447 30.4224 140.252 30.198 140.947 29.7646C141.64 29.3259 142.209 28.7175 142.601 27.997C143.016 27.215 143.231 26.3425 143.228 25.4572C143.225 24.5719 143.003 23.7011 142.582 22.9221C142.175 22.2105 141.593 21.6149 140.89 21.1925C140.184 20.7715 139.375 20.5544 138.552 20.5653C137.69 20.5499 136.839 20.7701 136.092 21.2021C135.346 21.6342 134.731 22.2617 134.314 23.0172C133.889 23.791 133.672 24.6623 133.687 25.5451C133.67 26.4017 133.884 27.2471 134.307 27.9923C134.729 28.7375 135.345 29.355 136.089 29.7798C136.865 30.2121 137.741 30.4299 138.628 30.4109Z" fill="#080828"/>
<path d="M158.206 34.9117C157.372 34.9193 156.539 34.8557 155.716 34.7216C155.062 34.6173 154.431 34.3986 153.853 34.0754C153.335 33.773 152.898 33.3489 152.58 32.8399C152.223 32.2547 151.972 31.6113 151.838 30.9392C151.661 30.038 151.578 29.1207 151.591 28.2022V9.86058C151.587 9.47006 151.632 9.08055 151.724 8.70116C151.814 8.35576 152.032 8.05712 152.332 7.86485C152.799 7.61548 153.326 7.50344 153.853 7.54174C154.384 7.50108 154.917 7.60623 155.393 7.84585C155.695 8.02804 155.913 8.32153 156.001 8.66314C156.093 9.04254 156.138 9.43205 156.134 9.82256V27.9932C156.126 28.3944 156.158 28.7955 156.229 29.1906C156.276 29.469 156.394 29.7307 156.571 29.9509C156.744 30.1383 156.969 30.2705 157.217 30.331C157.534 30.4132 157.86 30.4516 158.187 30.445C158.488 30.4413 158.789 30.4797 159.08 30.5591C159.221 30.6044 159.351 30.6785 159.463 30.7766C159.574 30.8748 159.664 30.9948 159.726 31.1293C159.921 31.598 160.006 32.1052 159.973 32.6118C160.004 33.1431 159.92 33.6747 159.726 34.1704C159.666 34.3139 159.575 34.4425 159.46 34.5475C159.345 34.6525 159.209 34.7314 159.061 34.7786C158.783 34.8603 158.495 34.905 158.206 34.9117Z" fill="#080828"/>
<path d="M56.3052 43.1075C56.3659 43.1011 56.427 43.1011 56.4877 43.1075C56.541 43.1245 56.5858 43.1612 56.6131 43.2101C56.6508 43.2868 56.6679 43.372 56.6625 43.4572C56.6672 43.5437 56.6502 43.6299 56.6131 43.7081C56.5998 43.7324 56.5813 43.7535 56.559 43.7699C56.5367 43.7863 56.511 43.7977 56.4839 43.8031C56.4219 43.8093 56.3595 43.8093 56.2976 43.8031H55.0393V47.4487C55.0403 47.519 55.0327 47.5892 55.0165 47.6577C54.9987 47.7187 54.9596 47.7713 54.9063 47.806C54.8173 47.8475 54.7192 47.8658 54.6212 47.8592C54.5265 47.8653 54.4319 47.8456 54.3475 47.8022C54.32 47.7854 54.296 47.7633 54.2771 47.7372C54.2582 47.7111 54.2446 47.6815 54.2373 47.6501C54.2245 47.5812 54.2181 47.5112 54.2183 47.4411V43.8031H52.9448C52.8845 43.8035 52.8244 43.7959 52.7661 43.7803C52.7112 43.7669 52.6636 43.7329 52.6331 43.6853C52.5935 43.6093 52.5764 43.5236 52.5837 43.4382C52.5775 43.3533 52.5932 43.2682 52.6293 43.1911C52.6583 43.1407 52.7062 43.1038 52.7623 43.0885C52.823 43.0825 52.8841 43.0825 52.9448 43.0885L56.3052 43.1075Z" fill="#6E6791"/>
<path d="M57.9666 47.8971C57.8731 47.9037 57.7796 47.8839 57.6967 47.8401C57.642 47.8043 57.6038 47.7482 57.5903 47.6842C57.5776 47.614 57.5713 47.5427 57.5713 47.4714V44.9358C57.5709 44.8632 57.5773 44.7906 57.5903 44.7192C57.5974 44.6891 57.6104 44.6609 57.6287 44.636C57.647 44.6112 57.6702 44.5903 57.6967 44.5747C57.7836 44.535 57.8791 44.5179 57.9742 44.5253C58.0665 44.5197 58.1589 44.5353 58.2441 44.5709C58.2949 44.5961 58.3343 44.6395 58.3544 44.6926C58.3694 44.7379 58.3771 44.7854 58.3772 44.8332L58.324 44.9548C58.3468 44.9206 58.3772 44.875 58.419 44.8218C58.4659 44.7624 58.5209 44.71 58.5825 44.6659C58.6573 44.6089 58.7407 44.564 58.8296 44.5329C58.9399 44.497 59.0557 44.4803 59.1717 44.4835C59.2299 44.4782 59.2884 44.4782 59.3465 44.4835C59.4074 44.4835 59.4682 44.5139 59.5328 44.5329C59.592 44.5517 59.6482 44.5786 59.7001 44.6127C59.746 44.6404 59.7849 44.6781 59.8141 44.723C59.841 44.7678 59.8555 44.819 59.8559 44.8712C59.8626 45.0067 59.8238 45.1405 59.7457 45.2514C59.7189 45.2964 59.6811 45.3339 59.6359 45.3605C59.5908 45.3871 59.5396 45.4018 59.4872 45.4034C59.4355 45.4062 59.3837 45.3985 59.3351 45.3806C59.3069 45.3709 59.281 45.3554 59.2591 45.335C59.2314 45.3139 59.2007 45.2972 59.1679 45.2856C59.1073 45.2774 59.046 45.2774 58.9854 45.2856C58.9156 45.2858 58.8463 45.2974 58.7801 45.3198C58.7089 45.3424 58.642 45.3771 58.5825 45.4224C58.5186 45.4714 58.4674 45.5348 58.433 45.6076C58.3986 45.6803 58.3821 45.7602 58.3848 45.8406V47.5018C58.3849 47.5719 58.3785 47.6419 58.3658 47.7108C58.3492 47.7725 58.3098 47.8255 58.2556 47.8591C58.1638 47.895 58.0646 47.908 57.9666 47.8971Z" fill="#6E6791"/>
<path d="M62.1408 47.8979C61.9428 47.8991 61.7465 47.8617 61.5629 47.7877C61.3884 47.7121 61.2317 47.6008 61.103 47.4608C60.9674 47.3147 60.8627 47.1427 60.7951 46.9552C60.7185 46.7472 60.6811 46.5268 60.6848 46.3051V44.9443C60.6847 44.8741 60.6911 44.8041 60.7038 44.7352C60.7113 44.7043 60.7249 44.6753 60.7438 44.6498C60.7628 44.6243 60.7867 44.6029 60.8141 44.5869C60.8995 44.5468 60.9935 44.5285 61.0878 44.5337C61.1858 44.5271 61.2839 44.5454 61.3729 44.5869C61.3998 44.6039 61.4231 44.6261 61.4414 44.6522C61.4597 44.6783 61.4726 44.7078 61.4793 44.739C61.4918 44.808 61.4982 44.8779 61.4983 44.9481V46.3051C61.4932 46.4508 61.5232 46.5955 61.5857 46.7271C61.6371 46.8431 61.7235 46.9401 61.8328 47.0046C61.9554 47.0743 62.0949 47.1085 62.2358 47.1034C62.3828 47.1096 62.5288 47.0755 62.6577 47.0046C62.7728 46.9404 62.8666 46.8439 62.9276 46.7271C62.9937 46.5965 63.0263 46.4515 63.0227 46.3051V44.9367C63.0217 44.8663 63.0293 44.7961 63.0455 44.7276C63.0518 44.6968 63.065 44.6678 63.0841 44.6427C63.1032 44.6177 63.1277 44.5974 63.1557 44.5831C63.2427 44.5438 63.338 44.5269 63.4332 44.5337C63.5276 44.5268 63.622 44.5452 63.7069 44.5869C63.7339 44.6039 63.7572 44.6261 63.7755 44.6522C63.7937 44.6783 63.8066 44.7078 63.8134 44.739C63.8304 44.8061 63.8393 44.875 63.84 44.9443V47.5178C63.8392 47.582 63.8302 47.6459 63.8134 47.7079C63.7983 47.7682 63.7601 47.8201 63.7069 47.8523C63.6202 47.8927 63.5249 47.911 63.4294 47.9055C63.3559 47.9095 63.2823 47.8991 63.2127 47.8751C63.1666 47.8604 63.1256 47.8327 63.0949 47.7953C63.0734 47.7628 63.058 47.7268 63.0493 47.6888C63.0455 47.6522 63.0455 47.6153 63.0493 47.5786L63.1025 47.3923C63.0663 47.4452 63.0256 47.4948 62.9809 47.5406C62.9195 47.6041 62.852 47.6614 62.7794 47.7117C62.5964 47.8417 62.3766 47.9097 62.1522 47.9055L62.1408 47.8979Z" fill="#6E6791"/>
<path d="M66.0297 47.939C65.902 47.9395 65.7746 47.9267 65.6496 47.901C65.5197 47.8762 65.3924 47.8393 65.2694 47.7908C65.155 47.7501 65.0474 47.6924 64.9501 47.6197C64.8716 47.5667 64.8128 47.4892 64.7829 47.3992C64.7703 47.3558 64.7703 47.3096 64.7829 47.2662C64.7868 47.2186 64.7997 47.1722 64.8209 47.1293C64.8472 47.0749 64.8818 47.0249 64.9235 46.9811C64.9547 46.9374 65.0006 46.9064 65.0528 46.8937C65.1118 46.8921 65.17 46.908 65.22 46.9393C65.2865 46.9656 65.3512 46.9961 65.4139 47.0305L65.6344 47.1369C65.7087 47.1745 65.7863 47.2051 65.8663 47.2282C65.9429 47.2504 66.0222 47.2619 66.1019 47.2624C66.2415 47.2683 66.3803 47.2382 66.5049 47.175C66.5511 47.1536 66.5901 47.1191 66.6171 47.0759C66.6441 47.0327 66.658 46.9826 66.6569 46.9317C66.658 46.8757 66.6407 46.8209 66.6075 46.7758C66.5748 46.7288 66.5319 46.6899 66.4821 46.6618C66.423 46.6286 66.3606 46.6018 66.2958 46.5819C66.2227 46.5541 66.1478 46.5312 66.0715 46.5135L65.8206 46.4413C65.7066 46.4071 65.5926 46.3691 65.4785 46.3234C65.3682 46.2805 65.2656 46.2202 65.1744 46.1448C65.0843 46.0693 65.0106 45.9761 64.9577 45.8711C64.9007 45.7419 64.8734 45.6016 64.8779 45.4605C64.8717 45.2757 64.9236 45.0936 65.0262 44.9397C65.1318 44.7885 65.28 44.6721 65.4519 44.6052C65.668 44.5241 65.8978 44.4854 66.1286 44.4912C66.2171 44.4834 66.3061 44.4834 66.3946 44.4912C66.4783 44.4912 66.5581 44.5254 66.6379 44.5482C66.7186 44.5743 66.7974 44.606 66.8736 44.6432C66.9474 44.6786 67.0186 44.7193 67.0865 44.7649C67.2005 44.8295 67.2614 44.9017 67.2652 44.9892C67.2644 45.0872 67.2309 45.1822 67.1701 45.2591C67.1285 45.3128 67.0768 45.358 67.0181 45.3921C66.9936 45.4034 66.9671 45.4092 66.9401 45.4092C66.9132 45.4092 66.8867 45.4034 66.8622 45.3921L66.6265 45.2705C66.5412 45.2279 66.4536 45.1898 66.3642 45.1564C66.275 45.1256 66.1812 45.1102 66.0867 45.1108C66.0037 45.1082 65.9209 45.1224 65.8435 45.1526C65.7776 45.1731 65.7193 45.2128 65.6762 45.2667C65.6406 45.3194 65.6221 45.3817 65.623 45.4453C65.6207 45.5021 65.6397 45.5577 65.6762 45.6012C65.7179 45.6446 65.7668 45.6806 65.8206 45.7076C65.8893 45.7372 65.9605 45.7601 66.0335 45.776L66.292 45.8369C66.4203 45.8648 66.5472 45.899 66.6721 45.9395C66.807 45.9763 66.9353 46.034 67.0523 46.1106C67.1653 46.1825 67.2581 46.2819 67.3222 46.3995C67.3959 46.544 67.4312 46.705 67.4248 46.867C67.4279 47.0151 67.3949 47.1617 67.3287 47.2942C67.2625 47.4266 67.165 47.541 67.0447 47.6273C66.7499 47.8402 66.3931 47.9498 66.0297 47.939Z" fill="#6E6791"/>
<path d="M68.4619 44.5941H69.1841L70.1269 44.5675C70.1975 44.5657 70.268 44.5747 70.3359 44.5941C70.3973 44.609 70.4505 44.6472 70.4842 44.7005C70.5251 44.7871 70.5434 44.8825 70.5374 44.978C70.5428 45.0698 70.5245 45.1615 70.4842 45.2441C70.469 45.2719 70.4484 45.2962 70.4236 45.3158C70.3987 45.3354 70.3702 45.3498 70.3397 45.3582C70.2725 45.3741 70.2036 45.3818 70.1345 45.381H69.2183H68.4581C68.4139 45.3834 68.3697 45.3758 68.3289 45.3586C68.288 45.3415 68.2516 45.3154 68.2224 45.2822C68.1724 45.1876 68.15 45.0809 68.1578 44.9742C68.1495 44.8715 68.1778 44.7692 68.2376 44.6853C68.2664 44.6552 68.3013 44.6315 68.34 44.6158C68.3786 44.6001 68.4202 44.5927 68.4619 44.5941ZM70.0014 47.8975C69.8079 47.901 69.6147 47.878 69.4274 47.8291C69.2853 47.79 69.1548 47.7169 69.0473 47.6162C68.9404 47.5114 68.863 47.3803 68.823 47.2361C68.7728 47.0593 68.7484 46.8762 68.7508 46.6925V43.792C68.7488 43.7201 68.7577 43.6483 68.7774 43.5791C68.7849 43.5498 68.7982 43.5222 68.8165 43.4981C68.8347 43.474 68.8576 43.4537 68.8838 43.4385C68.9682 43.3995 69.061 43.3825 69.1537 43.3891C69.2493 43.3826 69.3449 43.4009 69.4312 43.4423C69.4855 43.4759 69.5249 43.5289 69.5415 43.5905C69.5572 43.6565 69.5649 43.7242 69.5643 43.792V46.6659C69.5636 46.7439 69.5725 46.8218 69.5909 46.8977C69.6017 46.9489 69.6283 46.9954 69.6669 47.0308C69.7063 47.0629 69.7535 47.0839 69.8038 47.0916C69.872 47.0983 69.9408 47.0983 70.009 47.0916C70.0836 47.0848 70.1587 47.0848 70.2333 47.0916C70.291 47.1057 70.3412 47.141 70.374 47.1904C70.4098 47.2717 70.4254 47.3604 70.4196 47.4489C70.4266 47.5449 70.4068 47.641 70.3626 47.7264C70.3288 47.7798 70.2757 47.818 70.2143 47.8329C70.1456 47.8613 70.0743 47.8829 70.0014 47.8975Z" fill="#6E6791"/>
<path d="M73.009 47.9397C72.7421 47.9446 72.4771 47.8954 72.2297 47.7953C72.0209 47.7095 71.8329 47.5798 71.6785 47.4151C71.531 47.2508 71.4162 47.0599 71.3402 46.8525C71.2674 46.6449 71.2301 46.4264 71.2299 46.2063C71.2228 45.8998 71.3004 45.5972 71.4542 45.332C71.6034 45.0764 71.8205 44.8672 72.0815 44.7276C72.3646 44.5777 72.6811 44.5019 73.0014 44.5071C73.2237 44.5038 73.4445 44.5438 73.6514 44.6249C73.8261 44.694 73.9851 44.7974 74.119 44.929C74.2399 45.0483 74.3378 45.1887 74.4079 45.3434C74.47 45.4809 74.5036 45.6297 74.5067 45.7805C74.5158 45.8759 74.5049 45.9721 74.4748 46.0631C74.4447 46.1541 74.396 46.2378 74.3319 46.3089C74.2146 46.4184 74.0589 46.4772 73.8985 46.4724H72.0891C72.0917 46.6196 72.1439 46.7615 72.2373 46.8753C72.3341 46.9906 72.4565 47.0817 72.5946 47.1414C72.7339 47.2015 72.8839 47.2325 73.0356 47.2327C73.1369 47.2392 73.2384 47.2392 73.3397 47.2327C73.4167 47.2193 73.4928 47.2015 73.5678 47.1795C73.6253 47.1628 73.6813 47.1412 73.7351 47.1148L73.8681 47.054C73.9053 47.0363 73.9451 47.0247 73.9859 47.0198C74.039 47.015 74.0921 47.027 74.138 47.054C74.1933 47.0857 74.2362 47.1353 74.2596 47.1947C74.2836 47.2354 74.3027 47.2788 74.3167 47.3239C74.3284 47.3595 74.3348 47.3967 74.3357 47.4341C74.3306 47.487 74.3132 47.538 74.2848 47.5829C74.2564 47.6278 74.2178 47.6654 74.1722 47.6926C74.0305 47.7853 73.8735 47.8523 73.7084 47.8903C73.4784 47.9368 73.2433 47.9534 73.009 47.9397ZM72.0891 45.9744H73.4918C73.5537 45.979 73.6157 45.9658 73.6704 45.9364C73.7122 45.9136 73.7313 45.8604 73.7313 45.7767C73.7324 45.6738 73.6989 45.5734 73.6362 45.4916C73.5681 45.405 73.4792 45.337 73.3777 45.294C73.2569 45.2455 73.1278 45.2209 72.9976 45.2217C72.8388 45.2202 72.6817 45.254 72.5376 45.3206C72.4088 45.3817 72.2976 45.4745 72.2145 45.5905C72.1334 45.7021 72.0896 45.8364 72.0891 45.9744Z" fill="#6E6791"/>
<path d="M76.8597 47.8971C76.6537 47.8983 76.45 47.8542 76.2629 47.7679C76.0777 47.6819 75.9111 47.5605 75.7725 47.4106C75.628 47.2519 75.5146 47.0675 75.438 46.867C75.3534 46.6555 75.3108 46.4295 75.3126 46.2017C75.3135 45.7635 75.479 45.3415 75.7763 45.0195C75.9163 44.8695 76.0841 44.7481 76.2705 44.6622C76.4549 44.5759 76.6562 44.5318 76.8597 44.5329C77.0636 44.5289 77.2655 44.5732 77.4489 44.6622C77.6198 44.7483 77.7702 44.8701 77.8899 45.0195C78.0142 45.1798 78.1082 45.3614 78.1674 45.5555C78.2332 45.7673 78.2678 45.9876 78.27 46.2093C78.2721 46.4309 78.24 46.6514 78.175 46.8632C78.1179 47.0573 78.0251 47.2391 77.9013 47.3992C77.7859 47.56 77.6333 47.6904 77.4565 47.7793C77.2701 47.8665 77.0653 47.907 76.8597 47.8971ZM76.97 47.0989C77.1197 47.1013 77.2672 47.0618 77.3957 46.9848C77.522 46.9098 77.6257 46.8021 77.696 46.6731C77.7736 46.5351 77.813 46.379 77.8101 46.2207C77.8129 46.0613 77.7736 45.9039 77.696 45.7646C77.6258 45.6345 77.5222 45.5256 77.3957 45.4491C77.2675 45.3709 77.1201 45.3301 76.97 45.3312C76.8195 45.3283 76.6711 45.3669 76.541 45.4426C76.411 45.5184 76.3042 45.6285 76.2325 45.7608C76.1579 45.9025 76.12 46.0606 76.1222 46.2207C76.1199 46.3784 76.1579 46.5341 76.2325 46.6731C76.3063 46.8033 76.4136 46.9115 76.5433 46.9863C76.6729 47.0612 76.8202 47.1 76.97 47.0989ZM78.2358 47.8971C78.1376 47.9058 78.0391 47.8832 77.9545 47.8325C77.8892 47.7811 77.8469 47.7059 77.8367 47.6234V43.4039C77.8366 43.3338 77.8429 43.2638 77.8557 43.1948C77.8611 43.1637 77.873 43.134 77.8907 43.1078C77.9084 43.0816 77.9315 43.0595 77.9583 43.0428C78.0412 42.9989 78.1347 42.9792 78.2282 42.9858C78.325 42.979 78.4219 42.9973 78.5095 43.039C78.5607 43.075 78.5982 43.1272 78.6159 43.1872C78.6321 43.2557 78.6397 43.326 78.6388 43.3963V47.4714C78.6388 47.5428 78.6324 47.614 78.6198 47.6843C78.613 47.7154 78.6001 47.7449 78.5819 47.771C78.5636 47.7971 78.5403 47.8193 78.5133 47.8363C78.4275 47.8798 78.332 47.9008 78.2358 47.8971Z" fill="#6E6791"/>
<path d="M86.0631 47.3159C86.1029 47.3861 86.1275 47.4638 86.1354 47.544C86.1394 47.6063 86.1189 47.6677 86.0783 47.7151C86.0198 47.7769 85.9502 47.8272 85.8731 47.8633C85.8232 47.8947 85.7676 47.9156 85.7094 47.9248C85.6512 47.9339 85.5918 47.9311 85.5347 47.9166C85.4293 47.8591 85.3492 47.7641 85.3105 47.6505L83.7899 44.4307L82.2694 47.6505C82.2284 47.7609 82.1487 47.8528 82.0451 47.909C81.9284 47.9349 81.8062 47.9159 81.703 47.8557C81.6263 47.8225 81.5576 47.7733 81.5015 47.7113C81.4792 47.6877 81.4625 47.6594 81.4526 47.6284C81.4428 47.5975 81.44 47.5648 81.4445 47.5326C81.4573 47.4418 81.4869 47.3541 81.5319 47.2741L83.4136 43.3549C83.4468 43.2811 83.5028 43.2198 83.5732 43.18C83.6396 43.1391 83.7157 43.1167 83.7937 43.1154C83.8457 43.1138 83.8974 43.1229 83.9458 43.142C83.9927 43.1613 84.0354 43.1897 84.0712 43.2257C84.114 43.2633 84.1478 43.3101 84.17 43.3625L86.0631 47.3159ZM82.5659 46.6507L82.8966 45.9474H84.6794L85.0102 46.6507H82.5659Z" fill="#6E6791"/>
<path d="M87.3093 47.8977C87.2121 47.905 87.1147 47.8852 87.028 47.8407C86.9999 47.8236 86.9757 47.801 86.9567 47.7742C86.9377 47.7474 86.9245 47.7169 86.9178 47.6848C86.9032 47.6148 86.8968 47.5434 86.8988 47.4719V43.5261C86.8984 43.457 86.9061 43.3881 86.9216 43.3208C86.9369 43.2576 86.9765 43.203 87.0318 43.1688C87.1196 43.1275 87.2164 43.1092 87.3131 43.1155C87.4087 43.109 87.5043 43.1274 87.5906 43.1688C87.6459 43.203 87.6856 43.2576 87.7009 43.3208C87.7168 43.3906 87.7244 43.4621 87.7237 43.5337V47.4795C87.7247 47.5499 87.717 47.6201 87.7009 47.6886C87.6843 47.7523 87.6433 47.8069 87.5868 47.8407C87.5014 47.8849 87.4053 47.9047 87.3093 47.8977Z" fill="#6E6791"/>
<path d="M92.3997 47.8978C92.3227 47.9005 92.2465 47.8821 92.1792 47.8446C92.1302 47.8164 92.0895 47.7758 92.0614 47.7268C92.0402 47.6891 92.0223 47.6497 92.0081 47.6089L90.6663 43.6821C90.6295 43.5749 90.6295 43.4585 90.6663 43.3514C90.6967 43.2753 90.7917 43.2107 90.9476 43.1613C91.0271 43.1285 91.1124 43.1117 91.1985 43.1119C91.2606 43.1185 91.3185 43.1467 91.3619 43.1917C91.4136 43.2582 91.4511 43.3345 91.4722 43.416L92.4605 46.4001L93.3424 43.4426C93.3555 43.3935 93.3746 43.3463 93.3995 43.302C93.4269 43.2511 93.4694 43.21 93.5211 43.1841C93.5898 43.147 93.6675 43.1299 93.7454 43.1347C93.831 43.13 93.9164 43.1484 93.9925 43.1879C94.0409 43.2184 94.0813 43.2602 94.1103 43.3096C94.1329 43.3465 94.1508 43.386 94.1635 43.4274L95.0454 46.4191L96.0376 43.4236C96.0575 43.3375 96.0964 43.2569 96.1517 43.1879C96.1943 43.1392 96.2544 43.1092 96.3189 43.1043C96.4046 43.0999 96.4902 43.1142 96.5698 43.1461C96.6528 43.1719 96.7302 43.2132 96.7979 43.2677C96.8202 43.2886 96.8378 43.314 96.8496 43.3422C96.8614 43.3703 96.8671 43.4007 96.8663 43.4312C96.8634 43.5169 96.8467 43.6016 96.8169 43.6821L95.4826 47.6165C95.469 47.6545 95.4525 47.6913 95.4332 47.7268C95.4036 47.7759 95.3616 47.8165 95.3115 47.8446C95.2433 47.8832 95.1656 47.9017 95.0873 47.8978C95.0063 47.9011 94.9264 47.8785 94.8592 47.8332C94.809 47.7987 94.7674 47.7532 94.7375 47.7002C94.718 47.6643 94.7002 47.6275 94.6843 47.5899L93.753 44.5792L92.8216 47.5823C92.8085 47.6247 92.7907 47.6655 92.7684 47.704C92.7422 47.7583 92.7014 47.8044 92.6506 47.837C92.5766 47.8859 92.4879 47.9074 92.3997 47.8978Z" fill="#6E6791"/>
<path d="M99.2873 47.9392C99.0684 47.9388 98.8516 47.8962 98.6487 47.8138C98.4396 47.7224 98.2489 47.5936 98.0861 47.4337C97.9271 47.2759 97.7982 47.0904 97.706 46.8863C97.6057 46.6696 97.555 46.4332 97.5577 46.1944C97.556 45.9618 97.6026 45.7314 97.6946 45.5178C97.873 45.1008 98.2052 44.7687 98.6221 44.5902C98.8339 44.5013 99.0615 44.4561 99.2911 44.4572C99.5954 44.4531 99.895 44.532 100.158 44.6853C100.414 44.8362 100.629 45.0493 100.781 45.3049C100.938 45.572 101.018 45.8771 101.013 46.1868C101.019 46.4223 100.975 46.6565 100.883 46.8735C100.791 47.0905 100.654 47.2854 100.481 47.4451C100.321 47.595 100.134 47.7136 99.9298 47.7948C99.7278 47.8864 99.5091 47.9356 99.2873 47.9392ZM99.2873 47.1296C99.4388 47.13 99.5879 47.092 99.7207 47.0193C99.8624 46.9435 99.9807 46.8305 100.063 46.6924C100.153 46.5423 100.199 46.3696 100.196 46.1944C100.2 46.0295 100.159 45.8666 100.078 45.723C100 45.5876 99.8874 45.4759 99.7511 45.3999C99.6065 45.3218 99.4441 45.2825 99.2797 45.2859C99.1186 45.2833 98.9598 45.324 98.8198 45.4037C98.6853 45.4825 98.5739 45.5952 98.4966 45.7306C98.4152 45.8743 98.3732 46.0369 98.375 46.202C98.3709 46.3761 98.4171 46.5477 98.5081 46.6962C98.5889 46.833 98.706 46.9448 98.8464 47.0193C98.9773 47.0942 99.1251 47.1348 99.2759 47.1372L99.2873 47.1296Z" fill="#6E6791"/>
<path d="M102.287 47.897C102.193 47.9042 102.1 47.8844 102.017 47.84C101.99 47.8227 101.966 47.8 101.948 47.7732C101.929 47.7464 101.917 47.716 101.911 47.6841C101.895 47.6143 101.887 47.5429 101.888 47.4713V44.9357C101.887 44.8628 101.894 44.7901 101.911 44.7191C101.917 44.6887 101.93 44.66 101.948 44.6351C101.966 44.6101 101.99 44.5895 102.017 44.5746C102.104 44.5348 102.199 44.5178 102.295 44.5252C102.387 44.5195 102.479 44.5352 102.564 44.5708C102.614 44.5971 102.653 44.6402 102.675 44.6924C102.69 44.7378 102.697 44.7853 102.698 44.8331L102.64 44.9547L102.739 44.8217C102.785 44.7614 102.84 44.7088 102.903 44.6658C102.977 44.6081 103.061 44.5631 103.15 44.5328C103.26 44.4969 103.376 44.4802 103.492 44.4834C103.55 44.4782 103.609 44.4782 103.667 44.4834C103.729 44.4963 103.79 44.5128 103.849 44.5328C103.909 44.5509 103.965 44.5778 104.017 44.6126C104.063 44.6405 104.103 44.6781 104.134 44.7229C104.161 44.7677 104.176 44.8188 104.176 44.8711C104.183 45.0066 104.144 45.1404 104.066 45.2512C104.039 45.2968 104 45.3347 103.955 45.3613C103.909 45.3879 103.857 45.4024 103.804 45.4033C103.753 45.4064 103.703 45.3986 103.655 45.3805C103.626 45.3708 103.599 45.3553 103.576 45.3349C103.55 45.313 103.52 45.2962 103.488 45.2855C103.428 45.2773 103.366 45.2773 103.306 45.2855C103.235 45.286 103.164 45.2975 103.097 45.3197C103.026 45.3415 102.96 45.3763 102.903 45.4223C102.839 45.4713 102.788 45.5347 102.753 45.6075C102.719 45.6802 102.702 45.7601 102.705 45.8405V47.5017C102.706 47.572 102.698 47.6422 102.682 47.7107C102.676 47.7419 102.662 47.7712 102.643 47.7967C102.624 47.8223 102.6 47.8435 102.572 47.859C102.482 47.8953 102.384 47.9084 102.287 47.897Z" fill="#6E6791"/>
<path d="M107.746 47.1598C107.799 47.1852 107.845 47.2241 107.878 47.2727C107.912 47.3212 107.932 47.3777 107.937 47.4364C107.942 47.4952 107.932 47.5543 107.907 47.6078C107.882 47.6613 107.843 47.7074 107.795 47.7414C107.737 47.8095 107.667 47.8673 107.59 47.9125C107.562 47.9247 107.531 47.931 107.501 47.931C107.47 47.931 107.439 47.9247 107.411 47.9125C107.334 47.8752 107.263 47.8279 107.198 47.7718L105.891 46.6694V47.4829C105.891 47.552 105.883 47.6209 105.868 47.6882C105.853 47.7514 105.813 47.806 105.758 47.8402C105.671 47.8816 105.576 47.9 105.48 47.8935C105.384 47.9005 105.288 47.8807 105.203 47.8364C105.176 47.819 105.153 47.7961 105.135 47.7693C105.117 47.7425 105.105 47.7123 105.1 47.6806C105.085 47.6133 105.077 47.5444 105.077 47.4753V43.3964C105.076 43.3261 105.084 43.2559 105.1 43.1874C105.118 43.1253 105.157 43.0714 105.21 43.0353C105.296 42.991 105.392 42.9713 105.488 42.9783C105.583 42.9703 105.678 42.9901 105.761 43.0353C105.815 43.0705 105.853 43.1249 105.868 43.1874C105.884 43.2584 105.892 43.3312 105.891 43.404V45.6468L106.837 44.7307C106.895 44.6704 106.965 44.6226 107.043 44.5901C107.103 44.5673 107.169 44.5673 107.229 44.5901C107.307 44.6207 107.375 44.6719 107.426 44.7383C107.517 44.8154 107.576 44.924 107.59 45.0424C107.566 45.1539 107.506 45.2543 107.419 45.3275L106.495 46.1828L107.746 47.1598Z" fill="#6E6791"/>
<path d="M108.924 44.5942H109.627L110.574 44.5676C110.645 44.5663 110.715 44.5753 110.783 44.5942C110.813 44.6013 110.841 44.6143 110.866 44.6326C110.891 44.6509 110.912 44.674 110.928 44.7006C110.972 44.7861 110.992 44.8821 110.985 44.9781C110.991 45.0704 110.971 45.1626 110.928 45.2442C110.913 45.2724 110.892 45.2971 110.868 45.3168C110.843 45.3364 110.814 45.3506 110.783 45.3583C110.716 45.3746 110.647 45.3823 110.578 45.3811H109.662H108.901C108.857 45.3832 108.813 45.3755 108.772 45.3584C108.732 45.3413 108.695 45.3153 108.666 45.2822C108.616 45.1877 108.593 45.081 108.601 44.9743C108.593 44.8716 108.621 44.7693 108.681 44.6854C108.712 44.6532 108.75 44.6283 108.792 44.6125C108.834 44.5967 108.879 44.5905 108.924 44.5942ZM109.601 47.8976C109.508 47.9033 109.415 47.885 109.331 47.8444C109.304 47.827 109.28 47.8042 109.262 47.7774C109.243 47.7506 109.231 47.7204 109.225 47.6885C109.21 47.6198 109.204 47.5496 109.206 47.4794V44.1532C109.204 43.9948 109.227 43.8371 109.274 43.6857C109.316 43.544 109.39 43.4139 109.491 43.3055C109.599 43.1972 109.728 43.1119 109.871 43.0546C110.058 42.9894 110.255 42.9584 110.452 42.9634C110.523 42.9629 110.593 42.9705 110.661 42.9862C110.721 43.004 110.774 43.0415 110.81 43.0927C110.85 43.1797 110.87 43.2744 110.87 43.3702C110.87 43.4659 110.85 43.5606 110.81 43.6477C110.793 43.6756 110.772 43.6999 110.745 43.7189C110.719 43.7378 110.689 43.7511 110.658 43.7579C110.588 43.7723 110.516 43.7787 110.445 43.7769C110.378 43.7726 110.31 43.7726 110.243 43.7769C110.195 43.7816 110.148 43.7972 110.106 43.8225C110.069 43.8479 110.042 43.8856 110.03 43.929C110.014 43.9922 110.006 44.0575 110.008 44.1228V47.4756C110.009 47.5438 110 47.6117 109.981 47.6771C109.964 47.7388 109.925 47.7918 109.871 47.8254C109.788 47.8709 109.695 47.8957 109.601 47.8976Z" fill="#6E6791"/>
<path d="M113.406 47.9391C113.186 47.939 112.968 47.8964 112.764 47.8137C112.557 47.7214 112.367 47.5926 112.205 47.4335C112.044 47.2777 111.915 47.0918 111.825 46.8861C111.725 46.6694 111.674 46.4331 111.677 46.1943C111.675 45.9617 111.722 45.7313 111.814 45.5176C111.904 45.3103 112.033 45.122 112.194 44.9626C112.352 44.8019 112.539 44.6729 112.745 44.5825C112.989 44.4831 113.253 44.4401 113.516 44.4565C113.779 44.473 114.036 44.5485 114.266 44.6775C114.521 44.8294 114.736 45.0423 114.889 45.2972C115.025 45.5382 115.103 45.8072 115.118 46.0834C115.133 46.3595 115.085 46.6355 114.976 46.8899C114.889 47.0967 114.76 47.2831 114.596 47.4373C114.437 47.5881 114.25 47.7068 114.045 47.7871C113.845 47.8809 113.628 47.9327 113.406 47.9391ZM113.406 47.1294C113.558 47.1309 113.707 47.0929 113.84 47.0192C113.982 46.9426 114.101 46.8298 114.186 46.6923C114.276 46.5422 114.322 46.3695 114.319 46.1943C114.322 46.0291 114.279 45.8662 114.197 45.7229C114.121 45.5878 114.009 45.476 113.874 45.3998C113.728 45.3217 113.564 45.2824 113.399 45.2857C113.239 45.2831 113.081 45.3238 112.943 45.4036C112.807 45.4821 112.694 45.5948 112.616 45.7305C112.536 45.8745 112.495 46.0371 112.498 46.2019C112.493 46.3756 112.538 46.5472 112.627 46.6961C112.709 46.832 112.826 46.9436 112.966 47.0192C113.096 47.093 113.242 47.1335 113.391 47.137L113.406 47.1294Z" fill="#6E6791"/>
<path d="M116.402 47.8971C116.308 47.9037 116.215 47.8839 116.132 47.8401C116.077 47.8043 116.039 47.7482 116.025 47.6842C116.011 47.6143 116.004 47.5428 116.006 47.4714V44.9358C116.004 44.8631 116.01 44.7904 116.025 44.7192C116.032 44.6891 116.045 44.6609 116.064 44.636C116.082 44.6112 116.105 44.5903 116.132 44.5747C116.219 44.535 116.314 44.5179 116.409 44.5253C116.502 44.5197 116.594 44.5353 116.679 44.5709C116.73 44.5961 116.769 44.6395 116.789 44.6926C116.804 44.7379 116.812 44.7854 116.812 44.8332L116.759 44.9548C116.782 44.9206 116.812 44.875 116.854 44.8218C116.901 44.7624 116.956 44.71 117.017 44.6659C117.092 44.6089 117.176 44.564 117.265 44.5329C117.375 44.497 117.491 44.4803 117.607 44.4835C117.665 44.4782 117.723 44.4782 117.782 44.4835C117.843 44.4964 117.904 44.5129 117.964 44.5329C118.024 44.5501 118.08 44.5771 118.131 44.6127C118.179 44.6392 118.22 44.6771 118.249 44.723C118.276 44.7678 118.29 44.819 118.291 44.8712C118.298 45.0067 118.259 45.1405 118.181 45.2514C118.154 45.2964 118.116 45.3339 118.071 45.3605C118.026 45.3871 117.975 45.4018 117.922 45.4034C117.87 45.4062 117.819 45.3985 117.77 45.3806C117.741 45.37 117.714 45.3546 117.69 45.335C117.665 45.3131 117.635 45.2963 117.603 45.2856C117.542 45.2774 117.481 45.2774 117.42 45.2856C117.275 45.2858 117.133 45.3339 117.017 45.4224C116.954 45.4714 116.902 45.5348 116.868 45.6076C116.834 45.6803 116.817 45.7602 116.82 45.8406V47.5018C116.82 47.5719 116.814 47.6419 116.801 47.7108C116.784 47.7725 116.745 47.8255 116.691 47.8591C116.599 47.895 116.5 47.908 116.402 47.8971Z" fill="#6E6791"/>
<path d="M120.807 47.8972C120.59 47.897 120.373 47.8584 120.169 47.7831C119.963 47.7084 119.772 47.5963 119.606 47.4524C119.348 47.2016 119.173 46.8775 119.105 46.5239C119.037 46.1703 119.079 45.8044 119.226 45.4757C119.313 45.2721 119.443 45.0894 119.606 44.9397C119.768 44.7949 119.954 44.6815 120.157 44.6052C120.362 44.5281 120.578 44.4882 120.796 44.4873C120.949 44.4863 121.102 44.5094 121.248 44.5558C121.381 44.5965 121.508 44.6513 121.629 44.7192C121.715 44.769 121.791 44.8348 121.853 44.9131C121.906 44.9611 121.956 45.0132 122.001 45.0689C122.022 45.0946 122.037 45.1248 122.044 45.1571C122.051 45.1895 122.051 45.2231 122.043 45.2552C122.031 45.3004 122.01 45.343 121.982 45.3807C121.951 45.4241 121.917 45.4648 121.879 45.5023C121.845 45.5542 121.796 45.5948 121.738 45.6191C121.681 45.6434 121.618 45.6504 121.556 45.6392L121.381 45.5365L121.199 45.4301C121.139 45.3963 121.077 45.3671 121.013 45.3426C120.944 45.3193 120.872 45.3078 120.8 45.3084C120.638 45.3055 120.478 45.3448 120.336 45.4225C120.205 45.4958 120.095 45.6035 120.021 45.7342C119.946 45.8745 119.908 46.0314 119.91 46.1904C119.908 46.3517 119.945 46.5112 120.021 46.6541C120.094 46.7857 120.202 46.8947 120.332 46.9696C120.471 47.0456 120.627 47.0836 120.785 47.0799C120.864 47.0815 120.944 47.0713 121.02 47.0495C121.091 47.0326 121.159 47.0057 121.222 46.9696C121.275 46.942 121.324 46.9061 121.366 46.8632L121.503 46.7758C121.546 46.7532 121.596 46.7465 121.644 46.7568C121.703 46.7576 121.76 46.7776 121.807 46.8138C121.873 46.8671 121.932 46.9284 121.982 46.9962C122.034 47.0509 122.068 47.1197 122.081 47.1939C122.086 47.2576 122.072 47.3214 122.039 47.3764C121.997 47.4447 121.94 47.502 121.872 47.5436C121.798 47.6095 121.716 47.6658 121.629 47.7109C121.507 47.7727 121.38 47.8224 121.248 47.8592C121.104 47.8914 120.955 47.9042 120.807 47.8972Z" fill="#6E6791"/>
<path d="M124.621 47.9397C124.36 47.943 124.101 47.8938 123.86 47.7953C123.65 47.7105 123.46 47.5807 123.305 47.4151C123.158 47.2516 123.044 47.0604 122.971 46.8525C122.895 46.6456 122.856 46.4268 122.857 46.2063C122.851 45.9 122.929 45.5979 123.081 45.332C123.23 45.0764 123.447 44.8672 123.708 44.7276C123.991 44.5777 124.308 44.5019 124.628 44.5071C124.85 44.5038 125.071 44.5438 125.278 44.6249C125.453 44.694 125.612 44.7974 125.746 44.929C125.868 45.0473 125.966 45.188 126.035 45.3434C126.097 45.4809 126.13 45.6297 126.133 45.7805C126.143 45.8759 126.132 45.9721 126.102 46.0631C126.071 46.1541 126.023 46.2378 125.959 46.3089C125.901 46.3633 125.833 46.4058 125.758 46.4338C125.684 46.4619 125.605 46.475 125.525 46.4724H123.72C123.721 46.6192 123.772 46.7612 123.864 46.8753C123.961 46.9906 124.083 47.0817 124.221 47.1414C124.361 47.2009 124.511 47.2319 124.662 47.2327C124.764 47.2392 124.865 47.2392 124.966 47.2327C125.045 47.2197 125.122 47.2019 125.198 47.1795C125.255 47.1615 125.311 47.1399 125.366 47.1148L125.499 47.054C125.534 47.0362 125.573 47.0247 125.613 47.0198C125.666 47.0145 125.719 47.0265 125.765 47.054C125.82 47.0857 125.863 47.1353 125.886 47.1947C125.911 47.2354 125.932 47.2787 125.947 47.3239C125.953 47.3605 125.953 47.3976 125.947 47.4341C125.943 47.4873 125.926 47.5386 125.898 47.5837C125.869 47.6287 125.83 47.6661 125.784 47.6926C125.642 47.786 125.485 47.853 125.32 47.8903C125.09 47.9371 124.855 47.9537 124.621 47.9397ZM123.704 45.9744H125.107C125.168 45.9789 125.229 45.9657 125.282 45.9364C125.324 45.9136 125.347 45.8604 125.347 45.7767C125.346 45.6734 125.312 45.573 125.248 45.4916C125.181 45.4042 125.091 45.336 124.989 45.294C124.869 45.2451 124.739 45.2205 124.609 45.2217C124.452 45.2203 124.296 45.254 124.153 45.3206C124.023 45.3815 123.911 45.4744 123.826 45.5905C123.746 45.7025 123.704 45.8368 123.704 45.9744Z" fill="#6E6791"/>
<defs>
<filter id="filter0_d_3393_3578" x="8.87988" y="12.1494" width="35.5146" height="35.4766" filterUnits="userSpaceOnUse" color-interpolation-filters="sRGB">
<feFlood flood-opacity="0" result="BackgroundImageFix"/>
<feColorMatrix in="SourceAlpha" type="matrix" values="0 0 0 0 0 0 0 0 0 0 0 0 0 0 0 0 0 0 127 0" result="hardAlpha"/>
<feOffset dx="4" dy="4"/>
<feGaussianBlur stdDeviation="2"/>
<feComposite in2="hardAlpha" operator="out"/>
<feColorMatrix type="matrix" values="0 0 0 0 0 0 0 0 0 0 0 0 0 0 0 0 0 0 0.1 0"/>
<feBlend mode="normal" in2="BackgroundImageFix" result="effect1_dropShadow_3393_3578"/>
<feBlend mode="normal" in="SourceGraphic" in2="effect1_dropShadow_3393_3578" result="shape"/>
</filter>
<linearGradient id="paint0_linear_3393_3578" x1="1.22357" y1="4.27667" x2="38.7736" y2="42.1726" gradientUnits="userSpaceOnUse">
<stop stop-color="#A73AD4"/>
<stop offset="1" stop-color="#6A32C4"/>
</linearGradient>
<linearGradient id="paint1_linear_3393_3578" x1="18.7402" y1="31.297" x2="26.5369" y2="31.297" gradientUnits="userSpaceOnUse">
<stop stop-color="#FC7200"/>
<stop offset="1" stop-color="#FFCD0D"/>
</linearGradient>
<linearGradient id="paint2_linear_3393_3578" x1="18.6904" y1="25.8875" x2="26.5821" y2="25.8875" gradientUnits="userSpaceOnUse">
<stop stop-color="#FC7200"/>
<stop offset="1" stop-color="#FFCD0D"/>
</linearGradient>
<linearGradient id="paint3_linear_3393_3578" x1="15.2506" y1="25.8875" x2="18.5996" y2="25.8875" gradientUnits="userSpaceOnUse">
<stop stop-color="#A73AD4"/>
<stop offset="1" stop-color="#6A32C4"/>
</linearGradient>
<linearGradient id="paint4_linear_3393_3578" x1="17.8928" y1="20.6532" x2="27.3886" y2="20.6532" gradientUnits="userSpaceOnUse">
<stop stop-color="#A73AD4"/>
<stop offset="1" stop-color="#6A32C4"/>
</linearGradient>
<linearGradient id="paint5_linear_3393_3578" x1="26.5942" y1="25.8876" x2="30.0496" y2="25.8876" gradientUnits="userSpaceOnUse">
<stop stop-color="#A73AD4"/>
<stop offset="1" stop-color="#6A32C4"/>
</linearGradient>
</defs>
</svg>
